ISO-10303-21;
HEADER;
/* Generated by software containing ST-Developer
 * from STEP Tools, Inc. (www.steptools.com) 
 */

FILE_DESCRIPTION(
/* description */ (''),
/* implementation_level */ '2;1');

FILE_NAME(
/* name */ 'battery-tray.step',
/* time_stamp */ '2026-09-23T16:22:54+08:00',
/* author */ (''),
/* organization */ (''),
/* preprocessor_version */ 'ST-DEVELOPER v20.2',
/* originating_system */ 'Autodesk Translation Framework v15.15.0.0',
/* authorisation */ '');

FILE_SCHEMA (('AUTOMOTIVE_DESIGN { 1 0 10303 214 3 1 1 }'));
ENDSEC;

DATA;
#10=MECHANICAL_DESIGN_GEOMETRIC_PRESENTATION_REPRESENTATION('',(#13),#1413);
#11=SHAPE_REPRESENTATION_RELATIONSHIP('SRR','None',#1420,#12);
#12=ADVANCED_BREP_SHAPE_REPRESENTATION('',(#14),#1412);
#13=STYLED_ITEM('',(#1430),#14);
#14=MANIFOLD_SOLID_BREP('Battery insulation floor',#869);
#15=CYLINDRICAL_SURFACE('',#922,0.03);
#16=CYLINDRICAL_SURFACE('',#924,0.0299999999999994);
#17=CYLINDRICAL_SURFACE('',#926,0.0299999999999998);
#18=CYLINDRICAL_SURFACE('',#927,0.03);
#19=CYLINDRICAL_SURFACE('',#929,0.0600000000000001);
#20=CYLINDRICAL_SURFACE('',#932,0.0600000000000005);
#21=CYLINDRICAL_SURFACE('',#935,0.0599999999999999);
#22=CYLINDRICAL_SURFACE('',#938,0.0599999999999999);
#23=FACE_BOUND('',#111,.T.);
#24=FACE_BOUND('',#112,.T.);
#25=FACE_BOUND('',#131,.T.);
#26=FACE_BOUND('',#132,.T.);
#27=FACE_BOUND('',#133,.T.);
#28=FACE_BOUND('',#134,.T.);
#29=CIRCLE('',#906,0.03);
#30=CIRCLE('',#907,0.03);
#31=CIRCLE('',#908,0.0299999999999994);
#32=CIRCLE('',#909,0.0299999999999998);
#33=CIRCLE('',#911,0.0299999999999994);
#34=CIRCLE('',#912,0.03);
#35=CIRCLE('',#913,0.03);
#36=CIRCLE('',#914,0.0599999999999999);
#37=CIRCLE('',#915,0.0599999999999999);
#38=CIRCLE('',#916,0.0600000000000005);
#39=CIRCLE('',#917,0.0600000000000001);
#40=CIRCLE('',#918,0.0299999999999998);
#41=CIRCLE('',#930,0.0600000000000001);
#42=CIRCLE('',#933,0.0600000000000005);
#43=CIRCLE('',#936,0.0599999999999999);
#44=CIRCLE('',#939,0.0599999999999999);
#45=FACE_OUTER_BOUND('',#87,.T.);
#46=FACE_OUTER_BOUND('',#88,.T.);
#47=FACE_OUTER_BOUND('',#89,.T.);
#48=FACE_OUTER_BOUND('',#90,.T.);
#49=FACE_OUTER_BOUND('',#91,.T.);
#50=FACE_OUTER_BOUND('',#92,.T.);
#51=FACE_OUTER_BOUND('',#93,.T.);
#52=FACE_OUTER_BOUND('',#94,.T.);
#53=FACE_OUTER_BOUND('',#95,.T.);
#54=FACE_OUTER_BOUND('',#96,.T.);
#55=FACE_OUTER_BOUND('',#97,.T.);
#56=FACE_OUTER_BOUND('',#98,.T.);
#57=FACE_OUTER_BOUND('',#99,.T.);
#58=FACE_OUTER_BOUND('',#100,.T.);
#59=FACE_OUTER_BOUND('',#101,.T.);
#60=FACE_OUTER_BOUND('',#102,.T.);
#61=FACE_OUTER_BOUND('',#103,.T.);
#62=FACE_OUTER_BOUND('',#104,.T.);
#63=FACE_OUTER_BOUND('',#105,.T.);
#64=FACE_OUTER_BOUND('',#106,.T.);
#65=FACE_OUTER_BOUND('',#107,.T.);
#66=FACE_OUTER_BOUND('',#108,.T.);
#67=FACE_OUTER_BOUND('',#109,.T.);
#68=FACE_OUTER_BOUND('',#110,.T.);
#69=FACE_OUTER_BOUND('',#113,.T.);
#70=FACE_OUTER_BOUND('',#114,.T.);
#71=FACE_OUTER_BOUND('',#115,.T.);
#72=FACE_OUTER_BOUND('',#116,.T.);
#73=FACE_OUTER_BOUND('',#117,.T.);
#74=FACE_OUTER_BOUND('',#118,.T.);
#75=FACE_OUTER_BOUND('',#119,.T.);
#76=FACE_OUTER_BOUND('',#120,.T.);
#77=FACE_OUTER_BOUND('',#121,.T.);
#78=FACE_OUTER_BOUND('',#122,.T.);
#79=FACE_OUTER_BOUND('',#123,.T.);
#80=FACE_OUTER_BOUND('',#124,.T.);
#81=FACE_OUTER_BOUND('',#125,.T.);
#82=FACE_OUTER_BOUND('',#126,.T.);
#83=FACE_OUTER_BOUND('',#127,.T.);
#84=FACE_OUTER_BOUND('',#128,.T.);
#85=FACE_OUTER_BOUND('',#129,.T.);
#86=FACE_OUTER_BOUND('',#130,.T.);
#87=EDGE_LOOP('',(#549,#550,#551,#552));
#88=EDGE_LOOP('',(#553,#554,#555,#556,#557));
#89=EDGE_LOOP('',(#558,#559,#560,#561));
#90=EDGE_LOOP('',(#562,#563,#564,#565,#566));
#91=EDGE_LOOP('',(#567,#568,#569,#570));
#92=EDGE_LOOP('',(#571,#572,#573,#574));
#93=EDGE_LOOP('',(#575,#576,#577,#578));
#94=EDGE_LOOP('',(#579,#580,#581,#582));
#95=EDGE_LOOP('',(#583,#584,#585,#586));
#96=EDGE_LOOP('',(#587,#588,#589,#590));
#97=EDGE_LOOP('',(#591,#592,#593,#594,#595));
#98=EDGE_LOOP('',(#596,#597,#598,#599));
#99=EDGE_LOOP('',(#600,#601,#602,#603,#604));
#100=EDGE_LOOP('',(#605,#606,#607,#608));
#101=EDGE_LOOP('',(#609,#610,#611,#612));
#102=EDGE_LOOP('',(#613,#614,#615,#616));
#103=EDGE_LOOP('',(#617,#618,#619,#620));
#104=EDGE_LOOP('',(#621,#622,#623,#624));
#105=EDGE_LOOP('',(#625,#626,#627,#628,#629,#630));
#106=EDGE_LOOP('',(#631,#632,#633,#634));
#107=EDGE_LOOP('',(#635,#636,#637,#638,#639,#640));
#108=EDGE_LOOP('',(#641,#642,#643,#644));
#109=EDGE_LOOP('',(#645,#646,#647,#648,#649,#650,#651,#652,#653,#654,#655,
#656,#657,#658,#659,#660));
#110=EDGE_LOOP('',(#661,#662,#663,#664,#665,#666,#667,#668,#669,#670,#671,
#672,#673,#674,#675,#676,#677,#678,#679,#680,#681,#682,#683,#684,#685,#686,
#687,#688));
#111=EDGE_LOOP('',(#689,#690,#691,#692));
#112=EDGE_LOOP('',(#693,#694,#695,#696));
#113=EDGE_LOOP('',(#697,#698,#699,#700));
#114=EDGE_LOOP('',(#701,#702,#703,#704));
#115=EDGE_LOOP('',(#705,#706,#707,#708));
#116=EDGE_LOOP('',(#709,#710,#711,#712));
#117=EDGE_LOOP('',(#713,#714,#715,#716));
#118=EDGE_LOOP('',(#717,#718,#719,#720));
#119=EDGE_LOOP('',(#721,#722,#723,#724));
#120=EDGE_LOOP('',(#725,#726,#727,#728));
#121=EDGE_LOOP('',(#729,#730,#731,#732));
#122=EDGE_LOOP('',(#733,#734,#735,#736,#737,#738,#739,#740));
#123=EDGE_LOOP('',(#741,#742,#743,#744));
#124=EDGE_LOOP('',(#745,#746,#747,#748));
#125=EDGE_LOOP('',(#749,#750,#751,#752));
#126=EDGE_LOOP('',(#753,#754,#755,#756));
#127=EDGE_LOOP('',(#757,#758,#759,#760));
#128=EDGE_LOOP('',(#761,#762,#763,#764));
#129=EDGE_LOOP('',(#765,#766,#767,#768));
#130=EDGE_LOOP('',(#769,#770,#771,#772,#773,#774,#775,#776));
#131=EDGE_LOOP('',(#777,#778,#779,#780));
#132=EDGE_LOOP('',(#781,#782,#783,#784));
#133=EDGE_LOOP('',(#785,#786,#787,#788));
#134=EDGE_LOOP('',(#789,#790,#791,#792));
#135=LINE('',#1169,#241);
#136=LINE('',#1171,#242);
#137=LINE('',#1173,#243);
#138=LINE('',#1174,#244);
#139=LINE('',#1178,#245);
#140=LINE('',#1179,#246);
#141=LINE('',#1181,#247);
#142=LINE('',#1182,#248);
#143=LINE('',#1185,#249);
#144=LINE('',#1187,#250);
#145=LINE('',#1188,#251);
#146=LINE('',#1191,#252);
#147=LINE('',#1192,#253);
#148=LINE('',#1193,#254);
#149=LINE('',#1196,#255);
#150=LINE('',#1198,#256);
#151=LINE('',#1199,#257);
#152=LINE('',#1203,#258);
#153=LINE('',#1205,#259);
#154=LINE('',#1207,#260);
#155=LINE('',#1208,#261);
#156=LINE('',#1211,#262);
#157=LINE('',#1213,#263);
#158=LINE('',#1214,#264);
#159=LINE('',#1217,#265);
#160=LINE('',#1219,#266);
#161=LINE('',#1220,#267);
#162=LINE('',#1222,#268);
#163=LINE('',#1223,#269);
#164=LINE('',#1226,#270);
#165=LINE('',#1228,#271);
#166=LINE('',#1230,#272);
#167=LINE('',#1231,#273);
#168=LINE('',#1235,#274);
#169=LINE('',#1236,#275);
#170=LINE('',#1238,#276);
#171=LINE('',#1239,#277);
#172=LINE('',#1242,#278);
#173=LINE('',#1244,#279);
#174=LINE('',#1245,#280);
#175=LINE('',#1247,#281);
#176=LINE('',#1248,#282);
#177=LINE('',#1251,#283);
#178=LINE('',#1253,#284);
#179=LINE('',#1254,#285);
#180=LINE('',#1258,#286);
#181=LINE('',#1260,#287);
#182=LINE('',#1262,#288);
#183=LINE('',#1263,#289);
#184=LINE('',#1266,#290);
#185=LINE('',#1268,#291);
#186=LINE('',#1269,#292);
#187=LINE('',#1272,#293);
#188=LINE('',#1274,#294);
#189=LINE('',#1275,#295);
#190=LINE('',#1277,#296);
#191=LINE('',#1278,#297);
#192=LINE('',#1282,#298);
#193=LINE('',#1284,#299);
#194=LINE('',#1286,#300);
#195=LINE('',#1288,#301);
#196=LINE('',#1290,#302);
#197=LINE('',#1291,#303);
#198=LINE('',#1294,#304);
#199=LINE('',#1296,#305);
#200=LINE('',#1297,#306);
#201=LINE('',#1301,#307);
#202=LINE('',#1303,#308);
#203=LINE('',#1305,#309);
#204=LINE('',#1306,#310);
#205=LINE('',#1307,#311);
#206=LINE('',#1309,#312);
#207=LINE('',#1312,#313);
#208=LINE('',#1316,#314);
#209=LINE('',#1320,#315);
#210=LINE('',#1323,#316);
#211=LINE('',#1326,#317);
#212=LINE('',#1329,#318);
#213=LINE('',#1333,#319);
#214=LINE('',#1337,#320);
#215=LINE('',#1340,#321);
#216=LINE('',#1342,#322);
#217=LINE('',#1346,#323);
#218=LINE('',#1350,#324);
#219=LINE('',#1354,#325);
#220=LINE('',#1357,#326);
#221=LINE('',#1359,#327);
#222=LINE('',#1362,#328);
#223=LINE('',#1364,#329);
#224=LINE('',#1366,#330);
#225=LINE('',#1367,#331);
#226=LINE('',#1369,#332);
#227=LINE('',#1371,#333);
#228=LINE('',#1373,#334);
#229=LINE('',#1379,#335);
#230=LINE('',#1381,#336);
#231=LINE('',#1382,#337);
#232=LINE('',#1386,#338);
#233=LINE('',#1389,#339);
#234=LINE('',#1390,#340);
#235=LINE('',#1394,#341);
#236=LINE('',#1397,#342);
#237=LINE('',#1398,#343);
#238=LINE('',#1402,#344);
#239=LINE('',#1405,#345);
#240=LINE('',#1406,#346);
#241=VECTOR('',#945,1.);
#242=VECTOR('',#946,1.);
#243=VECTOR('',#947,1.);
#244=VECTOR('',#948,1.);
#245=VECTOR('',#951,1.);
#246=VECTOR('',#952,1.);
#247=VECTOR('',#953,1.);
#248=VECTOR('',#954,1.);
#249=VECTOR('',#957,1.);
#250=VECTOR('',#958,1.);
#251=VECTOR('',#959,1.);
#252=VECTOR('',#962,1.);
#253=VECTOR('',#963,1.);
#254=VECTOR('',#964,1.);
#255=VECTOR('',#967,1.);
#256=VECTOR('',#968,1.);
#257=VECTOR('',#969,1.);
#258=VECTOR('',#972,1.);
#259=VECTOR('',#973,1.);
#260=VECTOR('',#974,1.);
#261=VECTOR('',#975,1.);
#262=VECTOR('',#978,1.);
#263=VECTOR('',#979,1.);
#264=VECTOR('',#980,1.);
#265=VECTOR('',#983,1.);
#266=VECTOR('',#984,1.);
#267=VECTOR('',#985,1.);
#268=VECTOR('',#988,1.);
#269=VECTOR('',#989,1.);
#270=VECTOR('',#992,1.);
#271=VECTOR('',#993,1.);
#272=VECTOR('',#994,1.);
#273=VECTOR('',#995,1.);
#274=VECTOR('',#998,1.);
#275=VECTOR('',#999,1.);
#276=VECTOR('',#1000,1.);
#277=VECTOR('',#1001,1.);
#278=VECTOR('',#1004,1.);
#279=VECTOR('',#1005,1.);
#280=VECTOR('',#1006,1.);
#281=VECTOR('',#1009,1.);
#282=VECTOR('',#1010,1.);
#283=VECTOR('',#1013,1.);
#284=VECTOR('',#1014,1.);
#285=VECTOR('',#1015,1.);
#286=VECTOR('',#1018,1.);
#287=VECTOR('',#1019,1.);
#288=VECTOR('',#1020,1.);
#289=VECTOR('',#1021,1.);
#290=VECTOR('',#1024,1.);
#291=VECTOR('',#1025,1.);
#292=VECTOR('',#1026,1.);
#293=VECTOR('',#1029,1.);
#294=VECTOR('',#1030,1.);
#295=VECTOR('',#1031,1.);
#296=VECTOR('',#1034,1.);
#297=VECTOR('',#1035,1.);
#298=VECTOR('',#1038,1.);
#299=VECTOR('',#1039,1.);
#300=VECTOR('',#1040,1.);
#301=VECTOR('',#1041,1.);
#302=VECTOR('',#1042,1.);
#303=VECTOR('',#1043,1.);
#304=VECTOR('',#1046,1.);
#305=VECTOR('',#1047,1.);
#306=VECTOR('',#1048,1.);
#307=VECTOR('',#1051,1.);
#308=VECTOR('',#1052,1.);
#309=VECTOR('',#1053,1.);
#310=VECTOR('',#1054,1.);
#311=VECTOR('',#1055,1.);
#312=VECTOR('',#1058,1.);
#313=VECTOR('',#1061,1.);
#314=VECTOR('',#1064,1.);
#315=VECTOR('',#1067,1.);
#316=VECTOR('',#1070,1.);
#317=VECTOR('',#1073,1.);
#318=VECTOR('',#1076,1.);
#319=VECTOR('',#1079,1.);
#320=VECTOR('',#1082,1.);
#321=VECTOR('',#1085,1.);
#322=VECTOR('',#1086,1.);
#323=VECTOR('',#1089,1.);
#324=VECTOR('',#1092,1.);
#325=VECTOR('',#1095,1.);
#326=VECTOR('',#1098,1.);
#327=VECTOR('',#1099,1.);
#328=VECTOR('',#1104,1.);
#329=VECTOR('',#1107,1.);
#330=VECTOR('',#1110,1.);
#331=VECTOR('',#1111,1.);
#332=VECTOR('',#1114,1.);
#333=VECTOR('',#1117,1.);
#334=VECTOR('',#1120,1.);
#335=VECTOR('',#1129,1.);
#336=VECTOR('',#1130,1.);
#337=VECTOR('',#1131,1.);
#338=VECTOR('',#1136,1.);
#339=VECTOR('',#1139,1.);
#340=VECTOR('',#1140,1.);
#341=VECTOR('',#1145,1.);
#342=VECTOR('',#1148,1.);
#343=VECTOR('',#1149,1.);
#344=VECTOR('',#1154,1.);
#345=VECTOR('',#1157,1.);
#346=VECTOR('',#1158,1.);
#347=VERTEX_POINT('',#1167);
#348=VERTEX_POINT('',#1168);
#349=VERTEX_POINT('',#1170);
#350=VERTEX_POINT('',#1172);
#351=VERTEX_POINT('',#1176);
#352=VERTEX_POINT('',#1177);
#353=VERTEX_POINT('',#1180);
#354=VERTEX_POINT('',#1184);
#355=VERTEX_POINT('',#1186);
#356=VERTEX_POINT('',#1190);
#357=VERTEX_POINT('',#1195);
#358=VERTEX_POINT('',#1197);
#359=VERTEX_POINT('',#1201);
#360=VERTEX_POINT('',#1202);
#361=VERTEX_POINT('',#1204);
#362=VERTEX_POINT('',#1206);
#363=VERTEX_POINT('',#1210);
#364=VERTEX_POINT('',#1212);
#365=VERTEX_POINT('',#1216);
#366=VERTEX_POINT('',#1218);
#367=VERTEX_POINT('',#1225);
#368=VERTEX_POINT('',#1227);
#369=VERTEX_POINT('',#1229);
#370=VERTEX_POINT('',#1233);
#371=VERTEX_POINT('',#1234);
#372=VERTEX_POINT('',#1237);
#373=VERTEX_POINT('',#1241);
#374=VERTEX_POINT('',#1243);
#375=VERTEX_POINT('',#1250);
#376=VERTEX_POINT('',#1252);
#377=VERTEX_POINT('',#1256);
#378=VERTEX_POINT('',#1257);
#379=VERTEX_POINT('',#1259);
#380=VERTEX_POINT('',#1261);
#381=VERTEX_POINT('',#1265);
#382=VERTEX_POINT('',#1267);
#383=VERTEX_POINT('',#1271);
#384=VERTEX_POINT('',#1273);
#385=VERTEX_POINT('',#1280);
#386=VERTEX_POINT('',#1281);
#387=VERTEX_POINT('',#1283);
#388=VERTEX_POINT('',#1285);
#389=VERTEX_POINT('',#1287);
#390=VERTEX_POINT('',#1289);
#391=VERTEX_POINT('',#1293);
#392=VERTEX_POINT('',#1295);
#393=VERTEX_POINT('',#1299);
#394=VERTEX_POINT('',#1300);
#395=VERTEX_POINT('',#1302);
#396=VERTEX_POINT('',#1304);
#397=VERTEX_POINT('',#1311);
#398=VERTEX_POINT('',#1313);
#399=VERTEX_POINT('',#1315);
#400=VERTEX_POINT('',#1317);
#401=VERTEX_POINT('',#1319);
#402=VERTEX_POINT('',#1321);
#403=VERTEX_POINT('',#1324);
#404=VERTEX_POINT('',#1328);
#405=VERTEX_POINT('',#1330);
#406=VERTEX_POINT('',#1332);
#407=VERTEX_POINT('',#1334);
#408=VERTEX_POINT('',#1336);
#409=VERTEX_POINT('',#1338);
#410=VERTEX_POINT('',#1341);
#411=VERTEX_POINT('',#1343);
#412=VERTEX_POINT('',#1345);
#413=VERTEX_POINT('',#1347);
#414=VERTEX_POINT('',#1349);
#415=VERTEX_POINT('',#1351);
#416=VERTEX_POINT('',#1353);
#417=VERTEX_POINT('',#1355);
#418=VERTEX_POINT('',#1358);
#419=VERTEX_POINT('',#1378);
#420=VERTEX_POINT('',#1380);
#421=VERTEX_POINT('',#1384);
#422=VERTEX_POINT('',#1388);
#423=VERTEX_POINT('',#1392);
#424=VERTEX_POINT('',#1396);
#425=VERTEX_POINT('',#1400);
#426=VERTEX_POINT('',#1404);
#427=EDGE_CURVE('',#347,#348,#135,.T.);
#428=EDGE_CURVE('',#349,#347,#136,.T.);
#429=EDGE_CURVE('',#350,#349,#137,.T.);
#430=EDGE_CURVE('',#350,#348,#138,.T.);
#431=EDGE_CURVE('',#351,#352,#139,.T.);
#432=EDGE_CURVE('',#348,#351,#140,.T.);
#433=EDGE_CURVE('',#353,#350,#141,.T.);
#434=EDGE_CURVE('',#353,#352,#142,.T.);
#435=EDGE_CURVE('',#352,#354,#143,.T.);
#436=EDGE_CURVE('',#355,#353,#144,.T.);
#437=EDGE_CURVE('',#355,#354,#145,.T.);
#438=EDGE_CURVE('',#354,#356,#146,.T.);
#439=EDGE_CURVE('',#349,#355,#147,.T.);
#440=EDGE_CURVE('',#356,#347,#148,.T.);
#441=EDGE_CURVE('',#357,#351,#149,.T.);
#442=EDGE_CURVE('',#357,#358,#150,.T.);
#443=EDGE_CURVE('',#348,#358,#151,.T.);
#444=EDGE_CURVE('',#359,#360,#152,.T.);
#445=EDGE_CURVE('',#361,#359,#153,.T.);
#446=EDGE_CURVE('',#362,#361,#154,.T.);
#447=EDGE_CURVE('',#362,#360,#155,.T.);
#448=EDGE_CURVE('',#360,#363,#156,.T.);
#449=EDGE_CURVE('',#364,#362,#157,.T.);
#450=EDGE_CURVE('',#364,#363,#158,.T.);
#451=EDGE_CURVE('',#363,#365,#159,.T.);
#452=EDGE_CURVE('',#366,#364,#160,.T.);
#453=EDGE_CURVE('',#366,#365,#161,.T.);
#454=EDGE_CURVE('',#365,#359,#162,.T.);
#455=EDGE_CURVE('',#361,#366,#163,.T.);
#456=EDGE_CURVE('',#358,#367,#164,.T.);
#457=EDGE_CURVE('',#368,#358,#165,.T.);
#458=EDGE_CURVE('',#369,#368,#166,.T.);
#459=EDGE_CURVE('',#369,#367,#167,.T.);
#460=EDGE_CURVE('',#370,#371,#168,.T.);
#461=EDGE_CURVE('',#367,#370,#169,.T.);
#462=EDGE_CURVE('',#372,#369,#170,.T.);
#463=EDGE_CURVE('',#372,#371,#171,.T.);
#464=EDGE_CURVE('',#371,#373,#172,.T.);
#465=EDGE_CURVE('',#374,#372,#173,.T.);
#466=EDGE_CURVE('',#374,#373,#174,.T.);
#467=EDGE_CURVE('',#373,#357,#175,.T.);
#468=EDGE_CURVE('',#368,#374,#176,.T.);
#469=EDGE_CURVE('',#375,#370,#177,.T.);
#470=EDGE_CURVE('',#376,#375,#178,.T.);
#471=EDGE_CURVE('',#367,#376,#179,.T.);
#472=EDGE_CURVE('',#377,#378,#180,.T.);
#473=EDGE_CURVE('',#379,#377,#181,.T.);
#474=EDGE_CURVE('',#380,#379,#182,.T.);
#475=EDGE_CURVE('',#380,#378,#183,.T.);
#476=EDGE_CURVE('',#378,#381,#184,.T.);
#477=EDGE_CURVE('',#382,#380,#185,.T.);
#478=EDGE_CURVE('',#382,#381,#186,.T.);
#479=EDGE_CURVE('',#381,#383,#187,.T.);
#480=EDGE_CURVE('',#384,#382,#188,.T.);
#481=EDGE_CURVE('',#384,#383,#189,.T.);
#482=EDGE_CURVE('',#383,#377,#190,.T.);
#483=EDGE_CURVE('',#379,#384,#191,.T.);
#484=EDGE_CURVE('',#385,#386,#192,.T.);
#485=EDGE_CURVE('',#387,#385,#193,.T.);
#486=EDGE_CURVE('',#387,#388,#194,.T.);
#487=EDGE_CURVE('',#389,#388,#195,.T.);
#488=EDGE_CURVE('',#390,#389,#196,.T.);
#489=EDGE_CURVE('',#386,#390,#197,.T.);
#490=EDGE_CURVE('',#388,#391,#198,.T.);
#491=EDGE_CURVE('',#392,#387,#199,.T.);
#492=EDGE_CURVE('',#392,#391,#200,.T.);
#493=EDGE_CURVE('',#393,#394,#201,.T.);
#494=EDGE_CURVE('',#395,#393,#202,.T.);
#495=EDGE_CURVE('',#396,#395,#203,.T.);
#496=EDGE_CURVE('',#391,#396,#204,.T.);
#497=EDGE_CURVE('',#394,#392,#205,.T.);
#498=EDGE_CURVE('',#394,#385,#206,.T.);
#499=EDGE_CURVE('',#396,#397,#207,.T.);
#500=EDGE_CURVE('',#397,#398,#29,.T.);
#501=EDGE_CURVE('',#398,#399,#208,.T.);
#502=EDGE_CURVE('',#399,#400,#30,.T.);
#503=EDGE_CURVE('',#400,#401,#209,.T.);
#504=EDGE_CURVE('',#401,#402,#31,.T.);
#505=EDGE_CURVE('',#402,#347,#210,.T.);
#506=EDGE_CURVE('',#376,#403,#32,.T.);
#507=EDGE_CURVE('',#403,#389,#211,.T.);
#508=EDGE_CURVE('',#356,#404,#212,.T.);
#509=EDGE_CURVE('',#404,#405,#33,.T.);
#510=EDGE_CURVE('',#405,#406,#213,.T.);
#511=EDGE_CURVE('',#406,#407,#34,.T.);
#512=EDGE_CURVE('',#407,#408,#214,.T.);
#513=EDGE_CURVE('',#408,#409,#35,.T.);
#514=EDGE_CURVE('',#409,#395,#215,.T.);
#515=EDGE_CURVE('',#393,#410,#216,.T.);
#516=EDGE_CURVE('',#410,#411,#36,.T.);
#517=EDGE_CURVE('',#411,#412,#217,.T.);
#518=EDGE_CURVE('',#412,#413,#37,.T.);
#519=EDGE_CURVE('',#413,#414,#218,.T.);
#520=EDGE_CURVE('',#414,#415,#38,.T.);
#521=EDGE_CURVE('',#415,#416,#219,.T.);
#522=EDGE_CURVE('',#416,#417,#39,.T.);
#523=EDGE_CURVE('',#417,#386,#220,.T.);
#524=EDGE_CURVE('',#390,#418,#221,.T.);
#525=EDGE_CURVE('',#418,#375,#40,.T.);
#526=EDGE_CURVE('',#397,#409,#222,.T.);
#527=EDGE_CURVE('',#403,#418,#223,.T.);
#528=EDGE_CURVE('',#398,#408,#224,.T.);
#529=EDGE_CURVE('',#399,#407,#225,.T.);
#530=EDGE_CURVE('',#400,#406,#226,.T.);
#531=EDGE_CURVE('',#401,#405,#227,.T.);
#532=EDGE_CURVE('',#402,#404,#228,.T.);
#533=EDGE_CURVE('',#419,#417,#229,.T.);
#534=EDGE_CURVE('',#419,#420,#230,.T.);
#535=EDGE_CURVE('',#420,#410,#231,.T.);
#536=EDGE_CURVE('',#421,#419,#41,.T.);
#537=EDGE_CURVE('',#421,#416,#232,.T.);
#538=EDGE_CURVE('',#422,#421,#233,.T.);
#539=EDGE_CURVE('',#422,#415,#234,.T.);
#540=EDGE_CURVE('',#423,#422,#42,.T.);
#541=EDGE_CURVE('',#423,#414,#235,.T.);
#542=EDGE_CURVE('',#424,#423,#236,.T.);
#543=EDGE_CURVE('',#424,#413,#237,.T.);
#544=EDGE_CURVE('',#425,#424,#43,.T.);
#545=EDGE_CURVE('',#425,#412,#238,.T.);
#546=EDGE_CURVE('',#426,#425,#239,.T.);
#547=EDGE_CURVE('',#426,#411,#240,.T.);
#548=EDGE_CURVE('',#420,#426,#44,.T.);
#549=ORIENTED_EDGE('',*,*,#427,.F.);
#550=ORIENTED_EDGE('',*,*,#428,.F.);
#551=ORIENTED_EDGE('',*,*,#429,.F.);
#552=ORIENTED_EDGE('',*,*,#430,.T.);
#553=ORIENTED_EDGE('',*,*,#431,.F.);
#554=ORIENTED_EDGE('',*,*,#432,.F.);
#555=ORIENTED_EDGE('',*,*,#430,.F.);
#556=ORIENTED_EDGE('',*,*,#433,.F.);
#557=ORIENTED_EDGE('',*,*,#434,.T.);
#558=ORIENTED_EDGE('',*,*,#435,.F.);
#559=ORIENTED_EDGE('',*,*,#434,.F.);
#560=ORIENTED_EDGE('',*,*,#436,.F.);
#561=ORIENTED_EDGE('',*,*,#437,.T.);
#562=ORIENTED_EDGE('',*,*,#438,.F.);
#563=ORIENTED_EDGE('',*,*,#437,.F.);
#564=ORIENTED_EDGE('',*,*,#439,.F.);
#565=ORIENTED_EDGE('',*,*,#428,.T.);
#566=ORIENTED_EDGE('',*,*,#440,.F.);
#567=ORIENTED_EDGE('',*,*,#432,.T.);
#568=ORIENTED_EDGE('',*,*,#441,.F.);
#569=ORIENTED_EDGE('',*,*,#442,.T.);
#570=ORIENTED_EDGE('',*,*,#443,.F.);
#571=ORIENTED_EDGE('',*,*,#444,.F.);
#572=ORIENTED_EDGE('',*,*,#445,.F.);
#573=ORIENTED_EDGE('',*,*,#446,.F.);
#574=ORIENTED_EDGE('',*,*,#447,.T.);
#575=ORIENTED_EDGE('',*,*,#448,.F.);
#576=ORIENTED_EDGE('',*,*,#447,.F.);
#577=ORIENTED_EDGE('',*,*,#449,.F.);
#578=ORIENTED_EDGE('',*,*,#450,.T.);
#579=ORIENTED_EDGE('',*,*,#451,.F.);
#580=ORIENTED_EDGE('',*,*,#450,.F.);
#581=ORIENTED_EDGE('',*,*,#452,.F.);
#582=ORIENTED_EDGE('',*,*,#453,.T.);
#583=ORIENTED_EDGE('',*,*,#454,.F.);
#584=ORIENTED_EDGE('',*,*,#453,.F.);
#585=ORIENTED_EDGE('',*,*,#455,.F.);
#586=ORIENTED_EDGE('',*,*,#445,.T.);
#587=ORIENTED_EDGE('',*,*,#456,.F.);
#588=ORIENTED_EDGE('',*,*,#457,.F.);
#589=ORIENTED_EDGE('',*,*,#458,.F.);
#590=ORIENTED_EDGE('',*,*,#459,.T.);
#591=ORIENTED_EDGE('',*,*,#460,.F.);
#592=ORIENTED_EDGE('',*,*,#461,.F.);
#593=ORIENTED_EDGE('',*,*,#459,.F.);
#594=ORIENTED_EDGE('',*,*,#462,.F.);
#595=ORIENTED_EDGE('',*,*,#463,.T.);
#596=ORIENTED_EDGE('',*,*,#464,.F.);
#597=ORIENTED_EDGE('',*,*,#463,.F.);
#598=ORIENTED_EDGE('',*,*,#465,.F.);
#599=ORIENTED_EDGE('',*,*,#466,.T.);
#600=ORIENTED_EDGE('',*,*,#467,.F.);
#601=ORIENTED_EDGE('',*,*,#466,.F.);
#602=ORIENTED_EDGE('',*,*,#468,.F.);
#603=ORIENTED_EDGE('',*,*,#457,.T.);
#604=ORIENTED_EDGE('',*,*,#442,.F.);
#605=ORIENTED_EDGE('',*,*,#461,.T.);
#606=ORIENTED_EDGE('',*,*,#469,.F.);
#607=ORIENTED_EDGE('',*,*,#470,.F.);
#608=ORIENTED_EDGE('',*,*,#471,.F.);
#609=ORIENTED_EDGE('',*,*,#472,.F.);
#610=ORIENTED_EDGE('',*,*,#473,.F.);
#611=ORIENTED_EDGE('',*,*,#474,.F.);
#612=ORIENTED_EDGE('',*,*,#475,.T.);
#613=ORIENTED_EDGE('',*,*,#476,.F.);
#614=ORIENTED_EDGE('',*,*,#475,.F.);
#615=ORIENTED_EDGE('',*,*,#477,.F.);
#616=ORIENTED_EDGE('',*,*,#478,.T.);
#617=ORIENTED_EDGE('',*,*,#479,.F.);
#618=ORIENTED_EDGE('',*,*,#478,.F.);
#619=ORIENTED_EDGE('',*,*,#480,.F.);
#620=ORIENTED_EDGE('',*,*,#481,.T.);
#621=ORIENTED_EDGE('',*,*,#482,.F.);
#622=ORIENTED_EDGE('',*,*,#481,.F.);
#623=ORIENTED_EDGE('',*,*,#483,.F.);
#624=ORIENTED_EDGE('',*,*,#473,.T.);
#625=ORIENTED_EDGE('',*,*,#484,.F.);
#626=ORIENTED_EDGE('',*,*,#485,.F.);
#627=ORIENTED_EDGE('',*,*,#486,.T.);
#628=ORIENTED_EDGE('',*,*,#487,.F.);
#629=ORIENTED_EDGE('',*,*,#488,.F.);
#630=ORIENTED_EDGE('',*,*,#489,.F.);
#631=ORIENTED_EDGE('',*,*,#490,.F.);
#632=ORIENTED_EDGE('',*,*,#486,.F.);
#633=ORIENTED_EDGE('',*,*,#491,.F.);
#634=ORIENTED_EDGE('',*,*,#492,.T.);
#635=ORIENTED_EDGE('',*,*,#493,.F.);
#636=ORIENTED_EDGE('',*,*,#494,.F.);
#637=ORIENTED_EDGE('',*,*,#495,.F.);
#638=ORIENTED_EDGE('',*,*,#496,.F.);
#639=ORIENTED_EDGE('',*,*,#492,.F.);
#640=ORIENTED_EDGE('',*,*,#497,.F.);
#641=ORIENTED_EDGE('',*,*,#498,.F.);
#642=ORIENTED_EDGE('',*,*,#497,.T.);
#643=ORIENTED_EDGE('',*,*,#491,.T.);
#644=ORIENTED_EDGE('',*,*,#485,.T.);
#645=ORIENTED_EDGE('',*,*,#487,.T.);
#646=ORIENTED_EDGE('',*,*,#490,.T.);
#647=ORIENTED_EDGE('',*,*,#496,.T.);
#648=ORIENTED_EDGE('',*,*,#499,.T.);
#649=ORIENTED_EDGE('',*,*,#500,.T.);
#650=ORIENTED_EDGE('',*,*,#501,.T.);
#651=ORIENTED_EDGE('',*,*,#502,.T.);
#652=ORIENTED_EDGE('',*,*,#503,.T.);
#653=ORIENTED_EDGE('',*,*,#504,.T.);
#654=ORIENTED_EDGE('',*,*,#505,.T.);
#655=ORIENTED_EDGE('',*,*,#427,.T.);
#656=ORIENTED_EDGE('',*,*,#443,.T.);
#657=ORIENTED_EDGE('',*,*,#456,.T.);
#658=ORIENTED_EDGE('',*,*,#471,.T.);
#659=ORIENTED_EDGE('',*,*,#506,.T.);
#660=ORIENTED_EDGE('',*,*,#507,.T.);
#661=ORIENTED_EDGE('',*,*,#438,.T.);
#662=ORIENTED_EDGE('',*,*,#508,.T.);
#663=ORIENTED_EDGE('',*,*,#509,.T.);
#664=ORIENTED_EDGE('',*,*,#510,.T.);
#665=ORIENTED_EDGE('',*,*,#511,.T.);
#666=ORIENTED_EDGE('',*,*,#512,.T.);
#667=ORIENTED_EDGE('',*,*,#513,.T.);
#668=ORIENTED_EDGE('',*,*,#514,.T.);
#669=ORIENTED_EDGE('',*,*,#494,.T.);
#670=ORIENTED_EDGE('',*,*,#515,.T.);
#671=ORIENTED_EDGE('',*,*,#516,.T.);
#672=ORIENTED_EDGE('',*,*,#517,.T.);
#673=ORIENTED_EDGE('',*,*,#518,.T.);
#674=ORIENTED_EDGE('',*,*,#519,.T.);
#675=ORIENTED_EDGE('',*,*,#520,.T.);
#676=ORIENTED_EDGE('',*,*,#521,.T.);
#677=ORIENTED_EDGE('',*,*,#522,.T.);
#678=ORIENTED_EDGE('',*,*,#523,.T.);
#679=ORIENTED_EDGE('',*,*,#489,.T.);
#680=ORIENTED_EDGE('',*,*,#524,.T.);
#681=ORIENTED_EDGE('',*,*,#525,.T.);
#682=ORIENTED_EDGE('',*,*,#469,.T.);
#683=ORIENTED_EDGE('',*,*,#460,.T.);
#684=ORIENTED_EDGE('',*,*,#464,.T.);
#685=ORIENTED_EDGE('',*,*,#467,.T.);
#686=ORIENTED_EDGE('',*,*,#441,.T.);
#687=ORIENTED_EDGE('',*,*,#431,.T.);
#688=ORIENTED_EDGE('',*,*,#435,.T.);
#689=ORIENTED_EDGE('',*,*,#451,.T.);
#690=ORIENTED_EDGE('',*,*,#454,.T.);
#691=ORIENTED_EDGE('',*,*,#444,.T.);
#692=ORIENTED_EDGE('',*,*,#448,.T.);
#693=ORIENTED_EDGE('',*,*,#479,.T.);
#694=ORIENTED_EDGE('',*,*,#482,.T.);
#695=ORIENTED_EDGE('',*,*,#472,.T.);
#696=ORIENTED_EDGE('',*,*,#476,.T.);
#697=ORIENTED_EDGE('',*,*,#495,.T.);
#698=ORIENTED_EDGE('',*,*,#514,.F.);
#699=ORIENTED_EDGE('',*,*,#526,.F.);
#700=ORIENTED_EDGE('',*,*,#499,.F.);
#701=ORIENTED_EDGE('',*,*,#488,.T.);
#702=ORIENTED_EDGE('',*,*,#507,.F.);
#703=ORIENTED_EDGE('',*,*,#527,.T.);
#704=ORIENTED_EDGE('',*,*,#524,.F.);
#705=ORIENTED_EDGE('',*,*,#501,.F.);
#706=ORIENTED_EDGE('',*,*,#528,.T.);
#707=ORIENTED_EDGE('',*,*,#512,.F.);
#708=ORIENTED_EDGE('',*,*,#529,.F.);
#709=ORIENTED_EDGE('',*,*,#502,.F.);
#710=ORIENTED_EDGE('',*,*,#529,.T.);
#711=ORIENTED_EDGE('',*,*,#511,.F.);
#712=ORIENTED_EDGE('',*,*,#530,.F.);
#713=ORIENTED_EDGE('',*,*,#503,.F.);
#714=ORIENTED_EDGE('',*,*,#530,.T.);
#715=ORIENTED_EDGE('',*,*,#510,.F.);
#716=ORIENTED_EDGE('',*,*,#531,.F.);
#717=ORIENTED_EDGE('',*,*,#504,.F.);
#718=ORIENTED_EDGE('',*,*,#531,.T.);
#719=ORIENTED_EDGE('',*,*,#509,.F.);
#720=ORIENTED_EDGE('',*,*,#532,.F.);
#721=ORIENTED_EDGE('',*,*,#440,.T.);
#722=ORIENTED_EDGE('',*,*,#505,.F.);
#723=ORIENTED_EDGE('',*,*,#532,.T.);
#724=ORIENTED_EDGE('',*,*,#508,.F.);
#725=ORIENTED_EDGE('',*,*,#506,.F.);
#726=ORIENTED_EDGE('',*,*,#470,.T.);
#727=ORIENTED_EDGE('',*,*,#525,.F.);
#728=ORIENTED_EDGE('',*,*,#527,.F.);
#729=ORIENTED_EDGE('',*,*,#500,.F.);
#730=ORIENTED_EDGE('',*,*,#526,.T.);
#731=ORIENTED_EDGE('',*,*,#513,.F.);
#732=ORIENTED_EDGE('',*,*,#528,.F.);
#733=ORIENTED_EDGE('',*,*,#484,.T.);
#734=ORIENTED_EDGE('',*,*,#523,.F.);
#735=ORIENTED_EDGE('',*,*,#533,.F.);
#736=ORIENTED_EDGE('',*,*,#534,.T.);
#737=ORIENTED_EDGE('',*,*,#535,.T.);
#738=ORIENTED_EDGE('',*,*,#515,.F.);
#739=ORIENTED_EDGE('',*,*,#493,.T.);
#740=ORIENTED_EDGE('',*,*,#498,.T.);
#741=ORIENTED_EDGE('',*,*,#536,.T.);
#742=ORIENTED_EDGE('',*,*,#533,.T.);
#743=ORIENTED_EDGE('',*,*,#522,.F.);
#744=ORIENTED_EDGE('',*,*,#537,.F.);
#745=ORIENTED_EDGE('',*,*,#538,.T.);
#746=ORIENTED_EDGE('',*,*,#537,.T.);
#747=ORIENTED_EDGE('',*,*,#521,.F.);
#748=ORIENTED_EDGE('',*,*,#539,.F.);
#749=ORIENTED_EDGE('',*,*,#540,.T.);
#750=ORIENTED_EDGE('',*,*,#539,.T.);
#751=ORIENTED_EDGE('',*,*,#520,.F.);
#752=ORIENTED_EDGE('',*,*,#541,.F.);
#753=ORIENTED_EDGE('',*,*,#542,.T.);
#754=ORIENTED_EDGE('',*,*,#541,.T.);
#755=ORIENTED_EDGE('',*,*,#519,.F.);
#756=ORIENTED_EDGE('',*,*,#543,.F.);
#757=ORIENTED_EDGE('',*,*,#544,.T.);
#758=ORIENTED_EDGE('',*,*,#543,.T.);
#759=ORIENTED_EDGE('',*,*,#518,.F.);
#760=ORIENTED_EDGE('',*,*,#545,.F.);
#761=ORIENTED_EDGE('',*,*,#546,.T.);
#762=ORIENTED_EDGE('',*,*,#545,.T.);
#763=ORIENTED_EDGE('',*,*,#517,.F.);
#764=ORIENTED_EDGE('',*,*,#547,.F.);
#765=ORIENTED_EDGE('',*,*,#548,.T.);
#766=ORIENTED_EDGE('',*,*,#547,.T.);
#767=ORIENTED_EDGE('',*,*,#516,.F.);
#768=ORIENTED_EDGE('',*,*,#535,.F.);
#769=ORIENTED_EDGE('',*,*,#548,.F.);
#770=ORIENTED_EDGE('',*,*,#534,.F.);
#771=ORIENTED_EDGE('',*,*,#536,.F.);
#772=ORIENTED_EDGE('',*,*,#538,.F.);
#773=ORIENTED_EDGE('',*,*,#540,.F.);
#774=ORIENTED_EDGE('',*,*,#542,.F.);
#775=ORIENTED_EDGE('',*,*,#544,.F.);
#776=ORIENTED_EDGE('',*,*,#546,.F.);
#777=ORIENTED_EDGE('',*,*,#436,.T.);
#778=ORIENTED_EDGE('',*,*,#433,.T.);
#779=ORIENTED_EDGE('',*,*,#429,.T.);
#780=ORIENTED_EDGE('',*,*,#439,.T.);
#781=ORIENTED_EDGE('',*,*,#452,.T.);
#782=ORIENTED_EDGE('',*,*,#449,.T.);
#783=ORIENTED_EDGE('',*,*,#446,.T.);
#784=ORIENTED_EDGE('',*,*,#455,.T.);
#785=ORIENTED_EDGE('',*,*,#465,.T.);
#786=ORIENTED_EDGE('',*,*,#462,.T.);
#787=ORIENTED_EDGE('',*,*,#458,.T.);
#788=ORIENTED_EDGE('',*,*,#468,.T.);
#789=ORIENTED_EDGE('',*,*,#480,.T.);
#790=ORIENTED_EDGE('',*,*,#477,.T.);
#791=ORIENTED_EDGE('',*,*,#474,.T.);
#792=ORIENTED_EDGE('',*,*,#483,.T.);
#793=PLANE('',#883);
#794=PLANE('',#884);
#795=PLANE('',#885);
#796=PLANE('',#886);
#797=PLANE('',#887);
#798=PLANE('',#888);
#799=PLANE('',#889);
#800=PLANE('',#890);
#801=PLANE('',#891);
#802=PLANE('',#892);
#803=PLANE('',#893);
#804=PLANE('',#894);
#805=PLANE('',#895);
#806=PLANE('',#896);
#807=PLANE('',#897);
#808=PLANE('',#898);
#809=PLANE('',#899);
#810=PLANE('',#900);
#811=PLANE('',#901);
#812=PLANE('',#902);
#813=PLANE('',#903);
#814=PLANE('',#904);
#815=PLANE('',#905);
#816=PLANE('',#910);
#817=PLANE('',#919);
#818=PLANE('',#920);
#819=PLANE('',#921);
#820=PLANE('',#923);
#821=PLANE('',#925);
#822=PLANE('',#928);
#823=PLANE('',#931);
#824=PLANE('',#934);
#825=PLANE('',#937);
#826=PLANE('',#940);
#827=ADVANCED_FACE('',(#45),#793,.F.);
#828=ADVANCED_FACE('',(#46),#794,.F.);
#829=ADVANCED_FACE('',(#47),#795,.F.);
#830=ADVANCED_FACE('',(#48),#796,.F.);
#831=ADVANCED_FACE('',(#49),#797,.T.);
#832=ADVANCED_FACE('',(#50),#798,.F.);
#833=ADVANCED_FACE('',(#51),#799,.F.);
#834=ADVANCED_FACE('',(#52),#800,.F.);
#835=ADVANCED_FACE('',(#53),#801,.F.);
#836=ADVANCED_FACE('',(#54),#802,.F.);
#837=ADVANCED_FACE('',(#55),#803,.F.);
#838=ADVANCED_FACE('',(#56),#804,.F.);
#839=ADVANCED_FACE('',(#57),#805,.F.);
#840=ADVANCED_FACE('',(#58),#806,.T.);
#841=ADVANCED_FACE('',(#59),#807,.F.);
#842=ADVANCED_FACE('',(#60),#808,.F.);
#843=ADVANCED_FACE('',(#61),#809,.F.);
#844=ADVANCED_FACE('',(#62),#810,.F.);
#845=ADVANCED_FACE('',(#63),#811,.F.);
#846=ADVANCED_FACE('',(#64),#812,.F.);
#847=ADVANCED_FACE('',(#65),#813,.F.);
#848=ADVANCED_FACE('',(#66),#814,.T.);
#849=ADVANCED_FACE('',(#67),#815,.T.);
#850=ADVANCED_FACE('',(#68,#23,#24),#816,.T.);
#851=ADVANCED_FACE('',(#69),#817,.T.);
#852=ADVANCED_FACE('',(#70),#818,.T.);
#853=ADVANCED_FACE('',(#71),#819,.T.);
#854=ADVANCED_FACE('',(#72),#15,.F.);
#855=ADVANCED_FACE('',(#73),#820,.T.);
#856=ADVANCED_FACE('',(#74),#16,.F.);
#857=ADVANCED_FACE('',(#75),#821,.T.);
#858=ADVANCED_FACE('',(#76),#17,.F.);
#859=ADVANCED_FACE('',(#77),#18,.F.);
#860=ADVANCED_FACE('',(#78),#822,.T.);
#861=ADVANCED_FACE('',(#79),#19,.T.);
#862=ADVANCED_FACE('',(#80),#823,.T.);
#863=ADVANCED_FACE('',(#81),#20,.T.);
#864=ADVANCED_FACE('',(#82),#824,.T.);
#865=ADVANCED_FACE('',(#83),#21,.T.);
#866=ADVANCED_FACE('',(#84),#825,.T.);
#867=ADVANCED_FACE('',(#85),#22,.T.);
#868=ADVANCED_FACE('',(#86,#25,#26,#27,#28),#826,.F.);
#869=CLOSED_SHELL('',(#827,#828,#829,#830,#831,#832,#833,#834,#835,#836,
#837,#838,#839,#840,#841,#842,#843,#844,#845,#846,#847,#848,#849,#850,#851,
#852,#853,#854,#855,#856,#857,#858,#859,#860,#861,#862,#863,#864,#865,#866,
#867,#868));
#870=DERIVED_UNIT_ELEMENT(#872,1.);
#871=DERIVED_UNIT_ELEMENT(#1415,-3.);
#872=(
MASS_UNIT()
NAMED_UNIT(*)
SI_UNIT(.KILO.,.GRAM.)
);
#873=DERIVED_UNIT((#870,#871));
#874=MEASURE_REPRESENTATION_ITEM('density measure',
POSITIVE_RATIO_MEASURE(7850.),#873);
#875=PROPERTY_DEFINITION_REPRESENTATION(#880,#877);
#876=PROPERTY_DEFINITION_REPRESENTATION(#881,#878);
#877=REPRESENTATION('material name',(#879),#1412);
#878=REPRESENTATION('density',(#874),#1412);
#879=DESCRIPTIVE_REPRESENTATION_ITEM('Steel','Steel');
#880=PROPERTY_DEFINITION('material property','material name',#1422);
#881=PROPERTY_DEFINITION('material property','density of part',#1422);
#882=AXIS2_PLACEMENT_3D('',#1165,#941,#942);
#883=AXIS2_PLACEMENT_3D('',#1166,#943,#944);
#884=AXIS2_PLACEMENT_3D('',#1175,#949,#950);
#885=AXIS2_PLACEMENT_3D('',#1183,#955,#956);
#886=AXIS2_PLACEMENT_3D('',#1189,#960,#961);
#887=AXIS2_PLACEMENT_3D('',#1194,#965,#966);
#888=AXIS2_PLACEMENT_3D('',#1200,#970,#971);
#889=AXIS2_PLACEMENT_3D('',#1209,#976,#977);
#890=AXIS2_PLACEMENT_3D('',#1215,#981,#982);
#891=AXIS2_PLACEMENT_3D('',#1221,#986,#987);
#892=AXIS2_PLACEMENT_3D('',#1224,#990,#991);
#893=AXIS2_PLACEMENT_3D('',#1232,#996,#997);
#894=AXIS2_PLACEMENT_3D('',#1240,#1002,#1003);
#895=AXIS2_PLACEMENT_3D('',#1246,#1007,#1008);
#896=AXIS2_PLACEMENT_3D('',#1249,#1011,#1012);
#897=AXIS2_PLACEMENT_3D('',#1255,#1016,#1017);
#898=AXIS2_PLACEMENT_3D('',#1264,#1022,#1023);
#899=AXIS2_PLACEMENT_3D('',#1270,#1027,#1028);
#900=AXIS2_PLACEMENT_3D('',#1276,#1032,#1033);
#901=AXIS2_PLACEMENT_3D('',#1279,#1036,#1037);
#902=AXIS2_PLACEMENT_3D('',#1292,#1044,#1045);
#903=AXIS2_PLACEMENT_3D('',#1298,#1049,#1050);
#904=AXIS2_PLACEMENT_3D('',#1308,#1056,#1057);
#905=AXIS2_PLACEMENT_3D('',#1310,#1059,#1060);
#906=AXIS2_PLACEMENT_3D('',#1314,#1062,#1063);
#907=AXIS2_PLACEMENT_3D('',#1318,#1065,#1066);
#908=AXIS2_PLACEMENT_3D('',#1322,#1068,#1069);
#909=AXIS2_PLACEMENT_3D('',#1325,#1071,#1072);
#910=AXIS2_PLACEMENT_3D('',#1327,#1074,#1075);
#911=AXIS2_PLACEMENT_3D('',#1331,#1077,#1078);
#912=AXIS2_PLACEMENT_3D('',#1335,#1080,#1081);
#913=AXIS2_PLACEMENT_3D('',#1339,#1083,#1084);
#914=AXIS2_PLACEMENT_3D('',#1344,#1087,#1088);
#915=AXIS2_PLACEMENT_3D('',#1348,#1090,#1091);
#916=AXIS2_PLACEMENT_3D('',#1352,#1093,#1094);
#917=AXIS2_PLACEMENT_3D('',#1356,#1096,#1097);
#918=AXIS2_PLACEMENT_3D('',#1360,#1100,#1101);
#919=AXIS2_PLACEMENT_3D('',#1361,#1102,#1103);
#920=AXIS2_PLACEMENT_3D('',#1363,#1105,#1106);
#921=AXIS2_PLACEMENT_3D('',#1365,#1108,#1109);
#922=AXIS2_PLACEMENT_3D('',#1368,#1112,#1113);
#923=AXIS2_PLACEMENT_3D('',#1370,#1115,#1116);
#924=AXIS2_PLACEMENT_3D('',#1372,#1118,#1119);
#925=AXIS2_PLACEMENT_3D('',#1374,#1121,#1122);
#926=AXIS2_PLACEMENT_3D('',#1375,#1123,#1124);
#927=AXIS2_PLACEMENT_3D('',#1376,#1125,#1126);
#928=AXIS2_PLACEMENT_3D('',#1377,#1127,#1128);
#929=AXIS2_PLACEMENT_3D('',#1383,#1132,#1133);
#930=AXIS2_PLACEMENT_3D('',#1385,#1134,#1135);
#931=AXIS2_PLACEMENT_3D('',#1387,#1137,#1138);
#932=AXIS2_PLACEMENT_3D('',#1391,#1141,#1142);
#933=AXIS2_PLACEMENT_3D('',#1393,#1143,#1144);
#934=AXIS2_PLACEMENT_3D('',#1395,#1146,#1147);
#935=AXIS2_PLACEMENT_3D('',#1399,#1150,#1151);
#936=AXIS2_PLACEMENT_3D('',#1401,#1152,#1153);
#937=AXIS2_PLACEMENT_3D('',#1403,#1155,#1156);
#938=AXIS2_PLACEMENT_3D('',#1407,#1159,#1160);
#939=AXIS2_PLACEMENT_3D('',#1408,#1161,#1162);
#940=AXIS2_PLACEMENT_3D('',#1409,#1163,#1164);
#941=DIRECTION('axis',(0.,0.,1.));
#942=DIRECTION('refdir',(1.,0.,0.));
#943=DIRECTION('center_axis',(0.,-1.,0.));
#944=DIRECTION('ref_axis',(1.,0.,0.));
#945=DIRECTION('',(-1.,0.,0.));
#946=DIRECTION('',(0.,0.,1.));
#947=DIRECTION('',(1.,0.,0.));
#948=DIRECTION('',(0.,0.,1.));
#949=DIRECTION('center_axis',(-1.,0.,0.));
#950=DIRECTION('ref_axis',(0.,-1.,0.));
#951=DIRECTION('',(0.,1.,0.));
#952=DIRECTION('',(0.,0.,1.));
#953=DIRECTION('',(0.,-1.,0.));
#954=DIRECTION('',(0.,0.,1.));
#955=DIRECTION('center_axis',(0.,1.,0.));
#956=DIRECTION('ref_axis',(-1.,0.,0.));
#957=DIRECTION('',(1.,0.,0.));
#958=DIRECTION('',(-1.,0.,0.));
#959=DIRECTION('',(0.,0.,1.));
#960=DIRECTION('center_axis',(1.,0.,0.));
#961=DIRECTION('ref_axis',(0.,1.,0.));
#962=DIRECTION('',(0.,-1.,0.));
#963=DIRECTION('',(0.,1.,0.));
#964=DIRECTION('',(0.,0.,-1.));
#965=DIRECTION('center_axis',(0.,-1.,0.));
#966=DIRECTION('ref_axis',(1.,0.,0.));
#967=DIRECTION('',(1.,0.,0.));
#968=DIRECTION('',(0.,0.,-1.));
#969=DIRECTION('',(-1.,0.,0.));
#970=DIRECTION('center_axis',(0.,-1.,0.));
#971=DIRECTION('ref_axis',(1.,0.,0.));
#972=DIRECTION('',(-1.,0.,0.));
#973=DIRECTION('',(0.,0.,1.));
#974=DIRECTION('',(1.,0.,0.));
#975=DIRECTION('',(0.,0.,1.));
#976=DIRECTION('center_axis',(-1.,0.,0.));
#977=DIRECTION('ref_axis',(0.,-1.,0.));
#978=DIRECTION('',(0.,1.,0.));
#979=DIRECTION('',(0.,-1.,0.));
#980=DIRECTION('',(0.,0.,1.));
#981=DIRECTION('center_axis',(0.,1.,0.));
#982=DIRECTION('ref_axis',(-1.,0.,0.));
#983=DIRECTION('',(1.,0.,0.));
#984=DIRECTION('',(-1.,0.,0.));
#985=DIRECTION('',(0.,0.,1.));
#986=DIRECTION('center_axis',(1.,0.,0.));
#987=DIRECTION('ref_axis',(0.,1.,0.));
#988=DIRECTION('',(0.,-1.,0.));
#989=DIRECTION('',(0.,1.,0.));
#990=DIRECTION('center_axis',(0.,-1.,0.));
#991=DIRECTION('ref_axis',(1.,0.,0.));
#992=DIRECTION('',(-1.,0.,0.));
#993=DIRECTION('',(0.,0.,1.));
#994=DIRECTION('',(1.,0.,0.));
#995=DIRECTION('',(0.,0.,1.));
#996=DIRECTION('center_axis',(-1.,0.,0.));
#997=DIRECTION('ref_axis',(0.,-1.,0.));
#998=DIRECTION('',(0.,1.,0.));
#999=DIRECTION('',(0.,0.,1.));
#1000=DIRECTION('',(0.,-1.,0.));
#1001=DIRECTION('',(0.,0.,1.));
#1002=DIRECTION('center_axis',(0.,1.,0.));
#1003=DIRECTION('ref_axis',(-1.,0.,0.));
#1004=DIRECTION('',(1.,0.,0.));
#1005=DIRECTION('',(-1.,0.,0.));
#1006=DIRECTION('',(0.,0.,1.));
#1007=DIRECTION('center_axis',(1.,0.,0.));
#1008=DIRECTION('ref_axis',(0.,1.,0.));
#1009=DIRECTION('',(0.,-1.,0.));
#1010=DIRECTION('',(0.,1.,0.));
#1011=DIRECTION('center_axis',(0.,-1.,0.));
#1012=DIRECTION('ref_axis',(1.,0.,0.));
#1013=DIRECTION('',(1.,0.,0.));
#1014=DIRECTION('',(0.,0.,1.));
#1015=DIRECTION('',(-1.,0.,0.));
#1016=DIRECTION('center_axis',(0.,-1.,0.));
#1017=DIRECTION('ref_axis',(1.,0.,0.));
#1018=DIRECTION('',(-1.,0.,0.));
#1019=DIRECTION('',(0.,0.,1.));
#1020=DIRECTION('',(1.,0.,0.));
#1021=DIRECTION('',(0.,0.,1.));
#1022=DIRECTION('center_axis',(-1.,0.,0.));
#1023=DIRECTION('ref_axis',(0.,-1.,0.));
#1024=DIRECTION('',(0.,1.,0.));
#1025=DIRECTION('',(0.,-1.,0.));
#1026=DIRECTION('',(0.,0.,1.));
#1027=DIRECTION('center_axis',(0.,1.,0.));
#1028=DIRECTION('ref_axis',(-1.,0.,0.));
#1029=DIRECTION('',(1.,0.,0.));
#1030=DIRECTION('',(-1.,0.,0.));
#1031=DIRECTION('',(0.,0.,1.));
#1032=DIRECTION('center_axis',(1.,0.,0.));
#1033=DIRECTION('ref_axis',(0.,1.,0.));
#1034=DIRECTION('',(0.,-1.,0.));
#1035=DIRECTION('',(0.,1.,0.));
#1036=DIRECTION('center_axis',(0.,1.,0.));
#1037=DIRECTION('ref_axis',(-1.,0.,0.));
#1038=DIRECTION('',(0.,0.,1.));
#1039=DIRECTION('',(-1.,0.,0.));
#1040=DIRECTION('',(0.,0.,1.));
#1041=DIRECTION('',(1.,0.,0.));
#1042=DIRECTION('',(0.,0.,-1.));
#1043=DIRECTION('',(1.,0.,0.));
#1044=DIRECTION('center_axis',(1.,0.,0.));
#1045=DIRECTION('ref_axis',(0.,1.,0.));
#1046=DIRECTION('',(0.,-1.,0.));
#1047=DIRECTION('',(0.,1.,0.));
#1048=DIRECTION('',(0.,0.,1.));
#1049=DIRECTION('center_axis',(0.,-1.,0.));
#1050=DIRECTION('ref_axis',(1.,0.,0.));
#1051=DIRECTION('',(0.,0.,-1.));
#1052=DIRECTION('',(-1.,0.,0.));
#1053=DIRECTION('',(0.,0.,1.));
#1054=DIRECTION('',(-1.,0.,0.));
#1055=DIRECTION('',(1.,0.,0.));
#1056=DIRECTION('center_axis',(0.,0.,1.));
#1057=DIRECTION('ref_axis',(1.,0.,0.));
#1058=DIRECTION('',(0.,1.,0.));
#1059=DIRECTION('center_axis',(0.,0.,1.));
#1060=DIRECTION('ref_axis',(1.,0.,0.));
#1061=DIRECTION('',(0.,-1.,0.));
#1062=DIRECTION('center_axis',(0.,0.,1.));
#1063=DIRECTION('ref_axis',(-1.,0.,0.));
#1064=DIRECTION('',(1.,0.,0.));
#1065=DIRECTION('center_axis',(0.,0.,1.));
#1066=DIRECTION('ref_axis',(0.,-1.,0.));
#1067=DIRECTION('',(0.,1.,0.));
#1068=DIRECTION('center_axis',(0.,0.,1.));
#1069=DIRECTION('ref_axis',(1.,0.,0.));
#1070=DIRECTION('',(-1.,0.,0.));
#1071=DIRECTION('center_axis',(0.,0.,1.));
#1072=DIRECTION('ref_axis',(0.,1.,0.));
#1073=DIRECTION('',(0.,-1.,0.));
#1074=DIRECTION('center_axis',(0.,0.,1.));
#1075=DIRECTION('ref_axis',(1.,0.,0.));
#1076=DIRECTION('',(1.,0.,0.));
#1077=DIRECTION('center_axis',(0.,0.,-1.));
#1078=DIRECTION('ref_axis',(1.,0.,0.));
#1079=DIRECTION('',(0.,-1.,0.));
#1080=DIRECTION('center_axis',(0.,0.,-1.));
#1081=DIRECTION('ref_axis',(0.,-1.,0.));
#1082=DIRECTION('',(-1.,0.,0.));
#1083=DIRECTION('center_axis',(0.,0.,-1.));
#1084=DIRECTION('ref_axis',(-1.,0.,0.));
#1085=DIRECTION('',(0.,1.,0.));
#1086=DIRECTION('',(0.,-1.,0.));
#1087=DIRECTION('center_axis',(0.,0.,1.));
#1088=DIRECTION('ref_axis',(-1.,0.,0.));
#1089=DIRECTION('',(1.,0.,0.));
#1090=DIRECTION('center_axis',(0.,0.,1.));
#1091=DIRECTION('ref_axis',(0.,-1.,0.));
#1092=DIRECTION('',(0.,1.,0.));
#1093=DIRECTION('center_axis',(0.,0.,1.));
#1094=DIRECTION('ref_axis',(1.,0.,0.));
#1095=DIRECTION('',(-1.,0.,0.));
#1096=DIRECTION('center_axis',(0.,0.,1.));
#1097=DIRECTION('ref_axis',(0.,1.,0.));
#1098=DIRECTION('',(0.,-1.,0.));
#1099=DIRECTION('',(0.,1.,0.));
#1100=DIRECTION('center_axis',(0.,0.,-1.));
#1101=DIRECTION('ref_axis',(0.,1.,0.));
#1102=DIRECTION('center_axis',(1.,0.,0.));
#1103=DIRECTION('ref_axis',(0.,1.,0.));
#1104=DIRECTION('',(0.,0.,1.));
#1105=DIRECTION('center_axis',(1.,0.,0.));
#1106=DIRECTION('ref_axis',(0.,1.,0.));
#1107=DIRECTION('',(0.,0.,1.));
#1108=DIRECTION('center_axis',(0.,1.,0.));
#1109=DIRECTION('ref_axis',(-1.,0.,0.));
#1110=DIRECTION('',(0.,0.,1.));
#1111=DIRECTION('',(0.,0.,1.));
#1112=DIRECTION('center_axis',(0.,0.,1.));
#1113=DIRECTION('ref_axis',(0.,-1.,0.));
#1114=DIRECTION('',(0.,0.,1.));
#1115=DIRECTION('center_axis',(-1.,0.,0.));
#1116=DIRECTION('ref_axis',(0.,-1.,0.));
#1117=DIRECTION('',(0.,0.,1.));
#1118=DIRECTION('center_axis',(0.,0.,1.));
#1119=DIRECTION('ref_axis',(1.,0.,0.));
#1120=DIRECTION('',(0.,0.,1.));
#1121=DIRECTION('center_axis',(0.,-1.,0.));
#1122=DIRECTION('ref_axis',(1.,0.,0.));
#1123=DIRECTION('center_axis',(0.,0.,1.));
#1124=DIRECTION('ref_axis',(0.,1.,0.));
#1125=DIRECTION('center_axis',(0.,0.,1.));
#1126=DIRECTION('ref_axis',(-1.,0.,0.));
#1127=DIRECTION('center_axis',(-1.,0.,0.));
#1128=DIRECTION('ref_axis',(0.,-1.,0.));
#1129=DIRECTION('',(0.,0.,1.));
#1130=DIRECTION('',(0.,-1.,0.));
#1131=DIRECTION('',(0.,0.,1.));
#1132=DIRECTION('center_axis',(0.,0.,1.));
#1133=DIRECTION('ref_axis',(0.,1.,0.));
#1134=DIRECTION('center_axis',(0.,0.,1.));
#1135=DIRECTION('ref_axis',(0.,1.,0.));
#1136=DIRECTION('',(0.,0.,1.));
#1137=DIRECTION('center_axis',(0.,1.,0.));
#1138=DIRECTION('ref_axis',(-1.,0.,0.));
#1139=DIRECTION('',(-1.,0.,0.));
#1140=DIRECTION('',(0.,0.,1.));
#1141=DIRECTION('center_axis',(0.,0.,1.));
#1142=DIRECTION('ref_axis',(1.,0.,0.));
#1143=DIRECTION('center_axis',(0.,0.,1.));
#1144=DIRECTION('ref_axis',(1.,0.,0.));
#1145=DIRECTION('',(0.,0.,1.));
#1146=DIRECTION('center_axis',(1.,0.,0.));
#1147=DIRECTION('ref_axis',(0.,1.,0.));
#1148=DIRECTION('',(0.,1.,0.));
#1149=DIRECTION('',(0.,0.,1.));
#1150=DIRECTION('center_axis',(0.,0.,1.));
#1151=DIRECTION('ref_axis',(0.,-1.,0.));
#1152=DIRECTION('center_axis',(0.,0.,1.));
#1153=DIRECTION('ref_axis',(0.,-1.,0.));
#1154=DIRECTION('',(0.,0.,1.));
#1155=DIRECTION('center_axis',(0.,-1.,0.));
#1156=DIRECTION('ref_axis',(1.,0.,0.));
#1157=DIRECTION('',(1.,0.,0.));
#1158=DIRECTION('',(0.,0.,1.));
#1159=DIRECTION('center_axis',(0.,0.,1.));
#1160=DIRECTION('ref_axis',(-1.,0.,0.));
#1161=DIRECTION('center_axis',(0.,0.,1.));
#1162=DIRECTION('ref_axis',(-1.,0.,0.));
#1163=DIRECTION('center_axis',(0.,0.,1.));
#1164=DIRECTION('ref_axis',(1.,0.,0.));
#1165=CARTESIAN_POINT('',(0.,0.,0.));
#1166=CARTESIAN_POINT('Origin',(3.8,3.51,2.475));
#1167=CARTESIAN_POINT('',(4.3,3.51,2.565));
#1168=CARTESIAN_POINT('',(3.8,3.51,2.565));
#1169=CARTESIAN_POINT('',(1.965,3.51,2.565));
#1170=CARTESIAN_POINT('',(4.3,3.51,2.485));
#1171=CARTESIAN_POINT('',(4.3,3.51,2.475));
#1172=CARTESIAN_POINT('',(3.8,3.51,2.485));
#1173=CARTESIAN_POINT('',(3.35,3.51,2.485));
#1174=CARTESIAN_POINT('',(3.8,3.51,2.475));
#1175=CARTESIAN_POINT('Origin',(3.8,3.57,2.475));
#1176=CARTESIAN_POINT('',(3.8,3.51,2.765));
#1177=CARTESIAN_POINT('',(3.8,3.57,2.765));
#1178=CARTESIAN_POINT('',(3.8,2.785,2.765));
#1179=CARTESIAN_POINT('',(3.8,3.51,2.52));
#1180=CARTESIAN_POINT('',(3.8,3.57,2.485));
#1181=CARTESIAN_POINT('',(3.8,2.785,2.485));
#1182=CARTESIAN_POINT('',(3.8,3.57,2.475));
#1183=CARTESIAN_POINT('Origin',(4.3,3.57,2.475));
#1184=CARTESIAN_POINT('',(4.3,3.57,2.765));
#1185=CARTESIAN_POINT('',(3.6,3.57,2.765));
#1186=CARTESIAN_POINT('',(4.3,3.57,2.485));
#1187=CARTESIAN_POINT('',(3.6,3.57,2.485));
#1188=CARTESIAN_POINT('',(4.3,3.57,2.475));
#1189=CARTESIAN_POINT('Origin',(4.3,3.51,2.475));
#1190=CARTESIAN_POINT('',(4.3,3.51,2.765));
#1191=CARTESIAN_POINT('',(4.3,2.755,2.765));
#1192=CARTESIAN_POINT('',(4.3,2.755,2.485));
#1193=CARTESIAN_POINT('',(4.3,3.51,2.52));
#1194=CARTESIAN_POINT('Origin',(1.03,3.51,2.565));
#1195=CARTESIAN_POINT('',(2.4,3.51,2.765));
#1196=CARTESIAN_POINT('',(4.77,3.51,2.765));
#1197=CARTESIAN_POINT('',(2.4,3.51,2.565));
#1198=CARTESIAN_POINT('',(2.4,3.51,2.52));
#1199=CARTESIAN_POINT('',(1.965,3.51,2.565));
#1200=CARTESIAN_POINT('Origin',(3.8,0.42,2.475));
#1201=CARTESIAN_POINT('',(4.3,0.42,2.765));
#1202=CARTESIAN_POINT('',(3.8,0.42,2.765));
#1203=CARTESIAN_POINT('',(3.35,0.42,2.765));
#1204=CARTESIAN_POINT('',(4.3,0.42,2.485));
#1205=CARTESIAN_POINT('',(4.3,0.42,2.475));
#1206=CARTESIAN_POINT('',(3.8,0.42,2.485));
#1207=CARTESIAN_POINT('',(3.35,0.42,2.485));
#1208=CARTESIAN_POINT('',(3.8,0.42,2.475));
#1209=CARTESIAN_POINT('Origin',(3.8,0.48,2.475));
#1210=CARTESIAN_POINT('',(3.8,0.48,2.765));
#1211=CARTESIAN_POINT('',(3.8,1.24,2.765));
#1212=CARTESIAN_POINT('',(3.8,0.48,2.485));
#1213=CARTESIAN_POINT('',(3.8,1.24,2.485));
#1214=CARTESIAN_POINT('',(3.8,0.48,2.475));
#1215=CARTESIAN_POINT('Origin',(4.3,0.48,2.475));
#1216=CARTESIAN_POINT('',(4.3,0.48,2.765));
#1217=CARTESIAN_POINT('',(3.6,0.48,2.765));
#1218=CARTESIAN_POINT('',(4.3,0.48,2.485));
#1219=CARTESIAN_POINT('',(3.6,0.48,2.485));
#1220=CARTESIAN_POINT('',(4.3,0.48,2.475));
#1221=CARTESIAN_POINT('Origin',(4.3,0.42,2.475));
#1222=CARTESIAN_POINT('',(4.3,1.21,2.765));
#1223=CARTESIAN_POINT('',(4.3,1.21,2.485));
#1224=CARTESIAN_POINT('Origin',(1.9,3.51,2.475));
#1225=CARTESIAN_POINT('',(1.9,3.51,2.565));
#1226=CARTESIAN_POINT('',(1.965,3.51,2.565));
#1227=CARTESIAN_POINT('',(2.4,3.51,2.485));
#1228=CARTESIAN_POINT('',(2.4,3.51,2.475));
#1229=CARTESIAN_POINT('',(1.9,3.51,2.485));
#1230=CARTESIAN_POINT('',(2.4,3.51,2.485));
#1231=CARTESIAN_POINT('',(1.9,3.51,2.475));
#1232=CARTESIAN_POINT('Origin',(1.9,3.57,2.475));
#1233=CARTESIAN_POINT('',(1.9,3.51,2.765));
#1234=CARTESIAN_POINT('',(1.9,3.57,2.765));
#1235=CARTESIAN_POINT('',(1.9,2.785,2.765));
#1236=CARTESIAN_POINT('',(1.9,3.51,2.52));
#1237=CARTESIAN_POINT('',(1.9,3.57,2.485));
#1238=CARTESIAN_POINT('',(1.9,2.785,2.485));
#1239=CARTESIAN_POINT('',(1.9,3.57,2.475));
#1240=CARTESIAN_POINT('Origin',(2.4,3.57,2.475));
#1241=CARTESIAN_POINT('',(2.4,3.57,2.765));
#1242=CARTESIAN_POINT('',(2.65,3.57,2.765));
#1243=CARTESIAN_POINT('',(2.4,3.57,2.485));
#1244=CARTESIAN_POINT('',(2.65,3.57,2.485));
#1245=CARTESIAN_POINT('',(2.4,3.57,2.475));
#1246=CARTESIAN_POINT('Origin',(2.4,3.51,2.475));
#1247=CARTESIAN_POINT('',(2.4,2.755,2.765));
#1248=CARTESIAN_POINT('',(2.4,2.755,2.485));
#1249=CARTESIAN_POINT('Origin',(1.03,3.51,2.565));
#1250=CARTESIAN_POINT('',(1.03,3.51,2.765));
#1251=CARTESIAN_POINT('',(4.77,3.51,2.765));
#1252=CARTESIAN_POINT('',(1.03,3.51,2.565));
#1253=CARTESIAN_POINT('',(1.03,3.51,2.565));
#1254=CARTESIAN_POINT('',(1.965,3.51,2.565));
#1255=CARTESIAN_POINT('Origin',(1.9,0.42,2.475));
#1256=CARTESIAN_POINT('',(2.4,0.42,2.765));
#1257=CARTESIAN_POINT('',(1.9,0.42,2.765));
#1258=CARTESIAN_POINT('',(2.4,0.42,2.765));
#1259=CARTESIAN_POINT('',(2.4,0.42,2.485));
#1260=CARTESIAN_POINT('',(2.4,0.42,2.475));
#1261=CARTESIAN_POINT('',(1.9,0.42,2.485));
#1262=CARTESIAN_POINT('',(2.4,0.42,2.485));
#1263=CARTESIAN_POINT('',(1.9,0.42,2.475));
#1264=CARTESIAN_POINT('Origin',(1.9,0.48,2.475));
#1265=CARTESIAN_POINT('',(1.9,0.48,2.765));
#1266=CARTESIAN_POINT('',(1.9,1.24,2.765));
#1267=CARTESIAN_POINT('',(1.9,0.48,2.485));
#1268=CARTESIAN_POINT('',(1.9,1.24,2.485));
#1269=CARTESIAN_POINT('',(1.9,0.48,2.475));
#1270=CARTESIAN_POINT('Origin',(2.4,0.48,2.475));
#1271=CARTESIAN_POINT('',(2.4,0.48,2.765));
#1272=CARTESIAN_POINT('',(2.65,0.48,2.765));
#1273=CARTESIAN_POINT('',(2.4,0.48,2.485));
#1274=CARTESIAN_POINT('',(2.65,0.48,2.485));
#1275=CARTESIAN_POINT('',(2.4,0.48,2.475));
#1276=CARTESIAN_POINT('Origin',(2.4,0.42,2.475));
#1277=CARTESIAN_POINT('',(2.4,1.21,2.765));
#1278=CARTESIAN_POINT('',(2.4,1.21,2.485));
#1279=CARTESIAN_POINT('Origin',(1.09,2.5,2.56));
#1280=CARTESIAN_POINT('',(0.92,2.5,2.56));
#1281=CARTESIAN_POINT('',(0.92,2.5,2.765));
#1282=CARTESIAN_POINT('',(0.92,2.5,2.5225));
#1283=CARTESIAN_POINT('',(1.09,2.5,2.56));
#1284=CARTESIAN_POINT('',(1.09,2.5,2.56));
#1285=CARTESIAN_POINT('',(1.09,2.5,2.565));
#1286=CARTESIAN_POINT('',(1.09,2.5,2.56));
#1287=CARTESIAN_POINT('',(1.,2.5,2.565));
#1288=CARTESIAN_POINT('',(1.995,2.5,2.565));
#1289=CARTESIAN_POINT('',(1.,2.5,2.765));
#1290=CARTESIAN_POINT('',(1.,2.5,2.5625));
#1291=CARTESIAN_POINT('',(1.995,2.5,2.765));
#1292=CARTESIAN_POINT('Origin',(1.09,1.5,2.56));
#1293=CARTESIAN_POINT('',(1.09,1.5,2.565));
#1294=CARTESIAN_POINT('',(1.09,1.75,2.565));
#1295=CARTESIAN_POINT('',(1.09,1.5,2.56));
#1296=CARTESIAN_POINT('',(1.09,1.5,2.56));
#1297=CARTESIAN_POINT('',(1.09,1.5,2.56));
#1298=CARTESIAN_POINT('Origin',(0.89,1.5,2.56));
#1299=CARTESIAN_POINT('',(0.92,1.5,2.765));
#1300=CARTESIAN_POINT('',(0.92,1.5,2.56));
#1301=CARTESIAN_POINT('',(0.92,1.5,2.5225));
#1302=CARTESIAN_POINT('',(1.,1.5,2.765));
#1303=CARTESIAN_POINT('',(1.895,1.5,2.765));
#1304=CARTESIAN_POINT('',(1.,1.5,2.565));
#1305=CARTESIAN_POINT('',(1.,1.5,2.5625));
#1306=CARTESIAN_POINT('',(1.895,1.5,2.565));
#1307=CARTESIAN_POINT('',(0.89,1.5,2.56));
#1308=CARTESIAN_POINT('Origin',(0.99,2.,2.56));
#1309=CARTESIAN_POINT('',(0.92,2.765,2.56));
#1310=CARTESIAN_POINT('Origin',(2.9,2.,2.565));
#1311=CARTESIAN_POINT('',(1.,0.52,2.565));
#1312=CARTESIAN_POINT('',(1.,1.26,2.565));
#1313=CARTESIAN_POINT('',(1.03,0.49,2.565));
#1314=CARTESIAN_POINT('Origin',(1.03,0.52,2.565));
#1315=CARTESIAN_POINT('',(4.77,0.49,2.565));
#1316=CARTESIAN_POINT('',(3.835,0.49,2.565));
#1317=CARTESIAN_POINT('',(4.8,0.52,2.565));
#1318=CARTESIAN_POINT('Origin',(4.77,0.52,2.565));
#1319=CARTESIAN_POINT('',(4.8,3.48,2.565));
#1320=CARTESIAN_POINT('',(4.8,2.74,2.565));
#1321=CARTESIAN_POINT('',(4.77,3.51,2.565));
#1322=CARTESIAN_POINT('Origin',(4.77,3.48,2.565));
#1323=CARTESIAN_POINT('',(1.965,3.51,2.565));
#1324=CARTESIAN_POINT('',(1.,3.48,2.565));
#1325=CARTESIAN_POINT('Origin',(1.03,3.48,2.565));
#1326=CARTESIAN_POINT('',(1.,1.26,2.565));
#1327=CARTESIAN_POINT('Origin',(2.9,2.,2.765));
#1328=CARTESIAN_POINT('',(4.77,3.51,2.765));
#1329=CARTESIAN_POINT('',(4.77,3.51,2.765));
#1330=CARTESIAN_POINT('',(4.8,3.48,2.765));
#1331=CARTESIAN_POINT('Origin',(4.77,3.48,2.765));
#1332=CARTESIAN_POINT('',(4.8,0.52,2.765));
#1333=CARTESIAN_POINT('',(4.8,0.52,2.765));
#1334=CARTESIAN_POINT('',(4.77,0.49,2.765));
#1335=CARTESIAN_POINT('Origin',(4.77,0.52,2.765));
#1336=CARTESIAN_POINT('',(1.03,0.49,2.765));
#1337=CARTESIAN_POINT('',(1.03,0.49,2.765));
#1338=CARTESIAN_POINT('',(1.,0.52,2.765));
#1339=CARTESIAN_POINT('Origin',(1.03,0.52,2.765));
#1340=CARTESIAN_POINT('',(1.,3.48,2.765));
#1341=CARTESIAN_POINT('',(0.92,0.47,2.765));
#1342=CARTESIAN_POINT('',(0.92,3.53,2.765));
#1343=CARTESIAN_POINT('',(0.98,0.41,2.765));
#1344=CARTESIAN_POINT('Origin',(0.98,0.47,2.765));
#1345=CARTESIAN_POINT('',(4.82,0.41,2.765));
#1346=CARTESIAN_POINT('',(0.98,0.41,2.765));
#1347=CARTESIAN_POINT('',(4.88,0.47,2.765));
#1348=CARTESIAN_POINT('Origin',(4.82,0.47,2.765));
#1349=CARTESIAN_POINT('',(4.88,3.53,2.765));
#1350=CARTESIAN_POINT('',(4.88,0.47,2.765));
#1351=CARTESIAN_POINT('',(4.82,3.59,2.765));
#1352=CARTESIAN_POINT('Origin',(4.82,3.53,2.765));
#1353=CARTESIAN_POINT('',(0.98,3.59,2.765));
#1354=CARTESIAN_POINT('',(4.82,3.59,2.765));
#1355=CARTESIAN_POINT('',(0.92,3.53,2.765));
#1356=CARTESIAN_POINT('Origin',(0.98,3.53,2.765));
#1357=CARTESIAN_POINT('',(0.92,3.53,2.765));
#1358=CARTESIAN_POINT('',(1.,3.48,2.765));
#1359=CARTESIAN_POINT('',(1.,3.48,2.765));
#1360=CARTESIAN_POINT('Origin',(1.03,3.48,2.765));
#1361=CARTESIAN_POINT('Origin',(1.,0.52,2.565));
#1362=CARTESIAN_POINT('',(1.,0.52,2.565));
#1363=CARTESIAN_POINT('Origin',(1.,0.52,2.565));
#1364=CARTESIAN_POINT('',(1.,3.48,2.565));
#1365=CARTESIAN_POINT('Origin',(4.77,0.49,2.565));
#1366=CARTESIAN_POINT('',(1.03,0.49,2.565));
#1367=CARTESIAN_POINT('',(4.77,0.49,2.565));
#1368=CARTESIAN_POINT('Origin',(4.77,0.52,2.565));
#1369=CARTESIAN_POINT('',(4.8,0.52,2.565));
#1370=CARTESIAN_POINT('Origin',(4.8,3.48,2.565));
#1371=CARTESIAN_POINT('',(4.8,3.48,2.565));
#1372=CARTESIAN_POINT('Origin',(4.77,3.48,2.565));
#1373=CARTESIAN_POINT('',(4.77,3.51,2.565));
#1374=CARTESIAN_POINT('Origin',(1.03,3.51,2.565));
#1375=CARTESIAN_POINT('Origin',(1.03,3.48,2.565));
#1376=CARTESIAN_POINT('Origin',(1.03,0.52,2.565));
#1377=CARTESIAN_POINT('Origin',(0.92,3.53,2.485));
#1378=CARTESIAN_POINT('',(0.92,3.53,2.485));
#1379=CARTESIAN_POINT('',(0.92,3.53,2.485));
#1380=CARTESIAN_POINT('',(0.92,0.47,2.485));
#1381=CARTESIAN_POINT('',(0.92,3.53,2.485));
#1382=CARTESIAN_POINT('',(0.92,0.47,2.485));
#1383=CARTESIAN_POINT('Origin',(0.98,3.53,2.485));
#1384=CARTESIAN_POINT('',(0.98,3.59,2.485));
#1385=CARTESIAN_POINT('Origin',(0.98,3.53,2.485));
#1386=CARTESIAN_POINT('',(0.98,3.59,2.485));
#1387=CARTESIAN_POINT('Origin',(4.82,3.59,2.485));
#1388=CARTESIAN_POINT('',(4.82,3.59,2.485));
#1389=CARTESIAN_POINT('',(4.82,3.59,2.485));
#1390=CARTESIAN_POINT('',(4.82,3.59,2.485));
#1391=CARTESIAN_POINT('Origin',(4.82,3.53,2.485));
#1392=CARTESIAN_POINT('',(4.88,3.53,2.485));
#1393=CARTESIAN_POINT('Origin',(4.82,3.53,2.485));
#1394=CARTESIAN_POINT('',(4.88,3.53,2.485));
#1395=CARTESIAN_POINT('Origin',(4.88,0.47,2.485));
#1396=CARTESIAN_POINT('',(4.88,0.47,2.485));
#1397=CARTESIAN_POINT('',(4.88,0.47,2.485));
#1398=CARTESIAN_POINT('',(4.88,0.47,2.485));
#1399=CARTESIAN_POINT('Origin',(4.82,0.47,2.485));
#1400=CARTESIAN_POINT('',(4.82,0.41,2.485));
#1401=CARTESIAN_POINT('Origin',(4.82,0.47,2.485));
#1402=CARTESIAN_POINT('',(4.82,0.41,2.485));
#1403=CARTESIAN_POINT('Origin',(0.98,0.41,2.485));
#1404=CARTESIAN_POINT('',(0.98,0.41,2.485));
#1405=CARTESIAN_POINT('',(0.98,0.41,2.485));
#1406=CARTESIAN_POINT('',(0.98,0.41,2.485));
#1407=CARTESIAN_POINT('Origin',(0.98,0.47,2.485));
#1408=CARTESIAN_POINT('Origin',(0.98,0.47,2.485));
#1409=CARTESIAN_POINT('Origin',(2.9,2.,2.485));
#1410=UNCERTAINTY_MEASURE_WITH_UNIT(LENGTH_MEASURE(0.001),#1414,
'DISTANCE_ACCURACY_VALUE',
'Maximum model space distance between geometric entities at asserted c
onnectivities');
#1411=UNCERTAINTY_MEASURE_WITH_UNIT(LENGTH_MEASURE(0.001),#1414,
'DISTANCE_ACCURACY_VALUE',
'Maximum model space distance between geometric entities at asserted c
onnectivities');
#1412=(
GEOMETRIC_REPRESENTATION_CONTEXT(3)
GLOBAL_UNCERTAINTY_ASSIGNED_CONTEXT((#1410))
GLOBAL_UNIT_ASSIGNED_CONTEXT((#1414,#1416,#1417))
REPRESENTATION_CONTEXT('','3D')
);
#1413=(
GEOMETRIC_REPRESENTATION_CONTEXT(3)
GLOBAL_UNCERTAINTY_ASSIGNED_CONTEXT((#1411))
GLOBAL_UNIT_ASSIGNED_CONTEXT((#1414,#1416,#1417))
REPRESENTATION_CONTEXT('','3D')
);
#1414=(
LENGTH_UNIT()
NAMED_UNIT(*)
SI_UNIT(.CENTI.,.METRE.)
);
#1415=(
LENGTH_UNIT()
NAMED_UNIT(*)
SI_UNIT($,.METRE.)
);
#1416=(
NAMED_UNIT(*)
PLANE_ANGLE_UNIT()
SI_UNIT($,.RADIAN.)
);
#1417=(
NAMED_UNIT(*)
SI_UNIT($,.STERADIAN.)
SOLID_ANGLE_UNIT()
);
#1418=SHAPE_DEFINITION_REPRESENTATION(#1419,#1420);
#1419=PRODUCT_DEFINITION_SHAPE('',$,#1422);
#1420=SHAPE_REPRESENTATION('',(#882),#1412);
#1421=PRODUCT_DEFINITION_CONTEXT('part definition',#1426,'design');
#1422=PRODUCT_DEFINITION('2026-09-23-16-22-54-328',
'03 Removable insulated battery tray',#1423,#1421);
#1423=PRODUCT_DEFINITION_FORMATION('',$,#1428);
#1424=PRODUCT_RELATED_PRODUCT_CATEGORY(
'03 Removable insulated battery tray',
'03 Removable insulated battery tray',(#1428));
#1425=APPLICATION_PROTOCOL_DEFINITION('international standard',
'automotive_design',2009,#1426);
#1426=APPLICATION_CONTEXT(
'Core Data for Automotive Mechanical Design Process');
#1427=PRODUCT_CONTEXT('part definition',#1426,'mechanical');
#1428=PRODUCT('2026-09-23-16-22-54-328',
'03 Removable insulated battery tray',$,(#1427));
#1429=PRESENTATION_STYLE_ASSIGNMENT((#1431));
#1430=PRESENTATION_STYLE_ASSIGNMENT((#1432));
#1431=SURFACE_STYLE_USAGE(.BOTH.,#1433);
#1432=SURFACE_STYLE_USAGE(.BOTH.,#1434);
#1433=SURFACE_SIDE_STYLE('',(#1435));
#1434=SURFACE_SIDE_STYLE('',(#1436));
#1435=SURFACE_STYLE_FILL_AREA(#1437);
#1436=SURFACE_STYLE_FILL_AREA(#1438);
#1437=FILL_AREA_STYLE('Steel - Satin',(#1439));
#1438=FILL_AREA_STYLE('Tray graphite',(#1440));
#1439=FILL_AREA_STYLE_COLOUR('Steel - Satin',#1441);
#1440=FILL_AREA_STYLE_COLOUR('Tray graphite',#1442);
#1441=COLOUR_RGB('Steel - Satin',0.627450980392157,0.627450980392157,0.627450980392157);
#1442=COLOUR_RGB('Tray graphite',0.274509803921569,0.317647058823529,0.368627450980392);
ENDSEC;
END-ISO-10303-21;
