ISO-10303-21;
HEADER;
/* Generated by software containing ST-Developer
 * from STEP Tools, Inc. (www.steptools.com) 
 */

FILE_DESCRIPTION(
/* description */ (''),
/* implementation_level */ '2;1');

FILE_NAME(
/* name */ 'rear-lid.step',
/* time_stamp */ '2026-09-24T21:10:20+08:00',
/* author */ (''),
/* organization */ (''),
/* preprocessor_version */ 'ST-DEVELOPER v20.2',
/* originating_system */ 'Autodesk Translation Framework v15.15.0.0',
/* authorisation */ '');

FILE_SCHEMA (('AUTOMOTIVE_DESIGN { 1 0 10303 214 3 1 1 }'));
ENDSEC;

DATA;
#10=MECHANICAL_DESIGN_GEOMETRIC_PRESENTATION_REPRESENTATION('',(#13),#1959);
#11=SHAPE_REPRESENTATION_RELATIONSHIP('SRR','None',#1966,#12);
#12=ADVANCED_BREP_SHAPE_REPRESENTATION('',(#14),#1958);
#13=STYLED_ITEM('',(#1976),#14);
#14=MANIFOLD_SOLID_BREP('Rear flat plate',#1171);
#15=FACE_BOUND('',#127,.T.);
#16=FACE_BOUND('',#128,.T.);
#17=FACE_BOUND('',#129,.T.);
#18=FACE_BOUND('',#130,.T.);
#19=FACE_BOUND('',#138,.T.);
#20=FACE_BOUND('',#139,.T.);
#21=FACE_BOUND('',#140,.T.);
#22=FACE_BOUND('',#141,.T.);
#23=PLANE('',#1193);
#24=PLANE('',#1194);
#25=PLANE('',#1205);
#26=PLANE('',#1206);
#27=PLANE('',#1208);
#28=PLANE('',#1209);
#29=PLANE('',#1216);
#30=PLANE('',#1225);
#31=PLANE('',#1226);
#32=PLANE('',#1231);
#33=PLANE('',#1232);
#34=PLANE('',#1233);
#35=PLANE('',#1234);
#36=PLANE('',#1236);
#37=PLANE('',#1237);
#38=PLANE('',#1242);
#39=PLANE('',#1243);
#40=PLANE('',#1244);
#41=PLANE('',#1245);
#42=PLANE('',#1246);
#43=PLANE('',#1249);
#44=PLANE('',#1250);
#45=PLANE('',#1251);
#46=PLANE('',#1252);
#47=PLANE('',#1253);
#48=PLANE('',#1255);
#49=PLANE('',#1256);
#50=PLANE('',#1259);
#51=PLANE('',#1263);
#52=PLANE('',#1267);
#53=PLANE('',#1268);
#54=PLANE('',#1270);
#55=PLANE('',#1271);
#56=PLANE('',#1272);
#57=PLANE('',#1273);
#58=PLANE('',#1274);
#59=PLANE('',#1276);
#60=PLANE('',#1277);
#61=PLANE('',#1280);
#62=PLANE('',#1282);
#63=PLANE('',#1284);
#64=PLANE('',#1285);
#65=FACE_OUTER_BOUND('',#123,.T.);
#66=FACE_OUTER_BOUND('',#124,.T.);
#67=FACE_OUTER_BOUND('',#125,.T.);
#68=FACE_OUTER_BOUND('',#126,.T.);
#69=FACE_OUTER_BOUND('',#131,.T.);
#70=FACE_OUTER_BOUND('',#132,.T.);
#71=FACE_OUTER_BOUND('',#133,.T.);
#72=FACE_OUTER_BOUND('',#134,.T.);
#73=FACE_OUTER_BOUND('',#135,.T.);
#74=FACE_OUTER_BOUND('',#136,.T.);
#75=FACE_OUTER_BOUND('',#137,.T.);
#76=FACE_OUTER_BOUND('',#142,.T.);
#77=FACE_OUTER_BOUND('',#143,.T.);
#78=FACE_OUTER_BOUND('',#144,.T.);
#79=FACE_OUTER_BOUND('',#145,.T.);
#80=FACE_OUTER_BOUND('',#146,.T.);
#81=FACE_OUTER_BOUND('',#147,.T.);
#82=FACE_OUTER_BOUND('',#148,.T.);
#83=FACE_OUTER_BOUND('',#149,.T.);
#84=FACE_OUTER_BOUND('',#150,.T.);
#85=FACE_OUTER_BOUND('',#151,.T.);
#86=FACE_OUTER_BOUND('',#152,.T.);
#87=FACE_OUTER_BOUND('',#153,.T.);
#88=FACE_OUTER_BOUND('',#154,.T.);
#89=FACE_OUTER_BOUND('',#155,.T.);
#90=FACE_OUTER_BOUND('',#156,.T.);
#91=FACE_OUTER_BOUND('',#157,.T.);
#92=FACE_OUTER_BOUND('',#158,.T.);
#93=FACE_OUTER_BOUND('',#159,.T.);
#94=FACE_OUTER_BOUND('',#160,.T.);
#95=FACE_OUTER_BOUND('',#161,.T.);
#96=FACE_OUTER_BOUND('',#162,.T.);
#97=FACE_OUTER_BOUND('',#163,.T.);
#98=FACE_OUTER_BOUND('',#164,.T.);
#99=FACE_OUTER_BOUND('',#165,.T.);
#100=FACE_OUTER_BOUND('',#166,.T.);
#101=FACE_OUTER_BOUND('',#167,.T.);
#102=FACE_OUTER_BOUND('',#168,.T.);
#103=FACE_OUTER_BOUND('',#169,.T.);
#104=FACE_OUTER_BOUND('',#170,.T.);
#105=FACE_OUTER_BOUND('',#171,.T.);
#106=FACE_OUTER_BOUND('',#172,.T.);
#107=FACE_OUTER_BOUND('',#173,.T.);
#108=FACE_OUTER_BOUND('',#174,.T.);
#109=FACE_OUTER_BOUND('',#175,.T.);
#110=FACE_OUTER_BOUND('',#176,.T.);
#111=FACE_OUTER_BOUND('',#177,.T.);
#112=FACE_OUTER_BOUND('',#178,.T.);
#113=FACE_OUTER_BOUND('',#179,.T.);
#114=FACE_OUTER_BOUND('',#180,.T.);
#115=FACE_OUTER_BOUND('',#181,.T.);
#116=FACE_OUTER_BOUND('',#182,.T.);
#117=FACE_OUTER_BOUND('',#183,.T.);
#118=FACE_OUTER_BOUND('',#184,.T.);
#119=FACE_OUTER_BOUND('',#185,.T.);
#120=FACE_OUTER_BOUND('',#186,.T.);
#121=FACE_OUTER_BOUND('',#187,.T.);
#122=FACE_OUTER_BOUND('',#188,.T.);
#123=EDGE_LOOP('',(#761,#762,#763,#764));
#124=EDGE_LOOP('',(#765,#766,#767,#768,#769,#770,#771,#772));
#125=EDGE_LOOP('',(#773,#774,#775,#776));
#126=EDGE_LOOP('',(#777,#778,#779,#780,#781,#782,#783,#784,#785,#786,#787,
#788,#789,#790,#791,#792));
#127=EDGE_LOOP('',(#793));
#128=EDGE_LOOP('',(#794));
#129=EDGE_LOOP('',(#795));
#130=EDGE_LOOP('',(#796));
#131=EDGE_LOOP('',(#797,#798,#799,#800));
#132=EDGE_LOOP('',(#801,#802,#803,#804,#805));
#133=EDGE_LOOP('',(#806,#807,#808,#809,#810,#811,#812,#813));
#134=EDGE_LOOP('',(#814,#815,#816,#817));
#135=EDGE_LOOP('',(#818,#819,#820,#821));
#136=EDGE_LOOP('',(#822,#823,#824,#825,#826,#827,#828,#829));
#137=EDGE_LOOP('',(#830,#831,#832,#833,#834,#835,#836,#837,#838,#839,#840,
#841,#842,#843,#844,#845,#846,#847,#848,#849,#850,#851,#852,#853,#854,#855,
#856,#857));
#138=EDGE_LOOP('',(#858));
#139=EDGE_LOOP('',(#859));
#140=EDGE_LOOP('',(#860));
#141=EDGE_LOOP('',(#861));
#142=EDGE_LOOP('',(#862,#863,#864,#865));
#143=EDGE_LOOP('',(#866,#867,#868,#869));
#144=EDGE_LOOP('',(#870,#871,#872,#873));
#145=EDGE_LOOP('',(#874,#875,#876,#877,#878,#879,#880,#881));
#146=EDGE_LOOP('',(#882,#883,#884,#885,#886,#887,#888,#889));
#147=EDGE_LOOP('',(#890,#891,#892,#893));
#148=EDGE_LOOP('',(#894,#895,#896,#897));
#149=EDGE_LOOP('',(#898,#899,#900,#901,#902));
#150=EDGE_LOOP('',(#903,#904,#905,#906));
#151=EDGE_LOOP('',(#907,#908,#909,#910));
#152=EDGE_LOOP('',(#911,#912,#913,#914));
#153=EDGE_LOOP('',(#915,#916,#917,#918,#919,#920,#921,#922));
#154=EDGE_LOOP('',(#923,#924,#925,#926));
#155=EDGE_LOOP('',(#927,#928,#929,#930));
#156=EDGE_LOOP('',(#931,#932,#933,#934,#935,#936));
#157=EDGE_LOOP('',(#937,#938,#939,#940,#941,#942));
#158=EDGE_LOOP('',(#943,#944,#945,#946));
#159=EDGE_LOOP('',(#947,#948,#949,#950,#951,#952));
#160=EDGE_LOOP('',(#953,#954,#955,#956));
#161=EDGE_LOOP('',(#957,#958,#959,#960));
#162=EDGE_LOOP('',(#961,#962,#963,#964));
#163=EDGE_LOOP('',(#965,#966,#967,#968,#969,#970));
#164=EDGE_LOOP('',(#971,#972,#973,#974,#975));
#165=EDGE_LOOP('',(#976,#977,#978,#979,#980,#981));
#166=EDGE_LOOP('',(#982,#983,#984,#985));
#167=EDGE_LOOP('',(#986,#987,#988,#989,#990,#991));
#168=EDGE_LOOP('',(#992,#993,#994,#995,#996,#997,#998,#999));
#169=EDGE_LOOP('',(#1000,#1001,#1002,#1003,#1004,#1005,#1006,#1007));
#170=EDGE_LOOP('',(#1008,#1009,#1010,#1011,#1012,#1013));
#171=EDGE_LOOP('',(#1014,#1015,#1016,#1017,#1018,#1019));
#172=EDGE_LOOP('',(#1020,#1021,#1022,#1023));
#173=EDGE_LOOP('',(#1024,#1025,#1026,#1027));
#174=EDGE_LOOP('',(#1028,#1029,#1030,#1031,#1032,#1033));
#175=EDGE_LOOP('',(#1034,#1035,#1036,#1037));
#176=EDGE_LOOP('',(#1038,#1039,#1040,#1041,#1042,#1043));
#177=EDGE_LOOP('',(#1044,#1045,#1046,#1047,#1048));
#178=EDGE_LOOP('',(#1049,#1050,#1051,#1052));
#179=EDGE_LOOP('',(#1053,#1054,#1055,#1056));
#180=EDGE_LOOP('',(#1057,#1058,#1059,#1060));
#181=EDGE_LOOP('',(#1061,#1062,#1063,#1064));
#182=EDGE_LOOP('',(#1065,#1066,#1067,#1068));
#183=EDGE_LOOP('',(#1069,#1070,#1071,#1072));
#184=EDGE_LOOP('',(#1073,#1074,#1075,#1076));
#185=EDGE_LOOP('',(#1077,#1078,#1079,#1080,#1081,#1082));
#186=EDGE_LOOP('',(#1083,#1084,#1085,#1086));
#187=EDGE_LOOP('',(#1087,#1088,#1089,#1090));
#188=EDGE_LOOP('',(#1091,#1092,#1093,#1094,#1095,#1096));
#189=LINE('',#1622,#313);
#190=LINE('',#1627,#314);
#191=LINE('',#1631,#315);
#192=LINE('',#1635,#316);
#193=LINE('',#1639,#317);
#194=LINE('',#1643,#318);
#195=LINE('',#1645,#319);
#196=LINE('',#1646,#320);
#197=LINE('',#1649,#321);
#198=LINE('',#1653,#322);
#199=LINE('',#1657,#323);
#200=LINE('',#1661,#324);
#201=LINE('',#1665,#325);
#202=LINE('',#1669,#326);
#203=LINE('',#1673,#327);
#204=LINE('',#1676,#328);
#205=LINE('',#1685,#329);
#206=LINE('',#1686,#330);
#207=LINE('',#1689,#331);
#208=LINE('',#1693,#332);
#209=LINE('',#1694,#333);
#210=LINE('',#1697,#334);
#211=LINE('',#1699,#335);
#212=LINE('',#1701,#336);
#213=LINE('',#1703,#337);
#214=LINE('',#1704,#338);
#215=LINE('',#1706,#339);
#216=LINE('',#1709,#340);
#217=LINE('',#1714,#341);
#218=LINE('',#1717,#342);
#219=LINE('',#1721,#343);
#220=LINE('',#1725,#344);
#221=LINE('',#1727,#345);
#222=LINE('',#1731,#346);
#223=LINE('',#1735,#347);
#224=LINE('',#1737,#348);
#225=LINE('',#1741,#349);
#226=LINE('',#1743,#350);
#227=LINE('',#1745,#351);
#228=LINE('',#1747,#352);
#229=LINE('',#1749,#353);
#230=LINE('',#1753,#354);
#231=LINE('',#1755,#355);
#232=LINE('',#1759,#356);
#233=LINE('',#1763,#357);
#234=LINE('',#1764,#358);
#235=LINE('',#1766,#359);
#236=LINE('',#1768,#360);
#237=LINE('',#1770,#361);
#238=LINE('',#1771,#362);
#239=LINE('',#1778,#363);
#240=LINE('',#1779,#364);
#241=LINE('',#1781,#365);
#242=LINE('',#1783,#366);
#243=LINE('',#1786,#367);
#244=LINE('',#1788,#368);
#245=LINE('',#1791,#369);
#246=LINE('',#1793,#370);
#247=LINE('',#1797,#371);
#248=LINE('',#1799,#372);
#249=LINE('',#1801,#373);
#250=LINE('',#1803,#374);
#251=LINE('',#1805,#375);
#252=LINE('',#1806,#376);
#253=LINE('',#1809,#377);
#254=LINE('',#1810,#378);
#255=LINE('',#1813,#379);
#256=LINE('',#1814,#380);
#257=LINE('',#1817,#381);
#258=LINE('',#1819,#382);
#259=LINE('',#1822,#383);
#260=LINE('',#1824,#384);
#261=LINE('',#1826,#385);
#262=LINE('',#1829,#386);
#263=LINE('',#1832,#387);
#264=LINE('',#1834,#388);
#265=LINE('',#1838,#389);
#266=LINE('',#1839,#390);
#267=LINE('',#1841,#391);
#268=LINE('',#1844,#392);
#269=LINE('',#1845,#393);
#270=LINE('',#1848,#394);
#271=LINE('',#1850,#395);
#272=LINE('',#1851,#396);
#273=LINE('',#1852,#397);
#274=LINE('',#1856,#398);
#275=LINE('',#1860,#399);
#276=LINE('',#1861,#400);
#277=LINE('',#1864,#401);
#278=LINE('',#1865,#402);
#279=LINE('',#1867,#403);
#280=LINE('',#1871,#404);
#281=LINE('',#1873,#405);
#282=LINE('',#1877,#406);
#283=LINE('',#1879,#407);
#284=LINE('',#1880,#408);
#285=LINE('',#1881,#409);
#286=LINE('',#1886,#410);
#287=LINE('',#1891,#411);
#288=LINE('',#1895,#412);
#289=LINE('',#1898,#413);
#290=LINE('',#1901,#414);
#291=LINE('',#1905,#415);
#292=LINE('',#1909,#416);
#293=LINE('',#1912,#417);
#294=LINE('',#1913,#418);
#295=LINE('',#1916,#419);
#296=LINE('',#1917,#420);
#297=LINE('',#1919,#421);
#298=LINE('',#1922,#422);
#299=LINE('',#1923,#423);
#300=LINE('',#1925,#424);
#301=LINE('',#1928,#425);
#302=LINE('',#1929,#426);
#303=LINE('',#1932,#427);
#304=LINE('',#1933,#428);
#305=LINE('',#1934,#429);
#306=LINE('',#1937,#430);
#307=LINE('',#1941,#431);
#308=LINE('',#1942,#432);
#309=LINE('',#1945,#433);
#310=LINE('',#1949,#434);
#311=LINE('',#1951,#435);
#312=LINE('',#1954,#436);
#313=VECTOR('',#1293,0.17);
#314=VECTOR('',#1298,1.);
#315=VECTOR('',#1301,1.);
#316=VECTOR('',#1304,1.);
#317=VECTOR('',#1307,1.);
#318=VECTOR('',#1312,1.);
#319=VECTOR('',#1313,1.);
#320=VECTOR('',#1314,1.);
#321=VECTOR('',#1317,1.);
#322=VECTOR('',#1320,1.);
#323=VECTOR('',#1323,1.);
#324=VECTOR('',#1326,1.);
#325=VECTOR('',#1329,1.);
#326=VECTOR('',#1332,1.);
#327=VECTOR('',#1335,1.);
#328=VECTOR('',#1338,1.);
#329=VECTOR('',#1347,1.);
#330=VECTOR('',#1348,1.);
#331=VECTOR('',#1351,1.);
#332=VECTOR('',#1354,1.);
#333=VECTOR('',#1355,1.);
#334=VECTOR('',#1358,1.);
#335=VECTOR('',#1359,1.);
#336=VECTOR('',#1360,1.);
#337=VECTOR('',#1361,1.);
#338=VECTOR('',#1362,1.);
#339=VECTOR('',#1365,1.);
#340=VECTOR('',#1368,0.17);
#341=VECTOR('',#1373,1.);
#342=VECTOR('',#1376,1.);
#343=VECTOR('',#1379,1.);
#344=VECTOR('',#1384,1.);
#345=VECTOR('',#1385,1.);
#346=VECTOR('',#1388,1.);
#347=VECTOR('',#1391,1.);
#348=VECTOR('',#1392,1.);
#349=VECTOR('',#1395,1.);
#350=VECTOR('',#1396,1.);
#351=VECTOR('',#1397,1.);
#352=VECTOR('',#1398,1.);
#353=VECTOR('',#1399,1.);
#354=VECTOR('',#1402,1.);
#355=VECTOR('',#1403,1.);
#356=VECTOR('',#1406,1.);
#357=VECTOR('',#1409,1.);
#358=VECTOR('',#1410,1.);
#359=VECTOR('',#1411,1.);
#360=VECTOR('',#1412,1.);
#361=VECTOR('',#1413,1.);
#362=VECTOR('',#1414,1.);
#363=VECTOR('',#1421,1.);
#364=VECTOR('',#1422,1.);
#365=VECTOR('',#1425,1.);
#366=VECTOR('',#1428,0.17);
#367=VECTOR('',#1431,1.);
#368=VECTOR('',#1432,1.);
#369=VECTOR('',#1435,1.);
#370=VECTOR('',#1436,1.);
#371=VECTOR('',#1441,1.);
#372=VECTOR('',#1442,1.);
#373=VECTOR('',#1443,1.);
#374=VECTOR('',#1444,1.);
#375=VECTOR('',#1445,1.);
#376=VECTOR('',#1446,1.);
#377=VECTOR('',#1449,1.);
#378=VECTOR('',#1450,1.);
#379=VECTOR('',#1453,1.);
#380=VECTOR('',#1454,1.);
#381=VECTOR('',#1457,1.);
#382=VECTOR('',#1458,1.);
#383=VECTOR('',#1463,1.);
#384=VECTOR('',#1466,1.);
#385=VECTOR('',#1469,0.17);
#386=VECTOR('',#1472,1.);
#387=VECTOR('',#1475,1.);
#388=VECTOR('',#1476,1.);
#389=VECTOR('',#1481,1.);
#390=VECTOR('',#1482,1.);
#391=VECTOR('',#1485,1.);
#392=VECTOR('',#1488,1.);
#393=VECTOR('',#1489,1.);
#394=VECTOR('',#1492,1.);
#395=VECTOR('',#1493,1.);
#396=VECTOR('',#1494,1.);
#397=VECTOR('',#1495,1.);
#398=VECTOR('',#1500,1.);
#399=VECTOR('',#1505,1.);
#400=VECTOR('',#1506,1.);
#401=VECTOR('',#1509,1.);
#402=VECTOR('',#1510,1.);
#403=VECTOR('',#1513,1.);
#404=VECTOR('',#1518,1.);
#405=VECTOR('',#1519,1.);
#406=VECTOR('',#1524,1.);
#407=VECTOR('',#1525,1.);
#408=VECTOR('',#1526,1.);
#409=VECTOR('',#1527,1.);
#410=VECTOR('',#1534,1.);
#411=VECTOR('',#1539,1.);
#412=VECTOR('',#1542,1.);
#413=VECTOR('',#1545,1.);
#414=VECTOR('',#1548,1.);
#415=VECTOR('',#1551,1.);
#416=VECTOR('',#1554,1.);
#417=VECTOR('',#1559,1.);
#418=VECTOR('',#1560,1.);
#419=VECTOR('',#1563,1.);
#420=VECTOR('',#1564,1.);
#421=VECTOR('',#1567,1.);
#422=VECTOR('',#1570,1.);
#423=VECTOR('',#1571,1.);
#424=VECTOR('',#1574,1.);
#425=VECTOR('',#1577,1.);
#426=VECTOR('',#1578,1.);
#427=VECTOR('',#1581,1.);
#428=VECTOR('',#1582,1.);
#429=VECTOR('',#1583,1.);
#430=VECTOR('',#1586,1.);
#431=VECTOR('',#1593,1.);
#432=VECTOR('',#1594,1.);
#433=VECTOR('',#1599,1.);
#434=VECTOR('',#1606,1.);
#435=VECTOR('',#1609,1.);
#436=VECTOR('',#1614,1.);
#437=CIRCLE('',#1186,0.17);
#438=CIRCLE('',#1187,0.17);
#439=CIRCLE('',#1189,0.34);
#440=CIRCLE('',#1190,0.34);
#441=CIRCLE('',#1191,0.34);
#442=CIRCLE('',#1192,0.34);
#443=CIRCLE('',#1195,0.34);
#444=CIRCLE('',#1196,0.45);
#445=CIRCLE('',#1197,0.45);
#446=CIRCLE('',#1198,0.34);
#447=CIRCLE('',#1199,0.34);
#448=CIRCLE('',#1200,0.45);
#449=CIRCLE('',#1201,0.45);
#450=CIRCLE('',#1202,0.17);
#451=CIRCLE('',#1203,0.17);
#452=CIRCLE('',#1204,0.17);
#453=CIRCLE('',#1207,0.45);
#454=CIRCLE('',#1211,0.17);
#455=CIRCLE('',#1213,0.34);
#456=CIRCLE('',#1214,0.34);
#457=CIRCLE('',#1215,0.34);
#458=CIRCLE('',#1217,0.329999999999999);
#459=CIRCLE('',#1218,0.329999999999999);
#460=CIRCLE('',#1219,0.34);
#461=CIRCLE('',#1220,0.34);
#462=CIRCLE('',#1221,0.33);
#463=CIRCLE('',#1222,0.33);
#464=CIRCLE('',#1223,0.17);
#465=CIRCLE('',#1224,0.17);
#466=CIRCLE('',#1229,0.34);
#467=CIRCLE('',#1230,0.34);
#468=CIRCLE('',#1235,0.45);
#469=CIRCLE('',#1240,0.34);
#470=CIRCLE('',#1241,0.34);
#471=CIRCLE('',#1248,0.45);
#472=CIRCLE('',#1254,0.45);
#473=CIRCLE('',#1258,0.45);
#474=CIRCLE('',#1260,0.33);
#475=CIRCLE('',#1261,0.33);
#476=CIRCLE('',#1262,0.45);
#477=CIRCLE('',#1264,0.45);
#478=CIRCLE('',#1265,0.329999999999999);
#479=CIRCLE('',#1266,0.329999999999999);
#480=CIRCLE('',#1275,0.45);
#481=VERTEX_POINT('',#1619);
#482=VERTEX_POINT('',#1621);
#483=VERTEX_POINT('',#1625);
#484=VERTEX_POINT('',#1626);
#485=VERTEX_POINT('',#1628);
#486=VERTEX_POINT('',#1630);
#487=VERTEX_POINT('',#1632);
#488=VERTEX_POINT('',#1634);
#489=VERTEX_POINT('',#1636);
#490=VERTEX_POINT('',#1638);
#491=VERTEX_POINT('',#1642);
#492=VERTEX_POINT('',#1644);
#493=VERTEX_POINT('',#1648);
#494=VERTEX_POINT('',#1650);
#495=VERTEX_POINT('',#1652);
#496=VERTEX_POINT('',#1654);
#497=VERTEX_POINT('',#1656);
#498=VERTEX_POINT('',#1658);
#499=VERTEX_POINT('',#1660);
#500=VERTEX_POINT('',#1662);
#501=VERTEX_POINT('',#1664);
#502=VERTEX_POINT('',#1666);
#503=VERTEX_POINT('',#1668);
#504=VERTEX_POINT('',#1670);
#505=VERTEX_POINT('',#1672);
#506=VERTEX_POINT('',#1674);
#507=VERTEX_POINT('',#1677);
#508=VERTEX_POINT('',#1679);
#509=VERTEX_POINT('',#1681);
#510=VERTEX_POINT('',#1684);
#511=VERTEX_POINT('',#1688);
#512=VERTEX_POINT('',#1690);
#513=VERTEX_POINT('',#1692);
#514=VERTEX_POINT('',#1696);
#515=VERTEX_POINT('',#1698);
#516=VERTEX_POINT('',#1700);
#517=VERTEX_POINT('',#1702);
#518=VERTEX_POINT('',#1708);
#519=VERTEX_POINT('',#1712);
#520=VERTEX_POINT('',#1713);
#521=VERTEX_POINT('',#1715);
#522=VERTEX_POINT('',#1718);
#523=VERTEX_POINT('',#1720);
#524=VERTEX_POINT('',#1724);
#525=VERTEX_POINT('',#1726);
#526=VERTEX_POINT('',#1728);
#527=VERTEX_POINT('',#1730);
#528=VERTEX_POINT('',#1732);
#529=VERTEX_POINT('',#1734);
#530=VERTEX_POINT('',#1736);
#531=VERTEX_POINT('',#1738);
#532=VERTEX_POINT('',#1740);
#533=VERTEX_POINT('',#1742);
#534=VERTEX_POINT('',#1744);
#535=VERTEX_POINT('',#1746);
#536=VERTEX_POINT('',#1748);
#537=VERTEX_POINT('',#1750);
#538=VERTEX_POINT('',#1752);
#539=VERTEX_POINT('',#1754);
#540=VERTEX_POINT('',#1756);
#541=VERTEX_POINT('',#1758);
#542=VERTEX_POINT('',#1760);
#543=VERTEX_POINT('',#1762);
#544=VERTEX_POINT('',#1765);
#545=VERTEX_POINT('',#1767);
#546=VERTEX_POINT('',#1769);
#547=VERTEX_POINT('',#1772);
#548=VERTEX_POINT('',#1774);
#549=VERTEX_POINT('',#1777);
#550=VERTEX_POINT('',#1785);
#551=VERTEX_POINT('',#1787);
#552=VERTEX_POINT('',#1789);
#553=VERTEX_POINT('',#1792);
#554=VERTEX_POINT('',#1796);
#555=VERTEX_POINT('',#1798);
#556=VERTEX_POINT('',#1800);
#557=VERTEX_POINT('',#1802);
#558=VERTEX_POINT('',#1804);
#559=VERTEX_POINT('',#1808);
#560=VERTEX_POINT('',#1812);
#561=VERTEX_POINT('',#1816);
#562=VERTEX_POINT('',#1818);
#563=VERTEX_POINT('',#1828);
#564=VERTEX_POINT('',#1830);
#565=VERTEX_POINT('',#1833);
#566=VERTEX_POINT('',#1837);
#567=VERTEX_POINT('',#1843);
#568=VERTEX_POINT('',#1847);
#569=VERTEX_POINT('',#1849);
#570=VERTEX_POINT('',#1855);
#571=VERTEX_POINT('',#1859);
#572=VERTEX_POINT('',#1863);
#573=VERTEX_POINT('',#1870);
#574=VERTEX_POINT('',#1872);
#575=VERTEX_POINT('',#1876);
#576=VERTEX_POINT('',#1878);
#577=VERTEX_POINT('',#1884);
#578=VERTEX_POINT('',#1888);
#579=VERTEX_POINT('',#1890);
#580=VERTEX_POINT('',#1892);
#581=VERTEX_POINT('',#1894);
#582=VERTEX_POINT('',#1896);
#583=VERTEX_POINT('',#1900);
#584=VERTEX_POINT('',#1902);
#585=VERTEX_POINT('',#1904);
#586=VERTEX_POINT('',#1906);
#587=VERTEX_POINT('',#1908);
#588=VERTEX_POINT('',#1915);
#589=VERTEX_POINT('',#1921);
#590=VERTEX_POINT('',#1927);
#591=VERTEX_POINT('',#1931);
#592=VERTEX_POINT('',#1936);
#593=EDGE_CURVE('',#481,#481,#437,.T.);
#594=EDGE_CURVE('',#481,#482,#189,.T.);
#595=EDGE_CURVE('',#482,#482,#438,.T.);
#596=EDGE_CURVE('',#483,#484,#190,.T.);
#597=EDGE_CURVE('',#485,#483,#439,.T.);
#598=EDGE_CURVE('',#486,#485,#191,.T.);
#599=EDGE_CURVE('',#487,#486,#440,.T.);
#600=EDGE_CURVE('',#488,#487,#192,.T.);
#601=EDGE_CURVE('',#488,#489,#441,.T.);
#602=EDGE_CURVE('',#490,#489,#193,.T.);
#603=EDGE_CURVE('',#484,#490,#442,.T.);
#604=EDGE_CURVE('',#491,#485,#194,.T.);
#605=EDGE_CURVE('',#492,#491,#195,.T.);
#606=EDGE_CURVE('',#486,#492,#196,.T.);
#607=EDGE_CURVE('',#493,#488,#197,.T.);
#608=EDGE_CURVE('',#494,#493,#443,.T.);
#609=EDGE_CURVE('',#495,#494,#198,.T.);
#610=EDGE_CURVE('',#496,#495,#444,.T.);
#611=EDGE_CURVE('',#497,#496,#199,.T.);
#612=EDGE_CURVE('',#498,#497,#445,.T.);
#613=EDGE_CURVE('',#499,#498,#200,.T.);
#614=EDGE_CURVE('',#500,#499,#446,.T.);
#615=EDGE_CURVE('',#501,#500,#201,.T.);
#616=EDGE_CURVE('',#502,#501,#447,.T.);
#617=EDGE_CURVE('',#503,#502,#202,.T.);
#618=EDGE_CURVE('',#504,#503,#448,.T.);
#619=EDGE_CURVE('',#505,#504,#203,.T.);
#620=EDGE_CURVE('',#506,#505,#449,.T.);
#621=EDGE_CURVE('',#489,#506,#204,.T.);
#622=EDGE_CURVE('',#507,#507,#450,.T.);
#623=EDGE_CURVE('',#508,#508,#451,.T.);
#624=EDGE_CURVE('',#509,#509,#452,.T.);
#625=EDGE_CURVE('',#492,#510,#205,.T.);
#626=EDGE_CURVE('',#487,#510,#206,.T.);
#627=EDGE_CURVE('',#511,#490,#207,.T.);
#628=EDGE_CURVE('',#512,#511,#453,.T.);
#629=EDGE_CURVE('',#512,#513,#208,.T.);
#630=EDGE_CURVE('',#513,#484,#209,.T.);
#631=EDGE_CURVE('',#510,#514,#210,.T.);
#632=EDGE_CURVE('',#515,#514,#211,.T.);
#633=EDGE_CURVE('',#515,#516,#212,.T.);
#634=EDGE_CURVE('',#516,#517,#213,.T.);
#635=EDGE_CURVE('',#517,#493,#214,.T.);
#636=EDGE_CURVE('',#506,#511,#215,.T.);
#637=EDGE_CURVE('',#509,#518,#216,.T.);
#638=EDGE_CURVE('',#518,#518,#454,.T.);
#639=EDGE_CURVE('',#519,#520,#217,.T.);
#640=EDGE_CURVE('',#521,#519,#455,.T.);
#641=EDGE_CURVE('',#494,#521,#218,.T.);
#642=EDGE_CURVE('',#522,#517,#456,.T.);
#643=EDGE_CURVE('',#523,#522,#219,.T.);
#644=EDGE_CURVE('',#520,#523,#457,.T.);
#645=EDGE_CURVE('',#483,#524,#220,.T.);
#646=EDGE_CURVE('',#524,#525,#221,.T.);
#647=EDGE_CURVE('',#525,#526,#458,.T.);
#648=EDGE_CURVE('',#526,#527,#222,.T.);
#649=EDGE_CURVE('',#527,#528,#459,.T.);
#650=EDGE_CURVE('',#528,#529,#223,.T.);
#651=EDGE_CURVE('',#529,#530,#224,.T.);
#652=EDGE_CURVE('',#530,#531,#460,.T.);
#653=EDGE_CURVE('',#531,#532,#225,.T.);
#654=EDGE_CURVE('',#532,#533,#226,.T.);
#655=EDGE_CURVE('',#533,#534,#227,.T.);
#656=EDGE_CURVE('',#534,#535,#228,.T.);
#657=EDGE_CURVE('',#535,#536,#229,.T.);
#658=EDGE_CURVE('',#536,#537,#461,.T.);
#659=EDGE_CURVE('',#537,#538,#230,.T.);
#660=EDGE_CURVE('',#538,#539,#231,.T.);
#661=EDGE_CURVE('',#539,#540,#462,.T.);
#662=EDGE_CURVE('',#540,#541,#232,.T.);
#663=EDGE_CURVE('',#541,#542,#463,.T.);
#664=EDGE_CURVE('',#542,#543,#233,.T.);
#665=EDGE_CURVE('',#543,#520,#234,.T.);
#666=EDGE_CURVE('',#523,#544,#235,.T.);
#667=EDGE_CURVE('',#544,#545,#236,.T.);
#668=EDGE_CURVE('',#545,#546,#237,.T.);
#669=EDGE_CURVE('',#546,#491,#238,.T.);
#670=EDGE_CURVE('',#547,#547,#464,.T.);
#671=EDGE_CURVE('',#548,#548,#465,.T.);
#672=EDGE_CURVE('',#549,#522,#239,.T.);
#673=EDGE_CURVE('',#549,#544,#240,.T.);
#674=EDGE_CURVE('',#516,#549,#241,.T.);
#675=EDGE_CURVE('',#508,#548,#242,.T.);
#676=EDGE_CURVE('',#502,#550,#243,.T.);
#677=EDGE_CURVE('',#551,#501,#244,.T.);
#678=EDGE_CURVE('',#552,#551,#466,.T.);
#679=EDGE_CURVE('',#531,#552,#245,.T.);
#680=EDGE_CURVE('',#553,#530,#246,.T.);
#681=EDGE_CURVE('',#550,#553,#467,.T.);
#682=EDGE_CURVE('',#500,#554,#247,.T.);
#683=EDGE_CURVE('',#554,#555,#248,.T.);
#684=EDGE_CURVE('',#555,#556,#249,.T.);
#685=EDGE_CURVE('',#557,#556,#250,.T.);
#686=EDGE_CURVE('',#557,#558,#251,.T.);
#687=EDGE_CURVE('',#558,#551,#252,.T.);
#688=EDGE_CURVE('',#550,#559,#253,.T.);
#689=EDGE_CURVE('',#503,#559,#254,.T.);
#690=EDGE_CURVE('',#558,#560,#255,.T.);
#691=EDGE_CURVE('',#560,#552,#256,.T.);
#692=EDGE_CURVE('',#553,#561,#257,.T.);
#693=EDGE_CURVE('',#561,#562,#258,.T.);
#694=EDGE_CURVE('',#559,#562,#468,.T.);
#695=EDGE_CURVE('',#560,#532,#259,.T.);
#696=EDGE_CURVE('',#561,#529,#260,.T.);
#697=EDGE_CURVE('',#507,#547,#261,.T.);
#698=EDGE_CURVE('',#563,#499,#262,.T.);
#699=EDGE_CURVE('',#564,#563,#469,.T.);
#700=EDGE_CURVE('',#537,#564,#263,.T.);
#701=EDGE_CURVE('',#565,#536,#264,.T.);
#702=EDGE_CURVE('',#554,#565,#470,.T.);
#703=EDGE_CURVE('',#565,#566,#265,.T.);
#704=EDGE_CURVE('',#566,#555,#266,.T.);
#705=EDGE_CURVE('',#566,#535,#267,.T.);
#706=EDGE_CURVE('',#567,#546,#268,.T.);
#707=EDGE_CURVE('',#514,#567,#269,.T.);
#708=EDGE_CURVE('',#568,#512,#270,.T.);
#709=EDGE_CURVE('',#569,#568,#271,.T.);
#710=EDGE_CURVE('',#525,#569,#272,.T.);
#711=EDGE_CURVE('',#513,#524,#273,.T.);
#712=EDGE_CURVE('',#505,#570,#274,.T.);
#713=EDGE_CURVE('',#568,#570,#471,.T.);
#714=EDGE_CURVE('',#521,#571,#275,.T.);
#715=EDGE_CURVE('',#495,#571,#276,.T.);
#716=EDGE_CURVE('',#567,#572,#277,.T.);
#717=EDGE_CURVE('',#572,#515,#278,.T.);
#718=EDGE_CURVE('',#545,#572,#279,.T.);
#719=EDGE_CURVE('',#519,#573,#280,.T.);
#720=EDGE_CURVE('',#573,#574,#281,.T.);
#721=EDGE_CURVE('',#571,#574,#472,.T.);
#722=EDGE_CURVE('',#575,#542,#282,.T.);
#723=EDGE_CURVE('',#576,#575,#283,.T.);
#724=EDGE_CURVE('',#574,#576,#284,.T.);
#725=EDGE_CURVE('',#573,#543,#285,.T.);
#726=EDGE_CURVE('',#577,#576,#473,.T.);
#727=EDGE_CURVE('',#496,#577,#286,.T.);
#728=EDGE_CURVE('',#575,#578,#474,.T.);
#729=EDGE_CURVE('',#578,#579,#287,.T.);
#730=EDGE_CURVE('',#579,#580,#475,.T.);
#731=EDGE_CURVE('',#580,#581,#288,.T.);
#732=EDGE_CURVE('',#581,#582,#476,.T.);
#733=EDGE_CURVE('',#582,#577,#289,.T.);
#734=EDGE_CURVE('',#570,#583,#290,.T.);
#735=EDGE_CURVE('',#583,#584,#477,.T.);
#736=EDGE_CURVE('',#584,#585,#291,.T.);
#737=EDGE_CURVE('',#585,#586,#478,.T.);
#738=EDGE_CURVE('',#586,#587,#292,.T.);
#739=EDGE_CURVE('',#587,#569,#479,.T.);
#740=EDGE_CURVE('',#562,#584,#293,.T.);
#741=EDGE_CURVE('',#585,#528,#294,.T.);
#742=EDGE_CURVE('',#588,#557,#295,.T.);
#743=EDGE_CURVE('',#533,#588,#296,.T.);
#744=EDGE_CURVE('',#527,#586,#297,.T.);
#745=EDGE_CURVE('',#556,#589,#298,.T.);
#746=EDGE_CURVE('',#589,#588,#299,.T.);
#747=EDGE_CURVE('',#589,#534,#300,.T.);
#748=EDGE_CURVE('',#590,#564,#301,.T.);
#749=EDGE_CURVE('',#590,#538,#302,.T.);
#750=EDGE_CURVE('',#581,#591,#303,.T.);
#751=EDGE_CURVE('',#539,#580,#304,.T.);
#752=EDGE_CURVE('',#591,#590,#305,.T.);
#753=EDGE_CURVE('',#592,#563,#306,.T.);
#754=EDGE_CURVE('',#591,#592,#480,.T.);
#755=EDGE_CURVE('',#540,#579,#307,.T.);
#756=EDGE_CURVE('',#541,#578,#308,.T.);
#757=EDGE_CURVE('',#526,#587,#309,.T.);
#758=EDGE_CURVE('',#498,#592,#310,.T.);
#759=EDGE_CURVE('',#504,#583,#311,.T.);
#760=EDGE_CURVE('',#497,#582,#312,.T.);
#761=ORIENTED_EDGE('',*,*,#593,.F.);
#762=ORIENTED_EDGE('',*,*,#594,.T.);
#763=ORIENTED_EDGE('',*,*,#595,.F.);
#764=ORIENTED_EDGE('',*,*,#594,.F.);
#765=ORIENTED_EDGE('',*,*,#596,.F.);
#766=ORIENTED_EDGE('',*,*,#597,.F.);
#767=ORIENTED_EDGE('',*,*,#598,.F.);
#768=ORIENTED_EDGE('',*,*,#599,.F.);
#769=ORIENTED_EDGE('',*,*,#600,.F.);
#770=ORIENTED_EDGE('',*,*,#601,.T.);
#771=ORIENTED_EDGE('',*,*,#602,.F.);
#772=ORIENTED_EDGE('',*,*,#603,.F.);
#773=ORIENTED_EDGE('',*,*,#598,.T.);
#774=ORIENTED_EDGE('',*,*,#604,.F.);
#775=ORIENTED_EDGE('',*,*,#605,.F.);
#776=ORIENTED_EDGE('',*,*,#606,.F.);
#777=ORIENTED_EDGE('',*,*,#607,.F.);
#778=ORIENTED_EDGE('',*,*,#608,.F.);
#779=ORIENTED_EDGE('',*,*,#609,.F.);
#780=ORIENTED_EDGE('',*,*,#610,.F.);
#781=ORIENTED_EDGE('',*,*,#611,.F.);
#782=ORIENTED_EDGE('',*,*,#612,.F.);
#783=ORIENTED_EDGE('',*,*,#613,.F.);
#784=ORIENTED_EDGE('',*,*,#614,.F.);
#785=ORIENTED_EDGE('',*,*,#615,.F.);
#786=ORIENTED_EDGE('',*,*,#616,.F.);
#787=ORIENTED_EDGE('',*,*,#617,.F.);
#788=ORIENTED_EDGE('',*,*,#618,.F.);
#789=ORIENTED_EDGE('',*,*,#619,.F.);
#790=ORIENTED_EDGE('',*,*,#620,.F.);
#791=ORIENTED_EDGE('',*,*,#621,.F.);
#792=ORIENTED_EDGE('',*,*,#601,.F.);
#793=ORIENTED_EDGE('',*,*,#593,.T.);
#794=ORIENTED_EDGE('',*,*,#622,.T.);
#795=ORIENTED_EDGE('',*,*,#623,.T.);
#796=ORIENTED_EDGE('',*,*,#624,.T.);
#797=ORIENTED_EDGE('',*,*,#599,.T.);
#798=ORIENTED_EDGE('',*,*,#606,.T.);
#799=ORIENTED_EDGE('',*,*,#625,.T.);
#800=ORIENTED_EDGE('',*,*,#626,.F.);
#801=ORIENTED_EDGE('',*,*,#603,.T.);
#802=ORIENTED_EDGE('',*,*,#627,.F.);
#803=ORIENTED_EDGE('',*,*,#628,.F.);
#804=ORIENTED_EDGE('',*,*,#629,.T.);
#805=ORIENTED_EDGE('',*,*,#630,.T.);
#806=ORIENTED_EDGE('',*,*,#600,.T.);
#807=ORIENTED_EDGE('',*,*,#626,.T.);
#808=ORIENTED_EDGE('',*,*,#631,.T.);
#809=ORIENTED_EDGE('',*,*,#632,.F.);
#810=ORIENTED_EDGE('',*,*,#633,.T.);
#811=ORIENTED_EDGE('',*,*,#634,.T.);
#812=ORIENTED_EDGE('',*,*,#635,.T.);
#813=ORIENTED_EDGE('',*,*,#607,.T.);
#814=ORIENTED_EDGE('',*,*,#602,.T.);
#815=ORIENTED_EDGE('',*,*,#621,.T.);
#816=ORIENTED_EDGE('',*,*,#636,.T.);
#817=ORIENTED_EDGE('',*,*,#627,.T.);
#818=ORIENTED_EDGE('',*,*,#624,.F.);
#819=ORIENTED_EDGE('',*,*,#637,.T.);
#820=ORIENTED_EDGE('',*,*,#638,.F.);
#821=ORIENTED_EDGE('',*,*,#637,.F.);
#822=ORIENTED_EDGE('',*,*,#639,.F.);
#823=ORIENTED_EDGE('',*,*,#640,.F.);
#824=ORIENTED_EDGE('',*,*,#641,.F.);
#825=ORIENTED_EDGE('',*,*,#608,.T.);
#826=ORIENTED_EDGE('',*,*,#635,.F.);
#827=ORIENTED_EDGE('',*,*,#642,.F.);
#828=ORIENTED_EDGE('',*,*,#643,.F.);
#829=ORIENTED_EDGE('',*,*,#644,.F.);
#830=ORIENTED_EDGE('',*,*,#645,.T.);
#831=ORIENTED_EDGE('',*,*,#646,.T.);
#832=ORIENTED_EDGE('',*,*,#647,.T.);
#833=ORIENTED_EDGE('',*,*,#648,.T.);
#834=ORIENTED_EDGE('',*,*,#649,.T.);
#835=ORIENTED_EDGE('',*,*,#650,.T.);
#836=ORIENTED_EDGE('',*,*,#651,.T.);
#837=ORIENTED_EDGE('',*,*,#652,.T.);
#838=ORIENTED_EDGE('',*,*,#653,.T.);
#839=ORIENTED_EDGE('',*,*,#654,.T.);
#840=ORIENTED_EDGE('',*,*,#655,.T.);
#841=ORIENTED_EDGE('',*,*,#656,.T.);
#842=ORIENTED_EDGE('',*,*,#657,.T.);
#843=ORIENTED_EDGE('',*,*,#658,.T.);
#844=ORIENTED_EDGE('',*,*,#659,.T.);
#845=ORIENTED_EDGE('',*,*,#660,.T.);
#846=ORIENTED_EDGE('',*,*,#661,.T.);
#847=ORIENTED_EDGE('',*,*,#662,.T.);
#848=ORIENTED_EDGE('',*,*,#663,.T.);
#849=ORIENTED_EDGE('',*,*,#664,.T.);
#850=ORIENTED_EDGE('',*,*,#665,.T.);
#851=ORIENTED_EDGE('',*,*,#644,.T.);
#852=ORIENTED_EDGE('',*,*,#666,.T.);
#853=ORIENTED_EDGE('',*,*,#667,.T.);
#854=ORIENTED_EDGE('',*,*,#668,.T.);
#855=ORIENTED_EDGE('',*,*,#669,.T.);
#856=ORIENTED_EDGE('',*,*,#604,.T.);
#857=ORIENTED_EDGE('',*,*,#597,.T.);
#858=ORIENTED_EDGE('',*,*,#595,.T.);
#859=ORIENTED_EDGE('',*,*,#638,.T.);
#860=ORIENTED_EDGE('',*,*,#670,.T.);
#861=ORIENTED_EDGE('',*,*,#671,.T.);
#862=ORIENTED_EDGE('',*,*,#643,.T.);
#863=ORIENTED_EDGE('',*,*,#672,.F.);
#864=ORIENTED_EDGE('',*,*,#673,.T.);
#865=ORIENTED_EDGE('',*,*,#666,.F.);
#866=ORIENTED_EDGE('',*,*,#642,.T.);
#867=ORIENTED_EDGE('',*,*,#634,.F.);
#868=ORIENTED_EDGE('',*,*,#674,.T.);
#869=ORIENTED_EDGE('',*,*,#672,.T.);
#870=ORIENTED_EDGE('',*,*,#623,.F.);
#871=ORIENTED_EDGE('',*,*,#675,.T.);
#872=ORIENTED_EDGE('',*,*,#671,.F.);
#873=ORIENTED_EDGE('',*,*,#675,.F.);
#874=ORIENTED_EDGE('',*,*,#676,.F.);
#875=ORIENTED_EDGE('',*,*,#616,.T.);
#876=ORIENTED_EDGE('',*,*,#677,.F.);
#877=ORIENTED_EDGE('',*,*,#678,.F.);
#878=ORIENTED_EDGE('',*,*,#679,.F.);
#879=ORIENTED_EDGE('',*,*,#652,.F.);
#880=ORIENTED_EDGE('',*,*,#680,.F.);
#881=ORIENTED_EDGE('',*,*,#681,.F.);
#882=ORIENTED_EDGE('',*,*,#677,.T.);
#883=ORIENTED_EDGE('',*,*,#615,.T.);
#884=ORIENTED_EDGE('',*,*,#682,.T.);
#885=ORIENTED_EDGE('',*,*,#683,.T.);
#886=ORIENTED_EDGE('',*,*,#684,.T.);
#887=ORIENTED_EDGE('',*,*,#685,.F.);
#888=ORIENTED_EDGE('',*,*,#686,.T.);
#889=ORIENTED_EDGE('',*,*,#687,.T.);
#890=ORIENTED_EDGE('',*,*,#676,.T.);
#891=ORIENTED_EDGE('',*,*,#688,.T.);
#892=ORIENTED_EDGE('',*,*,#689,.F.);
#893=ORIENTED_EDGE('',*,*,#617,.T.);
#894=ORIENTED_EDGE('',*,*,#678,.T.);
#895=ORIENTED_EDGE('',*,*,#687,.F.);
#896=ORIENTED_EDGE('',*,*,#690,.T.);
#897=ORIENTED_EDGE('',*,*,#691,.T.);
#898=ORIENTED_EDGE('',*,*,#681,.T.);
#899=ORIENTED_EDGE('',*,*,#692,.T.);
#900=ORIENTED_EDGE('',*,*,#693,.T.);
#901=ORIENTED_EDGE('',*,*,#694,.F.);
#902=ORIENTED_EDGE('',*,*,#688,.F.);
#903=ORIENTED_EDGE('',*,*,#679,.T.);
#904=ORIENTED_EDGE('',*,*,#691,.F.);
#905=ORIENTED_EDGE('',*,*,#695,.T.);
#906=ORIENTED_EDGE('',*,*,#653,.F.);
#907=ORIENTED_EDGE('',*,*,#680,.T.);
#908=ORIENTED_EDGE('',*,*,#651,.F.);
#909=ORIENTED_EDGE('',*,*,#696,.F.);
#910=ORIENTED_EDGE('',*,*,#692,.F.);
#911=ORIENTED_EDGE('',*,*,#622,.F.);
#912=ORIENTED_EDGE('',*,*,#697,.T.);
#913=ORIENTED_EDGE('',*,*,#670,.F.);
#914=ORIENTED_EDGE('',*,*,#697,.F.);
#915=ORIENTED_EDGE('',*,*,#698,.F.);
#916=ORIENTED_EDGE('',*,*,#699,.F.);
#917=ORIENTED_EDGE('',*,*,#700,.F.);
#918=ORIENTED_EDGE('',*,*,#658,.F.);
#919=ORIENTED_EDGE('',*,*,#701,.F.);
#920=ORIENTED_EDGE('',*,*,#702,.F.);
#921=ORIENTED_EDGE('',*,*,#682,.F.);
#922=ORIENTED_EDGE('',*,*,#614,.T.);
#923=ORIENTED_EDGE('',*,*,#702,.T.);
#924=ORIENTED_EDGE('',*,*,#703,.T.);
#925=ORIENTED_EDGE('',*,*,#704,.T.);
#926=ORIENTED_EDGE('',*,*,#683,.F.);
#927=ORIENTED_EDGE('',*,*,#701,.T.);
#928=ORIENTED_EDGE('',*,*,#657,.F.);
#929=ORIENTED_EDGE('',*,*,#705,.F.);
#930=ORIENTED_EDGE('',*,*,#703,.F.);
#931=ORIENTED_EDGE('',*,*,#631,.F.);
#932=ORIENTED_EDGE('',*,*,#625,.F.);
#933=ORIENTED_EDGE('',*,*,#605,.T.);
#934=ORIENTED_EDGE('',*,*,#669,.F.);
#935=ORIENTED_EDGE('',*,*,#706,.F.);
#936=ORIENTED_EDGE('',*,*,#707,.F.);
#937=ORIENTED_EDGE('',*,*,#708,.F.);
#938=ORIENTED_EDGE('',*,*,#709,.F.);
#939=ORIENTED_EDGE('',*,*,#710,.F.);
#940=ORIENTED_EDGE('',*,*,#646,.F.);
#941=ORIENTED_EDGE('',*,*,#711,.F.);
#942=ORIENTED_EDGE('',*,*,#629,.F.);
#943=ORIENTED_EDGE('',*,*,#596,.T.);
#944=ORIENTED_EDGE('',*,*,#630,.F.);
#945=ORIENTED_EDGE('',*,*,#711,.T.);
#946=ORIENTED_EDGE('',*,*,#645,.F.);
#947=ORIENTED_EDGE('',*,*,#708,.T.);
#948=ORIENTED_EDGE('',*,*,#628,.T.);
#949=ORIENTED_EDGE('',*,*,#636,.F.);
#950=ORIENTED_EDGE('',*,*,#620,.T.);
#951=ORIENTED_EDGE('',*,*,#712,.T.);
#952=ORIENTED_EDGE('',*,*,#713,.F.);
#953=ORIENTED_EDGE('',*,*,#641,.T.);
#954=ORIENTED_EDGE('',*,*,#714,.T.);
#955=ORIENTED_EDGE('',*,*,#715,.F.);
#956=ORIENTED_EDGE('',*,*,#609,.T.);
#957=ORIENTED_EDGE('',*,*,#707,.T.);
#958=ORIENTED_EDGE('',*,*,#716,.T.);
#959=ORIENTED_EDGE('',*,*,#717,.T.);
#960=ORIENTED_EDGE('',*,*,#632,.T.);
#961=ORIENTED_EDGE('',*,*,#706,.T.);
#962=ORIENTED_EDGE('',*,*,#668,.F.);
#963=ORIENTED_EDGE('',*,*,#718,.T.);
#964=ORIENTED_EDGE('',*,*,#716,.F.);
#965=ORIENTED_EDGE('',*,*,#667,.F.);
#966=ORIENTED_EDGE('',*,*,#673,.F.);
#967=ORIENTED_EDGE('',*,*,#674,.F.);
#968=ORIENTED_EDGE('',*,*,#633,.F.);
#969=ORIENTED_EDGE('',*,*,#717,.F.);
#970=ORIENTED_EDGE('',*,*,#718,.F.);
#971=ORIENTED_EDGE('',*,*,#640,.T.);
#972=ORIENTED_EDGE('',*,*,#719,.T.);
#973=ORIENTED_EDGE('',*,*,#720,.T.);
#974=ORIENTED_EDGE('',*,*,#721,.F.);
#975=ORIENTED_EDGE('',*,*,#714,.F.);
#976=ORIENTED_EDGE('',*,*,#664,.F.);
#977=ORIENTED_EDGE('',*,*,#722,.F.);
#978=ORIENTED_EDGE('',*,*,#723,.F.);
#979=ORIENTED_EDGE('',*,*,#724,.F.);
#980=ORIENTED_EDGE('',*,*,#720,.F.);
#981=ORIENTED_EDGE('',*,*,#725,.T.);
#982=ORIENTED_EDGE('',*,*,#639,.T.);
#983=ORIENTED_EDGE('',*,*,#665,.F.);
#984=ORIENTED_EDGE('',*,*,#725,.F.);
#985=ORIENTED_EDGE('',*,*,#719,.F.);
#986=ORIENTED_EDGE('',*,*,#721,.T.);
#987=ORIENTED_EDGE('',*,*,#724,.T.);
#988=ORIENTED_EDGE('',*,*,#726,.F.);
#989=ORIENTED_EDGE('',*,*,#727,.F.);
#990=ORIENTED_EDGE('',*,*,#610,.T.);
#991=ORIENTED_EDGE('',*,*,#715,.T.);
#992=ORIENTED_EDGE('',*,*,#723,.T.);
#993=ORIENTED_EDGE('',*,*,#728,.T.);
#994=ORIENTED_EDGE('',*,*,#729,.T.);
#995=ORIENTED_EDGE('',*,*,#730,.T.);
#996=ORIENTED_EDGE('',*,*,#731,.T.);
#997=ORIENTED_EDGE('',*,*,#732,.T.);
#998=ORIENTED_EDGE('',*,*,#733,.T.);
#999=ORIENTED_EDGE('',*,*,#726,.T.);
#1000=ORIENTED_EDGE('',*,*,#709,.T.);
#1001=ORIENTED_EDGE('',*,*,#713,.T.);
#1002=ORIENTED_EDGE('',*,*,#734,.T.);
#1003=ORIENTED_EDGE('',*,*,#735,.T.);
#1004=ORIENTED_EDGE('',*,*,#736,.T.);
#1005=ORIENTED_EDGE('',*,*,#737,.T.);
#1006=ORIENTED_EDGE('',*,*,#738,.T.);
#1007=ORIENTED_EDGE('',*,*,#739,.T.);
#1008=ORIENTED_EDGE('',*,*,#740,.F.);
#1009=ORIENTED_EDGE('',*,*,#693,.F.);
#1010=ORIENTED_EDGE('',*,*,#696,.T.);
#1011=ORIENTED_EDGE('',*,*,#650,.F.);
#1012=ORIENTED_EDGE('',*,*,#741,.F.);
#1013=ORIENTED_EDGE('',*,*,#736,.F.);
#1014=ORIENTED_EDGE('',*,*,#686,.F.);
#1015=ORIENTED_EDGE('',*,*,#742,.F.);
#1016=ORIENTED_EDGE('',*,*,#743,.F.);
#1017=ORIENTED_EDGE('',*,*,#654,.F.);
#1018=ORIENTED_EDGE('',*,*,#695,.F.);
#1019=ORIENTED_EDGE('',*,*,#690,.F.);
#1020=ORIENTED_EDGE('',*,*,#741,.T.);
#1021=ORIENTED_EDGE('',*,*,#649,.F.);
#1022=ORIENTED_EDGE('',*,*,#744,.T.);
#1023=ORIENTED_EDGE('',*,*,#737,.F.);
#1024=ORIENTED_EDGE('',*,*,#742,.T.);
#1025=ORIENTED_EDGE('',*,*,#685,.T.);
#1026=ORIENTED_EDGE('',*,*,#745,.T.);
#1027=ORIENTED_EDGE('',*,*,#746,.T.);
#1028=ORIENTED_EDGE('',*,*,#684,.F.);
#1029=ORIENTED_EDGE('',*,*,#704,.F.);
#1030=ORIENTED_EDGE('',*,*,#705,.T.);
#1031=ORIENTED_EDGE('',*,*,#656,.F.);
#1032=ORIENTED_EDGE('',*,*,#747,.F.);
#1033=ORIENTED_EDGE('',*,*,#745,.F.);
#1034=ORIENTED_EDGE('',*,*,#700,.T.);
#1035=ORIENTED_EDGE('',*,*,#748,.F.);
#1036=ORIENTED_EDGE('',*,*,#749,.T.);
#1037=ORIENTED_EDGE('',*,*,#659,.F.);
#1038=ORIENTED_EDGE('',*,*,#750,.F.);
#1039=ORIENTED_EDGE('',*,*,#731,.F.);
#1040=ORIENTED_EDGE('',*,*,#751,.F.);
#1041=ORIENTED_EDGE('',*,*,#660,.F.);
#1042=ORIENTED_EDGE('',*,*,#749,.F.);
#1043=ORIENTED_EDGE('',*,*,#752,.F.);
#1044=ORIENTED_EDGE('',*,*,#699,.T.);
#1045=ORIENTED_EDGE('',*,*,#753,.F.);
#1046=ORIENTED_EDGE('',*,*,#754,.F.);
#1047=ORIENTED_EDGE('',*,*,#752,.T.);
#1048=ORIENTED_EDGE('',*,*,#748,.T.);
#1049=ORIENTED_EDGE('',*,*,#743,.T.);
#1050=ORIENTED_EDGE('',*,*,#746,.F.);
#1051=ORIENTED_EDGE('',*,*,#747,.T.);
#1052=ORIENTED_EDGE('',*,*,#655,.F.);
#1053=ORIENTED_EDGE('',*,*,#662,.F.);
#1054=ORIENTED_EDGE('',*,*,#755,.T.);
#1055=ORIENTED_EDGE('',*,*,#729,.F.);
#1056=ORIENTED_EDGE('',*,*,#756,.F.);
#1057=ORIENTED_EDGE('',*,*,#722,.T.);
#1058=ORIENTED_EDGE('',*,*,#663,.F.);
#1059=ORIENTED_EDGE('',*,*,#756,.T.);
#1060=ORIENTED_EDGE('',*,*,#728,.F.);
#1061=ORIENTED_EDGE('',*,*,#710,.T.);
#1062=ORIENTED_EDGE('',*,*,#739,.F.);
#1063=ORIENTED_EDGE('',*,*,#757,.F.);
#1064=ORIENTED_EDGE('',*,*,#647,.F.);
#1065=ORIENTED_EDGE('',*,*,#648,.F.);
#1066=ORIENTED_EDGE('',*,*,#757,.T.);
#1067=ORIENTED_EDGE('',*,*,#738,.F.);
#1068=ORIENTED_EDGE('',*,*,#744,.F.);
#1069=ORIENTED_EDGE('',*,*,#751,.T.);
#1070=ORIENTED_EDGE('',*,*,#730,.F.);
#1071=ORIENTED_EDGE('',*,*,#755,.F.);
#1072=ORIENTED_EDGE('',*,*,#661,.F.);
#1073=ORIENTED_EDGE('',*,*,#698,.T.);
#1074=ORIENTED_EDGE('',*,*,#613,.T.);
#1075=ORIENTED_EDGE('',*,*,#758,.T.);
#1076=ORIENTED_EDGE('',*,*,#753,.T.);
#1077=ORIENTED_EDGE('',*,*,#740,.T.);
#1078=ORIENTED_EDGE('',*,*,#735,.F.);
#1079=ORIENTED_EDGE('',*,*,#759,.F.);
#1080=ORIENTED_EDGE('',*,*,#618,.T.);
#1081=ORIENTED_EDGE('',*,*,#689,.T.);
#1082=ORIENTED_EDGE('',*,*,#694,.T.);
#1083=ORIENTED_EDGE('',*,*,#619,.T.);
#1084=ORIENTED_EDGE('',*,*,#759,.T.);
#1085=ORIENTED_EDGE('',*,*,#734,.F.);
#1086=ORIENTED_EDGE('',*,*,#712,.F.);
#1087=ORIENTED_EDGE('',*,*,#611,.T.);
#1088=ORIENTED_EDGE('',*,*,#727,.T.);
#1089=ORIENTED_EDGE('',*,*,#733,.F.);
#1090=ORIENTED_EDGE('',*,*,#760,.F.);
#1091=ORIENTED_EDGE('',*,*,#754,.T.);
#1092=ORIENTED_EDGE('',*,*,#758,.F.);
#1093=ORIENTED_EDGE('',*,*,#612,.T.);
#1094=ORIENTED_EDGE('',*,*,#760,.T.);
#1095=ORIENTED_EDGE('',*,*,#732,.F.);
#1096=ORIENTED_EDGE('',*,*,#750,.T.);
#1097=CYLINDRICAL_SURFACE('',#1185,0.17);
#1098=CYLINDRICAL_SURFACE('',#1188,0.34);
#1099=CYLINDRICAL_SURFACE('',#1210,0.17);
#1100=CYLINDRICAL_SURFACE('',#1212,0.34);
#1101=CYLINDRICAL_SURFACE('',#1227,0.17);
#1102=CYLINDRICAL_SURFACE('',#1228,0.34);
#1103=CYLINDRICAL_SURFACE('',#1238,0.17);
#1104=CYLINDRICAL_SURFACE('',#1239,0.34);
#1105=CYLINDRICAL_SURFACE('',#1247,0.45);
#1106=CYLINDRICAL_SURFACE('',#1257,0.45);
#1107=CYLINDRICAL_SURFACE('',#1269,0.329999999999999);
#1108=CYLINDRICAL_SURFACE('',#1278,0.33);
#1109=CYLINDRICAL_SURFACE('',#1279,0.329999999999999);
#1110=CYLINDRICAL_SURFACE('',#1281,0.33);
#1111=CYLINDRICAL_SURFACE('',#1283,0.45);
#1112=CYLINDRICAL_SURFACE('',#1286,0.45);
#1113=ADVANCED_FACE('',(#65),#1097,.F.);
#1114=ADVANCED_FACE('',(#66),#1098,.T.);
#1115=ADVANCED_FACE('',(#67),#23,.F.);
#1116=ADVANCED_FACE('',(#68,#15,#16,#17,#18),#24,.F.);
#1117=ADVANCED_FACE('',(#69),#25,.T.);
#1118=ADVANCED_FACE('',(#70),#26,.T.);
#1119=ADVANCED_FACE('',(#71),#27,.T.);
#1120=ADVANCED_FACE('',(#72),#28,.T.);
#1121=ADVANCED_FACE('',(#73),#1099,.F.);
#1122=ADVANCED_FACE('',(#74),#1100,.T.);
#1123=ADVANCED_FACE('',(#75,#19,#20,#21,#22),#29,.T.);
#1124=ADVANCED_FACE('',(#76),#30,.F.);
#1125=ADVANCED_FACE('',(#77),#31,.T.);
#1126=ADVANCED_FACE('',(#78),#1101,.F.);
#1127=ADVANCED_FACE('',(#79),#1102,.T.);
#1128=ADVANCED_FACE('',(#80),#32,.T.);
#1129=ADVANCED_FACE('',(#81),#33,.T.);
#1130=ADVANCED_FACE('',(#82),#34,.T.);
#1131=ADVANCED_FACE('',(#83),#35,.T.);
#1132=ADVANCED_FACE('',(#84),#36,.F.);
#1133=ADVANCED_FACE('',(#85),#37,.F.);
#1134=ADVANCED_FACE('',(#86),#1103,.F.);
#1135=ADVANCED_FACE('',(#87),#1104,.T.);
#1136=ADVANCED_FACE('',(#88),#38,.T.);
#1137=ADVANCED_FACE('',(#89),#39,.F.);
#1138=ADVANCED_FACE('',(#90),#40,.F.);
#1139=ADVANCED_FACE('',(#91),#41,.F.);
#1140=ADVANCED_FACE('',(#92),#42,.F.);
#1141=ADVANCED_FACE('',(#93),#1105,.T.);
#1142=ADVANCED_FACE('',(#94),#43,.T.);
#1143=ADVANCED_FACE('',(#95),#44,.T.);
#1144=ADVANCED_FACE('',(#96),#45,.T.);
#1145=ADVANCED_FACE('',(#97),#46,.F.);
#1146=ADVANCED_FACE('',(#98),#47,.T.);
#1147=ADVANCED_FACE('',(#99),#48,.F.);
#1148=ADVANCED_FACE('',(#100),#49,.F.);
#1149=ADVANCED_FACE('',(#101),#1106,.T.);
#1150=ADVANCED_FACE('',(#102),#50,.T.);
#1151=ADVANCED_FACE('',(#103),#51,.T.);
#1152=ADVANCED_FACE('',(#104),#52,.F.);
#1153=ADVANCED_FACE('',(#105),#53,.F.);
#1154=ADVANCED_FACE('',(#106),#1107,.F.);
#1155=ADVANCED_FACE('',(#107),#54,.T.);
#1156=ADVANCED_FACE('',(#108),#55,.F.);
#1157=ADVANCED_FACE('',(#109),#56,.F.);
#1158=ADVANCED_FACE('',(#110),#57,.F.);
#1159=ADVANCED_FACE('',(#111),#58,.T.);
#1160=ADVANCED_FACE('',(#112),#59,.T.);
#1161=ADVANCED_FACE('',(#113),#60,.T.);
#1162=ADVANCED_FACE('',(#114),#1108,.F.);
#1163=ADVANCED_FACE('',(#115),#1109,.F.);
#1164=ADVANCED_FACE('',(#116),#61,.T.);
#1165=ADVANCED_FACE('',(#117),#1110,.F.);
#1166=ADVANCED_FACE('',(#118),#62,.T.);
#1167=ADVANCED_FACE('',(#119),#1111,.T.);
#1168=ADVANCED_FACE('',(#120),#63,.T.);
#1169=ADVANCED_FACE('',(#121),#64,.T.);
#1170=ADVANCED_FACE('',(#122),#1112,.T.);
#1171=CLOSED_SHELL('',(#1113,#1114,#1115,#1116,#1117,#1118,#1119,#1120,
#1121,#1122,#1123,#1124,#1125,#1126,#1127,#1128,#1129,#1130,#1131,#1132,
#1133,#1134,#1135,#1136,#1137,#1138,#1139,#1140,#1141,#1142,#1143,#1144,
#1145,#1146,#1147,#1148,#1149,#1150,#1151,#1152,#1153,#1154,#1155,#1156,
#1157,#1158,#1159,#1160,#1161,#1162,#1163,#1164,#1165,#1166,#1167,#1168,
#1169,#1170));
#1172=DERIVED_UNIT_ELEMENT(#1174,1.);
#1173=DERIVED_UNIT_ELEMENT(#1961,-3.);
#1174=(
MASS_UNIT()
NAMED_UNIT(*)
SI_UNIT(.KILO.,.GRAM.)
);
#1175=DERIVED_UNIT((#1172,#1173));
#1176=MEASURE_REPRESENTATION_ITEM('density measure',
POSITIVE_RATIO_MEASURE(7850.),#1175);
#1177=PROPERTY_DEFINITION_REPRESENTATION(#1182,#1179);
#1178=PROPERTY_DEFINITION_REPRESENTATION(#1183,#1180);
#1179=REPRESENTATION('material name',(#1181),#1958);
#1180=REPRESENTATION('density',(#1176),#1958);
#1181=DESCRIPTIVE_REPRESENTATION_ITEM('Steel','Steel');
#1182=PROPERTY_DEFINITION('material property','material name',#1968);
#1183=PROPERTY_DEFINITION('material property','density of part',#1968);
#1184=AXIS2_PLACEMENT_3D('',#1617,#1287,#1288);
#1185=AXIS2_PLACEMENT_3D('',#1618,#1289,#1290);
#1186=AXIS2_PLACEMENT_3D('',#1620,#1291,#1292);
#1187=AXIS2_PLACEMENT_3D('',#1623,#1294,#1295);
#1188=AXIS2_PLACEMENT_3D('',#1624,#1296,#1297);
#1189=AXIS2_PLACEMENT_3D('',#1629,#1299,#1300);
#1190=AXIS2_PLACEMENT_3D('',#1633,#1302,#1303);
#1191=AXIS2_PLACEMENT_3D('',#1637,#1305,#1306);
#1192=AXIS2_PLACEMENT_3D('',#1640,#1308,#1309);
#1193=AXIS2_PLACEMENT_3D('',#1641,#1310,#1311);
#1194=AXIS2_PLACEMENT_3D('',#1647,#1315,#1316);
#1195=AXIS2_PLACEMENT_3D('',#1651,#1318,#1319);
#1196=AXIS2_PLACEMENT_3D('',#1655,#1321,#1322);
#1197=AXIS2_PLACEMENT_3D('',#1659,#1324,#1325);
#1198=AXIS2_PLACEMENT_3D('',#1663,#1327,#1328);
#1199=AXIS2_PLACEMENT_3D('',#1667,#1330,#1331);
#1200=AXIS2_PLACEMENT_3D('',#1671,#1333,#1334);
#1201=AXIS2_PLACEMENT_3D('',#1675,#1336,#1337);
#1202=AXIS2_PLACEMENT_3D('',#1678,#1339,#1340);
#1203=AXIS2_PLACEMENT_3D('',#1680,#1341,#1342);
#1204=AXIS2_PLACEMENT_3D('',#1682,#1343,#1344);
#1205=AXIS2_PLACEMENT_3D('',#1683,#1345,#1346);
#1206=AXIS2_PLACEMENT_3D('',#1687,#1349,#1350);
#1207=AXIS2_PLACEMENT_3D('',#1691,#1352,#1353);
#1208=AXIS2_PLACEMENT_3D('',#1695,#1356,#1357);
#1209=AXIS2_PLACEMENT_3D('',#1705,#1363,#1364);
#1210=AXIS2_PLACEMENT_3D('',#1707,#1366,#1367);
#1211=AXIS2_PLACEMENT_3D('',#1710,#1369,#1370);
#1212=AXIS2_PLACEMENT_3D('',#1711,#1371,#1372);
#1213=AXIS2_PLACEMENT_3D('',#1716,#1374,#1375);
#1214=AXIS2_PLACEMENT_3D('',#1719,#1377,#1378);
#1215=AXIS2_PLACEMENT_3D('',#1722,#1380,#1381);
#1216=AXIS2_PLACEMENT_3D('',#1723,#1382,#1383);
#1217=AXIS2_PLACEMENT_3D('',#1729,#1386,#1387);
#1218=AXIS2_PLACEMENT_3D('',#1733,#1389,#1390);
#1219=AXIS2_PLACEMENT_3D('',#1739,#1393,#1394);
#1220=AXIS2_PLACEMENT_3D('',#1751,#1400,#1401);
#1221=AXIS2_PLACEMENT_3D('',#1757,#1404,#1405);
#1222=AXIS2_PLACEMENT_3D('',#1761,#1407,#1408);
#1223=AXIS2_PLACEMENT_3D('',#1773,#1415,#1416);
#1224=AXIS2_PLACEMENT_3D('',#1775,#1417,#1418);
#1225=AXIS2_PLACEMENT_3D('',#1776,#1419,#1420);
#1226=AXIS2_PLACEMENT_3D('',#1780,#1423,#1424);
#1227=AXIS2_PLACEMENT_3D('',#1782,#1426,#1427);
#1228=AXIS2_PLACEMENT_3D('',#1784,#1429,#1430);
#1229=AXIS2_PLACEMENT_3D('',#1790,#1433,#1434);
#1230=AXIS2_PLACEMENT_3D('',#1794,#1437,#1438);
#1231=AXIS2_PLACEMENT_3D('',#1795,#1439,#1440);
#1232=AXIS2_PLACEMENT_3D('',#1807,#1447,#1448);
#1233=AXIS2_PLACEMENT_3D('',#1811,#1451,#1452);
#1234=AXIS2_PLACEMENT_3D('',#1815,#1455,#1456);
#1235=AXIS2_PLACEMENT_3D('',#1820,#1459,#1460);
#1236=AXIS2_PLACEMENT_3D('',#1821,#1461,#1462);
#1237=AXIS2_PLACEMENT_3D('',#1823,#1464,#1465);
#1238=AXIS2_PLACEMENT_3D('',#1825,#1467,#1468);
#1239=AXIS2_PLACEMENT_3D('',#1827,#1470,#1471);
#1240=AXIS2_PLACEMENT_3D('',#1831,#1473,#1474);
#1241=AXIS2_PLACEMENT_3D('',#1835,#1477,#1478);
#1242=AXIS2_PLACEMENT_3D('',#1836,#1479,#1480);
#1243=AXIS2_PLACEMENT_3D('',#1840,#1483,#1484);
#1244=AXIS2_PLACEMENT_3D('',#1842,#1486,#1487);
#1245=AXIS2_PLACEMENT_3D('',#1846,#1490,#1491);
#1246=AXIS2_PLACEMENT_3D('',#1853,#1496,#1497);
#1247=AXIS2_PLACEMENT_3D('',#1854,#1498,#1499);
#1248=AXIS2_PLACEMENT_3D('',#1857,#1501,#1502);
#1249=AXIS2_PLACEMENT_3D('',#1858,#1503,#1504);
#1250=AXIS2_PLACEMENT_3D('',#1862,#1507,#1508);
#1251=AXIS2_PLACEMENT_3D('',#1866,#1511,#1512);
#1252=AXIS2_PLACEMENT_3D('',#1868,#1514,#1515);
#1253=AXIS2_PLACEMENT_3D('',#1869,#1516,#1517);
#1254=AXIS2_PLACEMENT_3D('',#1874,#1520,#1521);
#1255=AXIS2_PLACEMENT_3D('',#1875,#1522,#1523);
#1256=AXIS2_PLACEMENT_3D('',#1882,#1528,#1529);
#1257=AXIS2_PLACEMENT_3D('',#1883,#1530,#1531);
#1258=AXIS2_PLACEMENT_3D('',#1885,#1532,#1533);
#1259=AXIS2_PLACEMENT_3D('',#1887,#1535,#1536);
#1260=AXIS2_PLACEMENT_3D('',#1889,#1537,#1538);
#1261=AXIS2_PLACEMENT_3D('',#1893,#1540,#1541);
#1262=AXIS2_PLACEMENT_3D('',#1897,#1543,#1544);
#1263=AXIS2_PLACEMENT_3D('',#1899,#1546,#1547);
#1264=AXIS2_PLACEMENT_3D('',#1903,#1549,#1550);
#1265=AXIS2_PLACEMENT_3D('',#1907,#1552,#1553);
#1266=AXIS2_PLACEMENT_3D('',#1910,#1555,#1556);
#1267=AXIS2_PLACEMENT_3D('',#1911,#1557,#1558);
#1268=AXIS2_PLACEMENT_3D('',#1914,#1561,#1562);
#1269=AXIS2_PLACEMENT_3D('',#1918,#1565,#1566);
#1270=AXIS2_PLACEMENT_3D('',#1920,#1568,#1569);
#1271=AXIS2_PLACEMENT_3D('',#1924,#1572,#1573);
#1272=AXIS2_PLACEMENT_3D('',#1926,#1575,#1576);
#1273=AXIS2_PLACEMENT_3D('',#1930,#1579,#1580);
#1274=AXIS2_PLACEMENT_3D('',#1935,#1584,#1585);
#1275=AXIS2_PLACEMENT_3D('',#1938,#1587,#1588);
#1276=AXIS2_PLACEMENT_3D('',#1939,#1589,#1590);
#1277=AXIS2_PLACEMENT_3D('',#1940,#1591,#1592);
#1278=AXIS2_PLACEMENT_3D('',#1943,#1595,#1596);
#1279=AXIS2_PLACEMENT_3D('',#1944,#1597,#1598);
#1280=AXIS2_PLACEMENT_3D('',#1946,#1600,#1601);
#1281=AXIS2_PLACEMENT_3D('',#1947,#1602,#1603);
#1282=AXIS2_PLACEMENT_3D('',#1948,#1604,#1605);
#1283=AXIS2_PLACEMENT_3D('',#1950,#1607,#1608);
#1284=AXIS2_PLACEMENT_3D('',#1952,#1610,#1611);
#1285=AXIS2_PLACEMENT_3D('',#1953,#1612,#1613);
#1286=AXIS2_PLACEMENT_3D('',#1955,#1615,#1616);
#1287=DIRECTION('axis',(0.,0.,1.));
#1288=DIRECTION('refdir',(1.,0.,0.));
#1289=DIRECTION('center_axis',(0.,0.,1.));
#1290=DIRECTION('ref_axis',(1.,0.,0.));
#1291=DIRECTION('center_axis',(0.,0.,1.));
#1292=DIRECTION('ref_axis',(1.,0.,0.));
#1293=DIRECTION('',(0.,0.,1.));
#1294=DIRECTION('center_axis',(0.,0.,-1.));
#1295=DIRECTION('ref_axis',(1.,0.,0.));
#1296=DIRECTION('center_axis',(0.,0.,1.));
#1297=DIRECTION('ref_axis',(1.,0.,0.));
#1298=DIRECTION('',(0.,0.,-1.));
#1299=DIRECTION('center_axis',(0.,0.,1.));
#1300=DIRECTION('ref_axis',(1.,0.,0.));
#1301=DIRECTION('',(0.,0.,1.));
#1302=DIRECTION('center_axis',(0.,0.,-1.));
#1303=DIRECTION('ref_axis',(1.,0.,0.));
#1304=DIRECTION('',(0.,0.,1.));
#1305=DIRECTION('center_axis',(0.,0.,1.));
#1306=DIRECTION('ref_axis',(1.,0.,0.));
#1307=DIRECTION('',(0.,0.,-1.));
#1308=DIRECTION('center_axis',(0.,0.,-1.));
#1309=DIRECTION('ref_axis',(1.,0.,0.));
#1310=DIRECTION('center_axis',(-1.,0.,0.));
#1311=DIRECTION('ref_axis',(0.,-1.,0.));
#1312=DIRECTION('',(0.,1.,0.));
#1313=DIRECTION('',(0.,0.,1.));
#1314=DIRECTION('',(0.,-1.,0.));
#1315=DIRECTION('center_axis',(0.,0.,1.));
#1316=DIRECTION('ref_axis',(1.,0.,0.));
#1317=DIRECTION('',(0.,1.,0.));
#1318=DIRECTION('center_axis',(0.,0.,1.));
#1319=DIRECTION('ref_axis',(1.,0.,0.));
#1320=DIRECTION('',(0.,1.,0.));
#1321=DIRECTION('center_axis',(0.,0.,1.));
#1322=DIRECTION('ref_axis',(0.,-1.,0.));
#1323=DIRECTION('',(1.,0.,0.));
#1324=DIRECTION('center_axis',(0.,0.,1.));
#1325=DIRECTION('ref_axis',(-1.,0.,0.));
#1326=DIRECTION('',(0.,-1.,0.));
#1327=DIRECTION('center_axis',(0.,0.,1.));
#1328=DIRECTION('ref_axis',(1.,0.,0.));
#1329=DIRECTION('',(0.,-1.,0.));
#1330=DIRECTION('center_axis',(0.,0.,1.));
#1331=DIRECTION('ref_axis',(1.,0.,0.));
#1332=DIRECTION('',(0.,-1.,0.));
#1333=DIRECTION('center_axis',(0.,0.,1.));
#1334=DIRECTION('ref_axis',(0.,1.,0.));
#1335=DIRECTION('',(-1.,0.,0.));
#1336=DIRECTION('center_axis',(0.,0.,1.));
#1337=DIRECTION('ref_axis',(1.,0.,0.));
#1338=DIRECTION('',(0.,1.,0.));
#1339=DIRECTION('center_axis',(0.,0.,1.));
#1340=DIRECTION('ref_axis',(1.,0.,0.));
#1341=DIRECTION('center_axis',(0.,0.,1.));
#1342=DIRECTION('ref_axis',(1.,0.,0.));
#1343=DIRECTION('center_axis',(0.,0.,1.));
#1344=DIRECTION('ref_axis',(1.,0.,0.));
#1345=DIRECTION('center_axis',(0.,0.,1.));
#1346=DIRECTION('ref_axis',(1.,0.,0.));
#1347=DIRECTION('',(1.,0.,0.));
#1348=DIRECTION('',(0.,-1.,0.));
#1349=DIRECTION('center_axis',(0.,0.,1.));
#1350=DIRECTION('ref_axis',(1.,0.,0.));
#1351=DIRECTION('',(0.,-1.,0.));
#1352=DIRECTION('center_axis',(0.,0.,-1.));
#1353=DIRECTION('ref_axis',(1.,0.,0.));
#1354=DIRECTION('',(-1.,0.,0.));
#1355=DIRECTION('',(0.,-1.,0.));
#1356=DIRECTION('center_axis',(1.,0.,0.));
#1357=DIRECTION('ref_axis',(0.,1.,0.));
#1358=DIRECTION('',(0.,0.,1.));
#1359=DIRECTION('',(0.,1.,0.));
#1360=DIRECTION('',(0.,0.,-1.));
#1361=DIRECTION('',(0.,-1.,0.));
#1362=DIRECTION('',(0.,0.,-1.));
#1363=DIRECTION('center_axis',(1.,0.,0.));
#1364=DIRECTION('ref_axis',(0.,1.,0.));
#1365=DIRECTION('',(0.,0.,1.));
#1366=DIRECTION('center_axis',(0.,0.,1.));
#1367=DIRECTION('ref_axis',(1.,0.,0.));
#1368=DIRECTION('',(0.,0.,1.));
#1369=DIRECTION('center_axis',(0.,0.,-1.));
#1370=DIRECTION('ref_axis',(1.,0.,0.));
#1371=DIRECTION('center_axis',(0.,0.,1.));
#1372=DIRECTION('ref_axis',(1.,0.,0.));
#1373=DIRECTION('',(0.,0.,1.));
#1374=DIRECTION('center_axis',(0.,0.,-1.));
#1375=DIRECTION('ref_axis',(1.,0.,0.));
#1376=DIRECTION('',(0.,0.,1.));
#1377=DIRECTION('center_axis',(0.,0.,-1.));
#1378=DIRECTION('ref_axis',(1.,0.,0.));
#1379=DIRECTION('',(0.,0.,-1.));
#1380=DIRECTION('center_axis',(0.,0.,1.));
#1381=DIRECTION('ref_axis',(1.,0.,0.));
#1382=DIRECTION('center_axis',(0.,0.,1.));
#1383=DIRECTION('ref_axis',(1.,0.,0.));
#1384=DIRECTION('',(0.,1.,0.));
#1385=DIRECTION('',(1.,0.,0.));
#1386=DIRECTION('center_axis',(0.,0.,1.));
#1387=DIRECTION('ref_axis',(1.,0.,0.));
#1388=DIRECTION('',(-1.,0.,0.));
#1389=DIRECTION('center_axis',(0.,0.,1.));
#1390=DIRECTION('ref_axis',(0.,1.,0.));
#1391=DIRECTION('',(1.,0.,0.));
#1392=DIRECTION('',(0.,-1.,0.));
#1393=DIRECTION('center_axis',(0.,0.,1.));
#1394=DIRECTION('ref_axis',(1.,0.,0.));
#1395=DIRECTION('',(0.,-1.,0.));
#1396=DIRECTION('',(-1.,0.,0.));
#1397=DIRECTION('',(0.,-1.,0.));
#1398=DIRECTION('',(1.,0.,0.));
#1399=DIRECTION('',(0.,-1.,0.));
#1400=DIRECTION('center_axis',(0.,0.,1.));
#1401=DIRECTION('ref_axis',(1.,0.,0.));
#1402=DIRECTION('',(0.,-1.,0.));
#1403=DIRECTION('',(-1.,0.,0.));
#1404=DIRECTION('center_axis',(0.,0.,1.));
#1405=DIRECTION('ref_axis',(-1.,0.,0.));
#1406=DIRECTION('',(1.,0.,0.));
#1407=DIRECTION('center_axis',(0.,0.,1.));
#1408=DIRECTION('ref_axis',(0.,-1.,0.));
#1409=DIRECTION('',(-1.,0.,0.));
#1410=DIRECTION('',(0.,1.,0.));
#1411=DIRECTION('',(0.,1.,0.));
#1412=DIRECTION('',(1.,0.,0.));
#1413=DIRECTION('',(0.,1.,0.));
#1414=DIRECTION('',(-1.,0.,0.));
#1415=DIRECTION('center_axis',(0.,0.,-1.));
#1416=DIRECTION('ref_axis',(1.,0.,0.));
#1417=DIRECTION('center_axis',(0.,0.,-1.));
#1418=DIRECTION('ref_axis',(1.,0.,0.));
#1419=DIRECTION('center_axis',(-1.,0.,0.));
#1420=DIRECTION('ref_axis',(0.,-1.,0.));
#1421=DIRECTION('',(0.,-1.,0.));
#1422=DIRECTION('',(0.,0.,1.));
#1423=DIRECTION('center_axis',(0.,0.,1.));
#1424=DIRECTION('ref_axis',(1.,0.,0.));
#1425=DIRECTION('',(-1.,0.,0.));
#1426=DIRECTION('center_axis',(0.,0.,1.));
#1427=DIRECTION('ref_axis',(1.,0.,0.));
#1428=DIRECTION('',(0.,0.,1.));
#1429=DIRECTION('center_axis',(0.,0.,1.));
#1430=DIRECTION('ref_axis',(-1.,1.22464679914735E-16,0.));
#1431=DIRECTION('',(0.,0.,1.));
#1432=DIRECTION('',(0.,0.,-1.));
#1433=DIRECTION('center_axis',(0.,0.,-1.));
#1434=DIRECTION('ref_axis',(1.,0.,0.));
#1435=DIRECTION('',(0.,0.,-1.));
#1436=DIRECTION('',(0.,0.,1.));
#1437=DIRECTION('center_axis',(0.,0.,-1.));
#1438=DIRECTION('ref_axis',(1.,0.,0.));
#1439=DIRECTION('center_axis',(-1.,0.,0.));
#1440=DIRECTION('ref_axis',(0.,-1.,0.));
#1441=DIRECTION('',(0.,0.,1.));
#1442=DIRECTION('',(0.,1.,0.));
#1443=DIRECTION('',(0.,0.,1.));
#1444=DIRECTION('',(0.,-1.,0.));
#1445=DIRECTION('',(0.,0.,-1.));
#1446=DIRECTION('',(0.,1.,0.));
#1447=DIRECTION('center_axis',(-1.,0.,0.));
#1448=DIRECTION('ref_axis',(0.,-1.,0.));
#1449=DIRECTION('',(0.,1.,0.));
#1450=DIRECTION('',(0.,0.,1.));
#1451=DIRECTION('center_axis',(0.,0.,1.));
#1452=DIRECTION('ref_axis',(1.,0.,0.));
#1453=DIRECTION('',(1.,0.,0.));
#1454=DIRECTION('',(0.,1.,0.));
#1455=DIRECTION('center_axis',(0.,0.,1.));
#1456=DIRECTION('ref_axis',(1.,0.,0.));
#1457=DIRECTION('',(0.,1.,0.));
#1458=DIRECTION('',(-1.,0.,0.));
#1459=DIRECTION('center_axis',(0.,0.,-1.));
#1460=DIRECTION('ref_axis',(0.,1.,0.));
#1461=DIRECTION('center_axis',(1.,0.,0.));
#1462=DIRECTION('ref_axis',(0.,1.,0.));
#1463=DIRECTION('',(0.,0.,1.));
#1464=DIRECTION('center_axis',(1.,0.,0.));
#1465=DIRECTION('ref_axis',(0.,1.,0.));
#1466=DIRECTION('',(0.,0.,1.));
#1467=DIRECTION('center_axis',(0.,0.,1.));
#1468=DIRECTION('ref_axis',(1.,0.,0.));
#1469=DIRECTION('',(0.,0.,1.));
#1470=DIRECTION('center_axis',(0.,0.,1.));
#1471=DIRECTION('ref_axis',(-1.,-1.22464679914735E-16,0.));
#1472=DIRECTION('',(0.,0.,-1.));
#1473=DIRECTION('center_axis',(0.,0.,-1.));
#1474=DIRECTION('ref_axis',(1.,0.,0.));
#1475=DIRECTION('',(0.,0.,-1.));
#1476=DIRECTION('',(0.,0.,1.));
#1477=DIRECTION('center_axis',(0.,0.,-1.));
#1478=DIRECTION('ref_axis',(1.,0.,0.));
#1479=DIRECTION('center_axis',(0.,0.,1.));
#1480=DIRECTION('ref_axis',(1.,0.,0.));
#1481=DIRECTION('',(0.,1.,0.));
#1482=DIRECTION('',(-1.,0.,0.));
#1483=DIRECTION('center_axis',(1.,0.,0.));
#1484=DIRECTION('ref_axis',(0.,1.,0.));
#1485=DIRECTION('',(0.,0.,1.));
#1486=DIRECTION('center_axis',(0.,-1.,0.));
#1487=DIRECTION('ref_axis',(1.,0.,0.));
#1488=DIRECTION('',(0.,0.,-1.));
#1489=DIRECTION('',(-1.,0.,0.));
#1490=DIRECTION('center_axis',(0.,1.,0.));
#1491=DIRECTION('ref_axis',(-1.,0.,0.));
#1492=DIRECTION('',(0.,0.,-1.));
#1493=DIRECTION('',(1.,0.,0.));
#1494=DIRECTION('',(0.,0.,1.));
#1495=DIRECTION('',(0.,0.,1.));
#1496=DIRECTION('center_axis',(-1.,0.,0.));
#1497=DIRECTION('ref_axis',(0.,-1.,0.));
#1498=DIRECTION('center_axis',(0.,0.,1.));
#1499=DIRECTION('ref_axis',(1.,0.,0.));
#1500=DIRECTION('',(0.,0.,1.));
#1501=DIRECTION('center_axis',(0.,0.,1.));
#1502=DIRECTION('ref_axis',(1.,0.,0.));
#1503=DIRECTION('center_axis',(1.,0.,0.));
#1504=DIRECTION('ref_axis',(0.,1.,0.));
#1505=DIRECTION('',(0.,-1.,0.));
#1506=DIRECTION('',(0.,0.,1.));
#1507=DIRECTION('center_axis',(0.,0.,1.));
#1508=DIRECTION('ref_axis',(1.,0.,0.));
#1509=DIRECTION('',(0.,-1.,0.));
#1510=DIRECTION('',(1.,0.,0.));
#1511=DIRECTION('center_axis',(-1.,0.,0.));
#1512=DIRECTION('ref_axis',(0.,-1.,0.));
#1513=DIRECTION('',(0.,0.,1.));
#1514=DIRECTION('center_axis',(0.,1.,0.));
#1515=DIRECTION('ref_axis',(-1.,0.,0.));
#1516=DIRECTION('center_axis',(0.,0.,1.));
#1517=DIRECTION('ref_axis',(1.,0.,0.));
#1518=DIRECTION('',(0.,-1.,0.));
#1519=DIRECTION('',(1.,0.,0.));
#1520=DIRECTION('center_axis',(0.,0.,-1.));
#1521=DIRECTION('ref_axis',(0.,-1.,0.));
#1522=DIRECTION('center_axis',(0.,-1.,0.));
#1523=DIRECTION('ref_axis',(1.,0.,0.));
#1524=DIRECTION('',(0.,0.,-1.));
#1525=DIRECTION('',(-1.,0.,0.));
#1526=DIRECTION('',(0.,0.,1.));
#1527=DIRECTION('',(0.,0.,1.));
#1528=DIRECTION('center_axis',(-1.,0.,0.));
#1529=DIRECTION('ref_axis',(0.,-1.,0.));
#1530=DIRECTION('center_axis',(0.,0.,1.));
#1531=DIRECTION('ref_axis',(0.,-1.,0.));
#1532=DIRECTION('center_axis',(0.,0.,1.));
#1533=DIRECTION('ref_axis',(0.,-1.,0.));
#1534=DIRECTION('',(0.,0.,1.));
#1535=DIRECTION('center_axis',(0.,0.,1.));
#1536=DIRECTION('ref_axis',(1.,0.,0.));
#1537=DIRECTION('center_axis',(0.,0.,-1.));
#1538=DIRECTION('ref_axis',(0.,-1.,0.));
#1539=DIRECTION('',(-1.,0.,0.));
#1540=DIRECTION('center_axis',(0.,0.,-1.));
#1541=DIRECTION('ref_axis',(-1.,0.,0.));
#1542=DIRECTION('',(-1.,0.,0.));
#1543=DIRECTION('center_axis',(0.,0.,1.));
#1544=DIRECTION('ref_axis',(-1.,0.,0.));
#1545=DIRECTION('',(1.,0.,0.));
#1546=DIRECTION('center_axis',(0.,0.,1.));
#1547=DIRECTION('ref_axis',(1.,0.,0.));
#1548=DIRECTION('',(-1.,0.,0.));
#1549=DIRECTION('center_axis',(0.,0.,1.));
#1550=DIRECTION('ref_axis',(0.,1.,0.));
#1551=DIRECTION('',(1.,0.,0.));
#1552=DIRECTION('center_axis',(0.,0.,-1.));
#1553=DIRECTION('ref_axis',(0.,1.,0.));
#1554=DIRECTION('',(1.,0.,0.));
#1555=DIRECTION('center_axis',(0.,0.,-1.));
#1556=DIRECTION('ref_axis',(1.,0.,0.));
#1557=DIRECTION('center_axis',(0.,1.,0.));
#1558=DIRECTION('ref_axis',(-1.,0.,0.));
#1559=DIRECTION('',(0.,0.,1.));
#1560=DIRECTION('',(0.,0.,-1.));
#1561=DIRECTION('center_axis',(0.,-1.,0.));
#1562=DIRECTION('ref_axis',(1.,0.,0.));
#1563=DIRECTION('',(-1.,0.,0.));
#1564=DIRECTION('',(0.,0.,1.));
#1565=DIRECTION('center_axis',(0.,0.,1.));
#1566=DIRECTION('ref_axis',(0.,1.,0.));
#1567=DIRECTION('',(0.,0.,1.));
#1568=DIRECTION('center_axis',(0.,0.,1.));
#1569=DIRECTION('ref_axis',(1.,0.,0.));
#1570=DIRECTION('',(1.,0.,0.));
#1571=DIRECTION('',(0.,1.,0.));
#1572=DIRECTION('center_axis',(0.,1.,0.));
#1573=DIRECTION('ref_axis',(-1.,0.,0.));
#1574=DIRECTION('',(0.,0.,-1.));
#1575=DIRECTION('center_axis',(1.,0.,0.));
#1576=DIRECTION('ref_axis',(0.,1.,0.));
#1577=DIRECTION('',(0.,1.,0.));
#1578=DIRECTION('',(0.,0.,1.));
#1579=DIRECTION('center_axis',(0.,-1.,0.));
#1580=DIRECTION('ref_axis',(1.,0.,0.));
#1581=DIRECTION('',(0.,0.,-1.));
#1582=DIRECTION('',(0.,0.,1.));
#1583=DIRECTION('',(1.,0.,0.));
#1584=DIRECTION('center_axis',(0.,0.,1.));
#1585=DIRECTION('ref_axis',(1.,0.,0.));
#1586=DIRECTION('',(0.,1.,0.));
#1587=DIRECTION('center_axis',(0.,0.,-1.));
#1588=DIRECTION('ref_axis',(-1.,0.,0.));
#1589=DIRECTION('center_axis',(1.,0.,0.));
#1590=DIRECTION('ref_axis',(0.,1.,0.));
#1591=DIRECTION('center_axis',(0.,1.,0.));
#1592=DIRECTION('ref_axis',(-1.,0.,0.));
#1593=DIRECTION('',(0.,0.,1.));
#1594=DIRECTION('',(0.,0.,1.));
#1595=DIRECTION('center_axis',(0.,0.,1.));
#1596=DIRECTION('ref_axis',(0.,-1.,0.));
#1597=DIRECTION('center_axis',(0.,0.,1.));
#1598=DIRECTION('ref_axis',(1.,0.,0.));
#1599=DIRECTION('',(0.,0.,1.));
#1600=DIRECTION('center_axis',(0.,-1.,0.));
#1601=DIRECTION('ref_axis',(1.,0.,0.));
#1602=DIRECTION('center_axis',(0.,0.,1.));
#1603=DIRECTION('ref_axis',(-1.,0.,0.));
#1604=DIRECTION('center_axis',(-1.,0.,0.));
#1605=DIRECTION('ref_axis',(0.,-1.,0.));
#1606=DIRECTION('',(0.,0.,1.));
#1607=DIRECTION('center_axis',(0.,0.,1.));
#1608=DIRECTION('ref_axis',(0.,1.,0.));
#1609=DIRECTION('',(0.,0.,1.));
#1610=DIRECTION('center_axis',(0.,1.,0.));
#1611=DIRECTION('ref_axis',(-1.,0.,0.));
#1612=DIRECTION('center_axis',(0.,-1.,0.));
#1613=DIRECTION('ref_axis',(1.,0.,0.));
#1614=DIRECTION('',(0.,0.,1.));
#1615=DIRECTION('center_axis',(0.,0.,1.));
#1616=DIRECTION('ref_axis',(-1.,0.,0.));
#1617=CARTESIAN_POINT('',(0.,0.,0.));
#1618=CARTESIAN_POINT('Origin',(8.5,3.6,-1.43));
#1619=CARTESIAN_POINT('',(8.33,3.6,-1.42));
#1620=CARTESIAN_POINT('Origin',(8.5,3.6,-1.42));
#1621=CARTESIAN_POINT('',(8.33,3.6,-1.18));
#1622=CARTESIAN_POINT('',(8.33,3.6,-1.43));
#1623=CARTESIAN_POINT('Origin',(8.5,3.6,-1.18));
#1624=CARTESIAN_POINT('Origin',(8.5,3.6,-1.42));
#1625=CARTESIAN_POINT('',(8.25,3.83043437243606,-1.18));
#1626=CARTESIAN_POINT('',(8.25,3.83043437243606,-1.181));
#1627=CARTESIAN_POINT('',(8.25,3.83043437243606,-1.42));
#1628=CARTESIAN_POINT('',(8.25,3.36956562756394,-1.18));
#1629=CARTESIAN_POINT('Origin',(8.5,3.6,-1.18));
#1630=CARTESIAN_POINT('',(8.25,3.36956562756394,-1.181));
#1631=CARTESIAN_POINT('',(8.25,3.36956562756394,-1.42));
#1632=CARTESIAN_POINT('',(8.4,3.27503846381456,-1.181));
#1633=CARTESIAN_POINT('Origin',(8.5,3.6,-1.181));
#1634=CARTESIAN_POINT('',(8.4,3.27503846381456,-1.42));
#1635=CARTESIAN_POINT('',(8.4,3.27503846381456,-1.42));
#1636=CARTESIAN_POINT('',(8.4,3.92496153618544,-1.42));
#1637=CARTESIAN_POINT('Origin',(8.5,3.6,-1.42));
#1638=CARTESIAN_POINT('',(8.4,3.92496153618544,-1.181));
#1639=CARTESIAN_POINT('',(8.4,3.92496153618544,-1.42));
#1640=CARTESIAN_POINT('Origin',(8.5,3.6,-1.181));
#1641=CARTESIAN_POINT('Origin',(8.25,3.97,-1.181));
#1642=CARTESIAN_POINT('',(8.25,3.23,-1.18));
#1643=CARTESIAN_POINT('',(8.25,2.985,-1.18));
#1644=CARTESIAN_POINT('',(8.25,3.23,-1.181));
#1645=CARTESIAN_POINT('',(8.25,3.23,-1.181));
#1646=CARTESIAN_POINT('',(8.25,3.97,-1.181));
#1647=CARTESIAN_POINT('Origin',(4.,2.,-1.42));
#1648=CARTESIAN_POINT('',(8.4,0.724961536185438,-1.42));
#1649=CARTESIAN_POINT('',(8.4,0.05,-1.42));
#1650=CARTESIAN_POINT('',(8.4,0.0750384638145616,-1.42));
#1651=CARTESIAN_POINT('Origin',(8.5,0.4,-1.42));
#1652=CARTESIAN_POINT('',(8.4,0.05,-1.42));
#1653=CARTESIAN_POINT('',(8.4,0.05,-1.42));
#1654=CARTESIAN_POINT('',(7.95,-0.4,-1.42));
#1655=CARTESIAN_POINT('Origin',(7.95,0.05,-1.42));
#1656=CARTESIAN_POINT('',(0.05,-0.4,-1.42));
#1657=CARTESIAN_POINT('',(0.05,-0.4,-1.42));
#1658=CARTESIAN_POINT('',(-0.4,0.05,-1.42));
#1659=CARTESIAN_POINT('Origin',(0.05,0.05,-1.42));
#1660=CARTESIAN_POINT('',(-0.4,0.0750384638145616,-1.42));
#1661=CARTESIAN_POINT('',(-0.4,3.95,-1.42));
#1662=CARTESIAN_POINT('',(-0.4,0.724961536185438,-1.42));
#1663=CARTESIAN_POINT('Origin',(-0.5,0.4,-1.42));
#1664=CARTESIAN_POINT('',(-0.4,3.27503846381456,-1.42));
#1665=CARTESIAN_POINT('',(-0.4,3.95,-1.42));
#1666=CARTESIAN_POINT('',(-0.4,3.92496153618544,-1.42));
#1667=CARTESIAN_POINT('Origin',(-0.5,3.6,-1.42));
#1668=CARTESIAN_POINT('',(-0.4,3.95,-1.42));
#1669=CARTESIAN_POINT('',(-0.4,3.95,-1.42));
#1670=CARTESIAN_POINT('',(0.05,4.4,-1.42));
#1671=CARTESIAN_POINT('Origin',(0.05,3.95,-1.42));
#1672=CARTESIAN_POINT('',(7.95,4.4,-1.42));
#1673=CARTESIAN_POINT('',(7.95,4.4,-1.42));
#1674=CARTESIAN_POINT('',(8.4,3.95,-1.42));
#1675=CARTESIAN_POINT('Origin',(7.95,3.95,-1.42));
#1676=CARTESIAN_POINT('',(8.4,0.05,-1.42));
#1677=CARTESIAN_POINT('',(-0.67,0.4,-1.42));
#1678=CARTESIAN_POINT('Origin',(-0.5,0.4,-1.42));
#1679=CARTESIAN_POINT('',(-0.67,3.6,-1.42));
#1680=CARTESIAN_POINT('Origin',(-0.5,3.6,-1.42));
#1681=CARTESIAN_POINT('',(8.33,0.4,-1.42));
#1682=CARTESIAN_POINT('Origin',(8.5,0.4,-1.42));
#1683=CARTESIAN_POINT('Origin',(8.55,3.6,-1.181));
#1684=CARTESIAN_POINT('',(8.4,3.23,-1.181));
#1685=CARTESIAN_POINT('',(8.25,3.23,-1.181));
#1686=CARTESIAN_POINT('',(8.4,1.825,-1.181));
#1687=CARTESIAN_POINT('Origin',(8.55,3.6,-1.181));
#1688=CARTESIAN_POINT('',(8.4,3.95,-1.181));
#1689=CARTESIAN_POINT('',(8.4,1.825,-1.181));
#1690=CARTESIAN_POINT('',(8.39955533585978,3.97,-1.181));
#1691=CARTESIAN_POINT('Origin',(7.95,3.95,-1.181));
#1692=CARTESIAN_POINT('',(8.25,3.97,-1.181));
#1693=CARTESIAN_POINT('',(8.85,3.97,-1.181));
#1694=CARTESIAN_POINT('',(8.25,3.97,-1.181));
#1695=CARTESIAN_POINT('Origin',(8.4,0.05,-1.42));
#1696=CARTESIAN_POINT('',(8.4,3.23,-0.98));
#1697=CARTESIAN_POINT('',(8.4,3.23,-1.3005));
#1698=CARTESIAN_POINT('',(8.4,0.77,-0.98));
#1699=CARTESIAN_POINT('',(8.4,0.05,-0.98));
#1700=CARTESIAN_POINT('',(8.4,0.77,-1.181));
#1701=CARTESIAN_POINT('',(8.4,0.77,-1.3005));
#1702=CARTESIAN_POINT('',(8.4,0.724961536185438,-1.181));
#1703=CARTESIAN_POINT('',(8.4,0.225,-1.181));
#1704=CARTESIAN_POINT('',(8.4,0.724961536185438,-1.42));
#1705=CARTESIAN_POINT('Origin',(8.4,0.05,-1.42));
#1706=CARTESIAN_POINT('',(8.4,3.95,-1.42));
#1707=CARTESIAN_POINT('Origin',(8.5,0.4,-1.43));
#1708=CARTESIAN_POINT('',(8.33,0.4,-1.18));
#1709=CARTESIAN_POINT('',(8.33,0.4,-1.43));
#1710=CARTESIAN_POINT('Origin',(8.5,0.4,-1.18));
#1711=CARTESIAN_POINT('Origin',(8.5,0.4,-1.42));
#1712=CARTESIAN_POINT('',(8.25,0.169565627563942,-1.181));
#1713=CARTESIAN_POINT('',(8.25,0.169565627563942,-1.18));
#1714=CARTESIAN_POINT('',(8.25,0.169565627563942,-1.42));
#1715=CARTESIAN_POINT('',(8.4,0.0750384638145616,-1.181));
#1716=CARTESIAN_POINT('Origin',(8.5,0.4,-1.181));
#1717=CARTESIAN_POINT('',(8.4,0.0750384638145616,-1.42));
#1718=CARTESIAN_POINT('',(8.25,0.630434372436058,-1.181));
#1719=CARTESIAN_POINT('Origin',(8.5,0.4,-1.181));
#1720=CARTESIAN_POINT('',(8.25,0.630434372436058,-1.18));
#1721=CARTESIAN_POINT('',(8.25,0.630434372436058,-1.42));
#1722=CARTESIAN_POINT('Origin',(8.5,0.4,-1.18));
#1723=CARTESIAN_POINT('Origin',(4.,2.,-1.18));
#1724=CARTESIAN_POINT('',(8.25,3.97,-1.18));
#1725=CARTESIAN_POINT('',(8.25,2.985,-1.18));
#1726=CARTESIAN_POINT('',(8.27939338184001,3.97,-1.18));
#1727=CARTESIAN_POINT('',(6.425,3.97,-1.18));
#1728=CARTESIAN_POINT('',(7.95,4.28,-1.18));
#1729=CARTESIAN_POINT('Origin',(7.95,3.95,-1.18));
#1730=CARTESIAN_POINT('',(0.05,4.28,-1.18));
#1731=CARTESIAN_POINT('',(2.025,4.28,-1.18));
#1732=CARTESIAN_POINT('',(-0.279393381840011,3.97,-1.18));
#1733=CARTESIAN_POINT('Origin',(0.05,3.95,-1.18));
#1734=CARTESIAN_POINT('',(-0.25,3.97,-1.18));
#1735=CARTESIAN_POINT('',(1.875,3.97,-1.18));
#1736=CARTESIAN_POINT('',(-0.25,3.83043437243606,-1.18));
#1737=CARTESIAN_POINT('',(-0.25,2.615,-1.18));
#1738=CARTESIAN_POINT('',(-0.25,3.36956562756394,-1.18));
#1739=CARTESIAN_POINT('Origin',(-0.5,3.6,-1.18));
#1740=CARTESIAN_POINT('',(-0.25,3.23,-1.18));
#1741=CARTESIAN_POINT('',(-0.25,2.615,-1.18));
#1742=CARTESIAN_POINT('',(-0.28,3.23,-1.18));
#1743=CARTESIAN_POINT('',(1.575,3.23,-1.18));
#1744=CARTESIAN_POINT('',(-0.28,0.77,-1.18));
#1745=CARTESIAN_POINT('',(-0.28,1.025,-1.18));
#1746=CARTESIAN_POINT('',(-0.25,0.77,-1.18));
#1747=CARTESIAN_POINT('',(1.875,0.77,-1.18));
#1748=CARTESIAN_POINT('',(-0.25,0.630434372436058,-1.18));
#1749=CARTESIAN_POINT('',(-0.25,1.015,-1.18));
#1750=CARTESIAN_POINT('',(-0.25,0.169565627563942,-1.18));
#1751=CARTESIAN_POINT('Origin',(-0.5,0.4,-1.18));
#1752=CARTESIAN_POINT('',(-0.25,0.03,-1.18));
#1753=CARTESIAN_POINT('',(-0.25,1.015,-1.18));
#1754=CARTESIAN_POINT('',(-0.279393381840012,0.03,-1.18));
#1755=CARTESIAN_POINT('',(1.575,0.0299999999999999,-1.18));
#1756=CARTESIAN_POINT('',(0.05,-0.28,-1.18));
#1757=CARTESIAN_POINT('Origin',(0.05,0.05,-1.18));
#1758=CARTESIAN_POINT('',(7.95,-0.28,-1.18));
#1759=CARTESIAN_POINT('',(5.975,-0.28,-1.18));
#1760=CARTESIAN_POINT('',(8.27939338184001,0.03,-1.18));
#1761=CARTESIAN_POINT('Origin',(7.95,0.05,-1.18));
#1762=CARTESIAN_POINT('',(8.25,0.03,-1.18));
#1763=CARTESIAN_POINT('',(6.125,0.0299999999999999,-1.18));
#1764=CARTESIAN_POINT('',(8.25,1.385,-1.18));
#1765=CARTESIAN_POINT('',(8.25,0.77,-1.18));
#1766=CARTESIAN_POINT('',(8.25,1.385,-1.18));
#1767=CARTESIAN_POINT('',(8.28,0.77,-1.18));
#1768=CARTESIAN_POINT('',(6.425,0.77,-1.18));
#1769=CARTESIAN_POINT('',(8.28,3.23,-1.18));
#1770=CARTESIAN_POINT('',(8.28,2.975,-1.18));
#1771=CARTESIAN_POINT('',(6.125,3.23,-1.18));
#1772=CARTESIAN_POINT('',(-0.67,0.4,-1.18));
#1773=CARTESIAN_POINT('Origin',(-0.5,0.4,-1.18));
#1774=CARTESIAN_POINT('',(-0.67,3.6,-1.18));
#1775=CARTESIAN_POINT('Origin',(-0.5,3.6,-1.18));
#1776=CARTESIAN_POINT('Origin',(8.25,0.77,-1.181));
#1777=CARTESIAN_POINT('',(8.25,0.77,-1.181));
#1778=CARTESIAN_POINT('',(8.25,0.77,-1.181));
#1779=CARTESIAN_POINT('',(8.25,0.77,-1.181));
#1780=CARTESIAN_POINT('Origin',(8.55,0.4,-1.181));
#1781=CARTESIAN_POINT('',(8.85,0.77,-1.181));
#1782=CARTESIAN_POINT('Origin',(-0.5,3.6,-1.43));
#1783=CARTESIAN_POINT('',(-0.67,3.6,-1.43));
#1784=CARTESIAN_POINT('Origin',(-0.5,3.6,-1.42));
#1785=CARTESIAN_POINT('',(-0.4,3.92496153618544,-1.181));
#1786=CARTESIAN_POINT('',(-0.4,3.92496153618544,-1.42));
#1787=CARTESIAN_POINT('',(-0.4,3.27503846381456,-1.181));
#1788=CARTESIAN_POINT('',(-0.4,3.27503846381456,-1.42));
#1789=CARTESIAN_POINT('',(-0.25,3.36956562756394,-1.181));
#1790=CARTESIAN_POINT('Origin',(-0.5,3.6,-1.181));
#1791=CARTESIAN_POINT('',(-0.25,3.36956562756394,-1.42));
#1792=CARTESIAN_POINT('',(-0.25,3.83043437243606,-1.181));
#1793=CARTESIAN_POINT('',(-0.25,3.83043437243606,-1.42));
#1794=CARTESIAN_POINT('Origin',(-0.5,3.6,-1.181));
#1795=CARTESIAN_POINT('Origin',(-0.4,3.95,-1.42));
#1796=CARTESIAN_POINT('',(-0.4,0.724961536185438,-1.181));
#1797=CARTESIAN_POINT('',(-0.4,0.724961536185438,-1.42));
#1798=CARTESIAN_POINT('',(-0.4,0.77,-1.181));
#1799=CARTESIAN_POINT('',(-0.4,2.175,-1.181));
#1800=CARTESIAN_POINT('',(-0.4,0.77,-0.98));
#1801=CARTESIAN_POINT('',(-0.4,0.77,-1.3005));
#1802=CARTESIAN_POINT('',(-0.4,3.23,-0.98));
#1803=CARTESIAN_POINT('',(-0.4,3.95,-0.98));
#1804=CARTESIAN_POINT('',(-0.4,3.23,-1.181));
#1805=CARTESIAN_POINT('',(-0.4,3.23,-1.3005));
#1806=CARTESIAN_POINT('',(-0.4,3.775,-1.181));
#1807=CARTESIAN_POINT('Origin',(-0.4,3.95,-1.42));
#1808=CARTESIAN_POINT('',(-0.4,3.95,-1.181));
#1809=CARTESIAN_POINT('',(-0.4,3.775,-1.181));
#1810=CARTESIAN_POINT('',(-0.4,3.95,-1.42));
#1811=CARTESIAN_POINT('Origin',(-0.55,3.6,-1.181));
#1812=CARTESIAN_POINT('',(-0.25,3.23,-1.181));
#1813=CARTESIAN_POINT('',(-0.85,3.23,-1.181));
#1814=CARTESIAN_POINT('',(-0.25,3.23,-1.181));
#1815=CARTESIAN_POINT('Origin',(-0.55,3.6,-1.181));
#1816=CARTESIAN_POINT('',(-0.25,3.97,-1.181));
#1817=CARTESIAN_POINT('',(-0.25,3.23,-1.181));
#1818=CARTESIAN_POINT('',(-0.399555335859781,3.97,-1.181));
#1819=CARTESIAN_POINT('',(-0.25,3.97,-1.181));
#1820=CARTESIAN_POINT('Origin',(0.05,3.95,-1.181));
#1821=CARTESIAN_POINT('Origin',(-0.25,3.23,-1.181));
#1822=CARTESIAN_POINT('',(-0.25,3.23,-1.181));
#1823=CARTESIAN_POINT('Origin',(-0.25,3.23,-1.181));
#1824=CARTESIAN_POINT('',(-0.25,3.97,-1.181));
#1825=CARTESIAN_POINT('Origin',(-0.5,0.4,-1.43));
#1826=CARTESIAN_POINT('',(-0.67,0.4,-1.43));
#1827=CARTESIAN_POINT('Origin',(-0.5,0.4,-1.42));
#1828=CARTESIAN_POINT('',(-0.4,0.0750384638145616,-1.181));
#1829=CARTESIAN_POINT('',(-0.4,0.0750384638145616,-1.42));
#1830=CARTESIAN_POINT('',(-0.25,0.169565627563942,-1.181));
#1831=CARTESIAN_POINT('Origin',(-0.5,0.4,-1.181));
#1832=CARTESIAN_POINT('',(-0.25,0.169565627563942,-1.42));
#1833=CARTESIAN_POINT('',(-0.25,0.630434372436058,-1.181));
#1834=CARTESIAN_POINT('',(-0.25,0.630434372436058,-1.42));
#1835=CARTESIAN_POINT('Origin',(-0.5,0.4,-1.181));
#1836=CARTESIAN_POINT('Origin',(-0.55,0.4,-1.181));
#1837=CARTESIAN_POINT('',(-0.25,0.77,-1.181));
#1838=CARTESIAN_POINT('',(-0.25,0.03,-1.181));
#1839=CARTESIAN_POINT('',(-0.25,0.77,-1.181));
#1840=CARTESIAN_POINT('Origin',(-0.25,0.03,-1.181));
#1841=CARTESIAN_POINT('',(-0.25,0.77,-1.181));
#1842=CARTESIAN_POINT('Origin',(8.25,3.23,-1.181));
#1843=CARTESIAN_POINT('',(8.28,3.23,-0.98));
#1844=CARTESIAN_POINT('',(8.28,3.23,-1.1805));
#1845=CARTESIAN_POINT('',(6.125,3.23,-0.98));
#1846=CARTESIAN_POINT('Origin',(8.85,3.97,-1.181));
#1847=CARTESIAN_POINT('',(8.39955533585978,3.97,-0.98));
#1848=CARTESIAN_POINT('',(8.39955533585978,3.97,-1.42));
#1849=CARTESIAN_POINT('',(8.27939338184001,3.97,-0.98));
#1850=CARTESIAN_POINT('',(6.425,3.97,-0.98));
#1851=CARTESIAN_POINT('',(8.27939338184001,3.97,-1.18));
#1852=CARTESIAN_POINT('',(8.25,3.97,-1.181));
#1853=CARTESIAN_POINT('Origin',(8.25,3.97,-1.181));
#1854=CARTESIAN_POINT('Origin',(7.95,3.95,-1.42));
#1855=CARTESIAN_POINT('',(7.95,4.4,-0.98));
#1856=CARTESIAN_POINT('',(7.95,4.4,-1.42));
#1857=CARTESIAN_POINT('Origin',(7.95,3.95,-0.98));
#1858=CARTESIAN_POINT('Origin',(8.4,0.05,-1.42));
#1859=CARTESIAN_POINT('',(8.4,0.05,-1.181));
#1860=CARTESIAN_POINT('',(8.4,0.225,-1.181));
#1861=CARTESIAN_POINT('',(8.4,0.05,-1.42));
#1862=CARTESIAN_POINT('Origin',(4.,2.,-0.98));
#1863=CARTESIAN_POINT('',(8.28,0.77,-0.98));
#1864=CARTESIAN_POINT('',(8.28,0.05,-0.98));
#1865=CARTESIAN_POINT('',(6.425,0.77,-0.98));
#1866=CARTESIAN_POINT('Origin',(8.28,3.95,-1.18));
#1867=CARTESIAN_POINT('',(8.28,0.77,-1.1805));
#1868=CARTESIAN_POINT('Origin',(8.85,0.77,-1.181));
#1869=CARTESIAN_POINT('Origin',(8.55,0.4,-1.181));
#1870=CARTESIAN_POINT('',(8.25,0.03,-1.181));
#1871=CARTESIAN_POINT('',(8.25,0.77,-1.181));
#1872=CARTESIAN_POINT('',(8.39955533585978,0.03,-1.181));
#1873=CARTESIAN_POINT('',(8.25,0.03,-1.181));
#1874=CARTESIAN_POINT('Origin',(7.95,0.05,-1.181));
#1875=CARTESIAN_POINT('Origin',(8.25,0.03,-1.181));
#1876=CARTESIAN_POINT('',(8.27939338184001,0.03,-0.98));
#1877=CARTESIAN_POINT('',(8.27939338184001,0.03,-1.18));
#1878=CARTESIAN_POINT('',(8.39955533585978,0.03,-0.98));
#1879=CARTESIAN_POINT('',(6.125,0.0299999999999999,-0.98));
#1880=CARTESIAN_POINT('',(8.39955533585978,0.03,-1.42));
#1881=CARTESIAN_POINT('',(8.25,0.03,-1.181));
#1882=CARTESIAN_POINT('Origin',(8.25,0.77,-1.181));
#1883=CARTESIAN_POINT('Origin',(7.95,0.05,-1.42));
#1884=CARTESIAN_POINT('',(7.95,-0.4,-0.98));
#1885=CARTESIAN_POINT('Origin',(7.95,0.05,-0.98));
#1886=CARTESIAN_POINT('',(7.95,-0.4,-1.42));
#1887=CARTESIAN_POINT('Origin',(4.,2.,-0.98));
#1888=CARTESIAN_POINT('',(7.95,-0.28,-0.98));
#1889=CARTESIAN_POINT('Origin',(7.95,0.05,-0.98));
#1890=CARTESIAN_POINT('',(0.05,-0.28,-0.98));
#1891=CARTESIAN_POINT('',(0.05,-0.28,-0.98));
#1892=CARTESIAN_POINT('',(-0.279393381840012,0.03,-0.98));
#1893=CARTESIAN_POINT('Origin',(0.05,0.05,-0.98));
#1894=CARTESIAN_POINT('',(-0.39955533585978,0.03,-0.98));
#1895=CARTESIAN_POINT('',(1.575,0.0299999999999999,-0.98));
#1896=CARTESIAN_POINT('',(0.05,-0.4,-0.98));
#1897=CARTESIAN_POINT('Origin',(0.05,0.05,-0.98));
#1898=CARTESIAN_POINT('',(0.05,-0.4,-0.98));
#1899=CARTESIAN_POINT('Origin',(4.,2.,-0.98));
#1900=CARTESIAN_POINT('',(0.05,4.4,-0.98));
#1901=CARTESIAN_POINT('',(7.95,4.4,-0.98));
#1902=CARTESIAN_POINT('',(-0.399555335859781,3.97,-0.98));
#1903=CARTESIAN_POINT('Origin',(0.05,3.95,-0.98));
#1904=CARTESIAN_POINT('',(-0.279393381840011,3.97,-0.98));
#1905=CARTESIAN_POINT('',(1.875,3.97,-0.98));
#1906=CARTESIAN_POINT('',(0.05,4.28,-0.98));
#1907=CARTESIAN_POINT('Origin',(0.05,3.95,-0.98));
#1908=CARTESIAN_POINT('',(7.95,4.28,-0.98));
#1909=CARTESIAN_POINT('',(7.95,4.28,-0.98));
#1910=CARTESIAN_POINT('Origin',(7.95,3.95,-0.98));
#1911=CARTESIAN_POINT('Origin',(-0.25,3.97,-1.181));
#1912=CARTESIAN_POINT('',(-0.399555335859781,3.97,-1.42));
#1913=CARTESIAN_POINT('',(-0.279393381840011,3.97,-1.18));
#1914=CARTESIAN_POINT('Origin',(-0.85,3.23,-1.181));
#1915=CARTESIAN_POINT('',(-0.28,3.23,-0.98));
#1916=CARTESIAN_POINT('',(1.575,3.23,-0.98));
#1917=CARTESIAN_POINT('',(-0.28,3.23,-1.1805));
#1918=CARTESIAN_POINT('Origin',(0.05,3.95,-1.18));
#1919=CARTESIAN_POINT('',(0.05,4.28,-1.18));
#1920=CARTESIAN_POINT('Origin',(4.,2.,-0.98));
#1921=CARTESIAN_POINT('',(-0.28,0.77,-0.98));
#1922=CARTESIAN_POINT('',(1.875,0.77,-0.98));
#1923=CARTESIAN_POINT('',(-0.28,3.95,-0.98));
#1924=CARTESIAN_POINT('Origin',(-0.25,0.77,-1.181));
#1925=CARTESIAN_POINT('',(-0.28,0.77,-1.1805));
#1926=CARTESIAN_POINT('Origin',(-0.25,0.03,-1.181));
#1927=CARTESIAN_POINT('',(-0.25,0.03,-1.181));
#1928=CARTESIAN_POINT('',(-0.25,0.03,-1.181));
#1929=CARTESIAN_POINT('',(-0.25,0.03,-1.181));
#1930=CARTESIAN_POINT('Origin',(-0.85,0.03,-1.181));
#1931=CARTESIAN_POINT('',(-0.39955533585978,0.03,-1.181));
#1932=CARTESIAN_POINT('',(-0.39955533585978,0.03,-1.42));
#1933=CARTESIAN_POINT('',(-0.279393381840012,0.03,-1.18));
#1934=CARTESIAN_POINT('',(-0.85,0.03,-1.181));
#1935=CARTESIAN_POINT('Origin',(-0.55,0.4,-1.181));
#1936=CARTESIAN_POINT('',(-0.4,0.05,-1.181));
#1937=CARTESIAN_POINT('',(-0.4,2.175,-1.181));
#1938=CARTESIAN_POINT('Origin',(0.05,0.05,-1.181));
#1939=CARTESIAN_POINT('Origin',(-0.28,0.0499999999999998,-1.18));
#1940=CARTESIAN_POINT('Origin',(7.95,-0.28,-1.18));
#1941=CARTESIAN_POINT('',(0.05,-0.28,-1.18));
#1942=CARTESIAN_POINT('',(7.95,-0.28,-1.18));
#1943=CARTESIAN_POINT('Origin',(7.95,0.05,-1.18));
#1944=CARTESIAN_POINT('Origin',(7.95,3.95,-1.18));
#1945=CARTESIAN_POINT('',(7.95,4.28,-1.18));
#1946=CARTESIAN_POINT('Origin',(0.0499999999999998,4.28,-1.18));
#1947=CARTESIAN_POINT('Origin',(0.05,0.05,-1.18));
#1948=CARTESIAN_POINT('Origin',(-0.4,3.95,-1.42));
#1949=CARTESIAN_POINT('',(-0.4,0.05,-1.42));
#1950=CARTESIAN_POINT('Origin',(0.05,3.95,-1.42));
#1951=CARTESIAN_POINT('',(0.05,4.4,-1.42));
#1952=CARTESIAN_POINT('Origin',(7.95,4.4,-1.42));
#1953=CARTESIAN_POINT('Origin',(0.05,-0.4,-1.42));
#1954=CARTESIAN_POINT('',(0.05,-0.4,-1.42));
#1955=CARTESIAN_POINT('Origin',(0.05,0.05,-1.42));
#1956=UNCERTAINTY_MEASURE_WITH_UNIT(LENGTH_MEASURE(0.001),#1960,
'DISTANCE_ACCURACY_VALUE',
'Maximum model space distance between geometric entities at asserted c
onnectivities');
#1957=UNCERTAINTY_MEASURE_WITH_UNIT(LENGTH_MEASURE(0.001),#1960,
'DISTANCE_ACCURACY_VALUE',
'Maximum model space distance between geometric entities at asserted c
onnectivities');
#1958=(
GEOMETRIC_REPRESENTATION_CONTEXT(3)
GLOBAL_UNCERTAINTY_ASSIGNED_CONTEXT((#1956))
GLOBAL_UNIT_ASSIGNED_CONTEXT((#1960,#1962,#1963))
REPRESENTATION_CONTEXT('','3D')
);
#1959=(
GEOMETRIC_REPRESENTATION_CONTEXT(3)
GLOBAL_UNCERTAINTY_ASSIGNED_CONTEXT((#1957))
GLOBAL_UNIT_ASSIGNED_CONTEXT((#1960,#1962,#1963))
REPRESENTATION_CONTEXT('','3D')
);
#1960=(
LENGTH_UNIT()
NAMED_UNIT(*)
SI_UNIT(.CENTI.,.METRE.)
);
#1961=(
LENGTH_UNIT()
NAMED_UNIT(*)
SI_UNIT($,.METRE.)
);
#1962=(
NAMED_UNIT(*)
PLANE_ANGLE_UNIT()
SI_UNIT($,.RADIAN.)
);
#1963=(
NAMED_UNIT(*)
SI_UNIT($,.STERADIAN.)
SOLID_ANGLE_UNIT()
);
#1964=SHAPE_DEFINITION_REPRESENTATION(#1965,#1966);
#1965=PRODUCT_DEFINITION_SHAPE('',$,#1968);
#1966=SHAPE_REPRESENTATION('',(#1184),#1958);
#1967=PRODUCT_DEFINITION_CONTEXT('part definition',#1972,'design');
#1968=PRODUCT_DEFINITION('2026-09-24-21-10-20-423',
'03 Rear battery lid - Rev B',#1969,#1967);
#1969=PRODUCT_DEFINITION_FORMATION('',$,#1974);
#1970=PRODUCT_RELATED_PRODUCT_CATEGORY('03 Rear battery lid - Rev B',
'03 Rear battery lid - Rev B',(#1974));
#1971=APPLICATION_PROTOCOL_DEFINITION('international standard',
'automotive_design',2009,#1972);
#1972=APPLICATION_CONTEXT(
'Core Data for Automotive Mechanical Design Process');
#1973=PRODUCT_CONTEXT('part definition',#1972,'mechanical');
#1974=PRODUCT('2026-09-24-21-10-20-423','03 Rear battery lid - Rev B',$,
(#1973));
#1975=PRESENTATION_STYLE_ASSIGNMENT((#1977));
#1976=PRESENTATION_STYLE_ASSIGNMENT((#1978));
#1977=SURFACE_STYLE_USAGE(.BOTH.,#1979);
#1978=SURFACE_STYLE_USAGE(.BOTH.,#1980);
#1979=SURFACE_SIDE_STYLE('',(#1981));
#1980=SURFACE_SIDE_STYLE('',(#1982));
#1981=SURFACE_STYLE_FILL_AREA(#1983);
#1982=SURFACE_STYLE_FILL_AREA(#1984);
#1983=FILL_AREA_STYLE('Steel - Satin',(#1985));
#1984=FILL_AREA_STYLE('Rear lid grey',(#1986));
#1985=FILL_AREA_STYLE_COLOUR('Steel - Satin',#1987);
#1986=FILL_AREA_STYLE_COLOUR('Rear lid grey',#1988);
#1987=COLOUR_RGB('Steel - Satin',0.627450980392157,0.627450980392157,0.627450980392157);
#1988=COLOUR_RGB('Rear lid grey',0.392156862745098,0.427450980392157,0.47843137254902);
ENDSEC;
END-ISO-10303-21;
