M48
; DRILL file KiCad 10.0.6 date 2026-09-17T17:43:25
; FORMAT={-:-/ absolute / metric / decimal}
; #@! TF.CreationDate,2026-09-17T17:43:25+08:00
; #@! TF.GenerationSoftware,Kicad,Pcbnew,10.0.6
; #@! TF.FileFunction,Plated,1,2,PTH
FMAT,2
METRIC
; #@! TA.AperFunction,Plated,PTH,ViaDrill
T1C0.400
; #@! TA.AperFunction,Plated,PTH,ComponentDrill
T2C0.700
; #@! TA.AperFunction,Plated,PTH,ComponentDrill
T3C1.000
; #@! TA.AperFunction,Plated,PTH,ComponentDrill
T4C2.000
%
G90
G05
T1
X96.0Y-75.946
X98.5Y-77.3
X99.5Y-81.3
X102.0Y-80.0
X138.0Y-80.0
T2
X136.935Y-69.935
X139.0Y-74.92
X139.0Y-69.08
X141.065Y-74.065
T3
X82.55Y-61.468
X82.55Y-84.328
X85.09Y-61.468
X85.09Y-84.328
X87.63Y-61.468
X87.63Y-84.328
X90.17Y-61.468
X90.17Y-84.328
X92.71Y-61.468
X92.71Y-84.328
X95.25Y-61.468
X95.25Y-84.328
X97.79Y-61.468
X97.79Y-84.328
X100.33Y-61.468
X100.33Y-84.328
X102.87Y-61.468
X102.87Y-84.328
X105.41Y-61.468
X105.41Y-84.328
X107.95Y-61.468
X107.95Y-84.328
X110.49Y-61.468
X110.49Y-84.328
X113.03Y-61.468
X113.03Y-84.328
X115.57Y-61.468
X115.57Y-84.328
X118.11Y-61.468
X118.11Y-84.328
X120.65Y-61.468
X120.65Y-84.328
X123.19Y-61.468
X123.19Y-84.328
X125.73Y-61.468
X125.73Y-84.328
T4
X78.0Y-68.0
X88.0Y-68.0
X100.0Y-68.0
X112.0Y-68.0
M30
